NobotoBase.glyphspackage
{
glyphname = AE;
layers = (
{
anchors = (
{
name = top;
position = "{935, 1612}";
},
{
name = top0315;
position = "{1925, 1612}";
},
{
name = top_dd;
position = "{1925, 1600}";
}
);
layerId = "7E29EDC2-3C1E-4E70-8272-9573F49A38C1";
paths = (
{
closed = 1;
nodes = (
"986 1456 LINE",
"859 1456 LINE",
"-22 0 LINE",
"223 0 LINE",
"971 1298 LINE"
);
},
{
closed = 1;
nodes = (
"374 532 LINE",
"374 347 LINE",
"1127 347 LINE",
"1127 532 LINE"
);
},
{
closed = 1;
nodes = (
"1159 160 LINE",
"1159 0 LINE",
"1892 0 LINE",
"1892 160 LINE"
);
},
{
closed = 1;
nodes = (
"933 1456 LINE",
"994 0 LINE",
"1194 0 LINE",
"1133 1456 LINE"
);
},
{
closed = 1;
nodes = (
"1119 838 LINE",
"1119 678 LINE",
"1749 678 LINE",
"1749 838 LINE"
);
},
{
closed = 1;
nodes = (
"1098 1456 LINE",
"1098 1296 LINE",
"1830 1296 LINE",
"1830 1456 LINE"
);
}
);
width = 1925;
},
{
anchors = (
{
name = top;
position = "{971, 1612}";
},
{
name = top0315;
position = "{1816, 1612}";
},
{
name = top_dd;
position = "{1816, 1600}";
}
);
layerId = master01;
paths = (
{
closed = 1;
nodes = (
"980 1456 LINE",
"931 1456 LINE",
"50 0 LINE",
"115 0 LINE",
"963 1408 LINE"
);
},
{
closed = 1;
nodes = (
"354 478 LINE",
"354 425 LINE",
"1003 425 LINE",
"1003 478 LINE"
);
},
{
closed = 1;
nodes = (
"1035 54 LINE",
"1035 0 LINE",
"1768 0 LINE",
"1768 54 LINE"
);
},
{
closed = 1;
nodes = (
"955 1456 LINE",
"1016 0 LINE",
"1070 0 LINE",
"1009 1456 LINE"
);
},
{
closed = 1;
nodes = (
"995 786 LINE",
"995 732 LINE",
"1625 732 LINE",
"1625 786 LINE"
);
},
{
closed = 1;
nodes = (
"974 1456 LINE",
"974 1402 LINE",
"1707 1402 LINE",
"1707 1456 LINE"
);
}
);
width = 1816;
},
{
anchors = (
{
name = top;
position = "{934, 1612}";
},
{
name = top0315;
position = "{1926, 1612}";
},
{
name = top_dd;
position = "{1926, 1600}";
}
);
layerId = "3F40CA7F-E6AC-489E-A736-3B62737B1DDA";
paths = (
{
closed = 1;
nodes = (
"966 1456 LINE",
"763 1456 LINE",
"12 0 LINE",
"386 0 LINE",
"1003 1298 LINE"
);
},
{
closed = 1;
nodes = (
"339 599 LINE",
"339 329 LINE",
"1091 329 LINE",
"1091 599 LINE"
);
},
{
closed = 1;
nodes = (
"1124 264 LINE",
"1124 0 LINE",
"1856 0 LINE",
"1856 264 LINE"
);
},
{
closed = 1;
nodes = (
"898 1456 LINE",
"959 0 LINE",
"1281 0 LINE",
"1220 1456 LINE"
);
},
{
closed = 1;
nodes = (
"1083 876 LINE",
"1083 612 LINE",
"1714 612 LINE",
"1714 876 LINE"
);
},
{
closed = 1;
nodes = (
"1063 1456 LINE",
"1063 1192 LINE",
"1795 1192 LINE",
"1795 1456 LINE"
);
}
);
width = 1926;
}
);
unicode = 00C6;
}
{
glyphname = Oslash;
layers = (
{
anchors = (
{
name = top;
position = "{715, 1674}";
},
{
name = top0315;
position = "{1414, 1674}";
},
{
name = top_dd;
position = "{1414, 1600}";
}
);
components = (
{
name = O;
}
);
layerId = "7E29EDC2-3C1E-4E70-8272-9573F49A38C1";
paths = (
{
closed = 1;
nodes = (
"1168 1518 LINE",
"163 -95 LINE",
"314 -95 LINE",
"1317 1518 LINE"
);
}
);
width = 1414;
},
{
anchors = (
{
name = top;
position = "{712, 1674}";
},
{
name = top0315;
position = "{1364, 1674}";
},
{
name = top_dd;
position = "{1364, 1600}";
}
);
components = (
{
name = O;
}
);
layerId = master01;
paths = (
{
closed = 1;
nodes = (
"1174 1495 LINE",
"177 -75 LINE",
"243 -75 LINE",
"1240 1495 LINE"
);
}
);
width = 1364;
},
{
anchors = (
{
name = top;
position = "{716, 1674}";
},
{
name = top0315;
position = "{1410, 1674}";
},
{
name = top_dd;
position = "{1410, 1600}";
}
);
components = (
{
name = O;
transform = "{1, 0, 0, 1, 10, 0}";
}
);
layerId = "3F40CA7F-E6AC-489E-A736-3B62737B1DDA";
paths = (
{
closed = 1;
nodes = (
"1077 1518 LINE",
"142 -95 LINE",
"343 -95 LINE",
"1278 1518 LINE"
);
}
);
width = 1410;
}
);
leftKerningGroup = C;
unicode = 00D8;
}
{
glyphname = Thorn;
layers = (
{
layerId = "7E29EDC2-3C1E-4E70-8272-9573F49A38C1";
paths = (
{
closed = 1;
nodes = (
"163 0 LINE",
"363 0 LINE",
"363 1456 LINE",
"163 1456 LINE"
);
},
{
closed = 1;
nodes = (
"363 1005 LINE",
"630 1005 LINE SMOOTH",
"838 1005 OFFCURVE",
"922 873 OFFCURVE",
"922 736 CURVE SMOOTH",
"922 603 OFFCURVE",
"838 472 OFFCURVE",
"630 472 CURVE SMOOTH",
"322 472 LINE",
"322 312 LINE",
"630 312 LINE SMOOTH",
"948 312 OFFCURVE",
"1122 493 OFFCURVE",
"1122 738 CURVE SMOOTH",
"1122 984 OFFCURVE",
"948 1165 OFFCURVE",
"630 1165 CURVE SMOOTH",
"265 1165 LINE"
);
}
);
userData = {
com.typemytype.robofont.guides = (
{
angle = 0;
isGlobal = 0;
magnetic = 5;
x = 0;
y = 901;
},
{
angle = 0;
isGlobal = 0;
magnetic = 5;
x = 0;
y = 555;
}
);
};
width = 1209;
},
{
layerId = master01;
paths = (
{
closed = 1;
nodes = (
"200 0 LINE",
"254 0 LINE",
"254 1456 LINE",
"200 1456 LINE"
);
},
{
closed = 1;
nodes = (
"232 1089 LINE",
"625 1089 LINE SMOOTH",
"906 1089 OFFCURVE",
"1021 909 OFFCURVE",
"1021 736 CURVE SMOOTH",
"1021 571 OFFCURVE",
"906 388 OFFCURVE",
"625 388 CURVE SMOOTH",
"213 388 LINE",
"213 334 LINE",
"625 334 LINE SMOOTH",
"916 334 OFFCURVE",
"1075 505 OFFCURVE",
"1075 738 CURVE SMOOTH",
"1075 970 OFFCURVE",
"916 1143 OFFCURVE",
"625 1143 CURVE SMOOTH",
"218 1143 LINE"
);
}
);
userData = {
com.typemytype.robofont.guides = (
{
angle = 0;
isGlobal = 0;
magnetic = 5;
x = 0;
y = 901;
},
{
angle = 0;
isGlobal = 0;
magnetic = 5;
x = 0;
y = 555;
}
);
};
width = 1219;
},
{
layerId = "3F40CA7F-E6AC-489E-A736-3B62737B1DDA";
paths = (
{
closed = 1;
nodes = (
"122 0 LINE",
"445 0 LINE",
"445 1456 LINE",
"122 1456 LINE"
);
},
{
closed = 1;
nodes = (
"445 938 LINE",
"651 938 LINE SMOOTH",
"816 938 OFFCURVE",
"881 842 OFFCURVE",
"881 736 CURVE SMOOTH",
"881 632 OFFCURVE",
"816 538 OFFCURVE",
"651 538 CURVE SMOOTH",
"404 538 LINE",
"404 278 LINE",
"651 278 LINE SMOOTH",
"1009 278 OFFCURVE",
"1204 470 OFFCURVE",
"1204 738 CURVE SMOOTH",
"1204 1007 OFFCURVE",
"1009 1198 OFFCURVE",
"651 1198 CURVE SMOOTH",
"224 1198 LINE"
);
}
);
userData = {
com.typemytype.robofont.guides = (
{
angle = 0;
isGlobal = 0;
magnetic = 5;
x = 0;
y = 901;
},
{
angle = 0;
isGlobal = 0;
magnetic = 5;
x = 0;
y = 555;
}
);
};
width = 1260;
}
);
unicode = 00DE;
}
{
glyphname = acute;
layers = (
{
anchors = (
{
name = _top;
position = "{232, 1290}";
},
{
name = mkmktop_acc;
position = "{232, 1650}";
}
);
layerId = "7E29EDC2-3C1E-4E70-8272-9573F49A38C1";
paths = (
{
closed = 1;
nodes = (
"282 1240 LINE",
"558 1536 LINE",
"317 1536 LINE",
"123 1240 LINE"
);
}
);
userData = {
com.typemytype.robofont.mark = (
0.798,
1,
0.6,
1
);
};
width = 657;
},
{
anchors = (
{
name = _top;
position = "{166, 1293}";
},
{
name = mkmktop_acc;
position = "{166, 1543}";
}
);
layerId = master01;
paths = (
{
closed = 1;
nodes = (
"186 1270 LINE",
"381 1536 LINE",
"315 1536 LINE",
"126 1270 LINE"
);
}
);
userData = {
com.typemytype.robofont.mark = (
0.798,
1,
0.6,
1
);
};
width = 511;
},
{
anchors = (
{
name = _top;
position = "{243, 1290}";
},
{
name = mkmktop_acc;
position = "{243, 1670}";
}
);
layerId = "3F40CA7F-E6AC-489E-A736-3B62737B1DDA";
paths = (
{
closed = 1;
nodes = (
"356 1222 LINE",
"634 1536 LINE",
"291 1536 LINE",
"94 1222 LINE"
);
}
);
userData = {
com.typemytype.robofont.mark = (
0.798,
1,
0.6,
1
);
};
width = 688;
}
);
unicode = 00B4;
}
{
glyphname = ae;
layers = (
{
anchors = (
{
name = top;
position = "{859, 1291}";
},
{
name = top0315;
position = "{1729, 1291}";
},
{
name = top_dd;
position = "{1729, 1600}";
}
);
layerId = "7E29EDC2-3C1E-4E70-8272-9573F49A38C1";
paths = (
{
closed = 1;
nodes = (
"936 218 LINE",
"936 718 LINE",
"936 973 OFFCURVE",
"774 1102 OFFCURVE",
"537 1102 CURVE SMOOTH",
"280 1102 OFFCURVE",
"105 965 OFFCURVE",
"105 778 CURVE",
"304 759 LINE",
"304 857 OFFCURVE",
"396 942 OFFCURVE",
"537 942 CURVE SMOOTH",
"668 942 OFFCURVE",
"742 857 OFFCURVE",
"742 720 CURVE",
"742 183 LINE"
);
},
{
closed = 1;
nodes = (
"527 636 LINE",
"232 636 OFFCURVE",
"77 516 OFFCURVE",
"77 306 CURVE SMOOTH",
"77 108 OFFCURVE",
"203 -21 OFFCURVE",
"432 -21 CURVE SMOOTH",
"688 -21 OFFCURVE",
"836 96 OFFCURVE",
"890 193 CURVE",
"789 349 LINE",
"789 266 OFFCURVE",
"612 139 OFFCURVE",
"472 139 CURVE SMOOTH",
"338 139 OFFCURVE",
"277 212 OFFCURVE",
"277 302 CURVE SMOOTH",
"277 401 OFFCURVE",
"364 489 OFFCURVE",
"529 489 CURVE",
"785 489 LINE",
"785 636 LINE"
);
},
{
closed = 1;
nodes = (
"1479 -21 OFFCURVE",
"1603 68 OFFCURVE",
"1644 100 CURVE",
"1576 244 LINE",
"1510 202 OFFCURVE",
"1422 139 OFFCURVE",
"1262 139 CURVE SMOOTH",
"1037 139 OFFCURVE",
"940 311 OFFCURVE",
"940 522 CURVE SMOOTH",
"940 564 LINE SMOOTH",
"940 773 OFFCURVE",
"1038 942 OFFCURVE",
"1215 942 CURVE",
"1397 942 OFFCURVE",
"1461 817 OFFCURVE",
"1461 672 CURVE",
"1461 641 LINE",
"858 641 LINE",
"858 491 LINE",
"1661 491 LINE",
"1661 612 LINE SMOOTH",
"1661 913 OFFCURVE",
"1506 1102 OFFCURVE",
"1215 1102 CURVE SMOOTH",
"950 1104 OFFCURVE",
"752 880 OFFCURVE",
"752 564 CURVE SMOOTH",
"752 522 LINE SMOOTH",
"752 206 OFFCURVE",
"932 -21 OFFCURVE",
"1262 -21 CURVE"
);
}
);
width = 1729;
},
{
anchors = (
{
name = top;
position = "{859, 1291}";
},
{
name = top0315;
position = "{1735, 1291}";
},
{
name = top_dd;
position = "{1735, 1600}";
}
);
layerId = master01;
paths = (
{
closed = 1;
nodes = (
"868 218 LINE",
"868 718 LINE",
"868 973 OFFCURVE",
"732 1102 OFFCURVE",
"521 1102 CURVE SMOOTH",
"276 1102 OFFCURVE",
"121 965 OFFCURVE",
"121 778 CURVE",
"174 771 LINE",
"174 929 OFFCURVE",
"300 1048 OFFCURVE",
"521 1048 CURVE SMOOTH",
"719 1048 OFFCURVE",
"813 928 OFFCURVE",
"813 720 CURVE",
"813 183 LINE"
);
},
{
closed = 1;
nodes = (
"523 630 LINE",
"241 630 OFFCURVE",
"93 489 OFFCURVE",
"93 284 CURVE SMOOTH",
"93 100 OFFCURVE",
"220 -20 OFFCURVE",
"448 -20 CURVE SMOOTH",
"681 -20 OFFCURVE",
"820 111 OFFCURVE",
"869 218 CURVE",
"814 229 LINE",
"794 158 OFFCURVE",
"640 32 OFFCURVE",
"447 32 CURVE SMOOTH",
"254 32 OFFCURVE",
"148 126 OFFCURVE",
"148 280 CURVE SMOOTH",
"148 438 OFFCURVE",
"266 575 OFFCURVE",
"525 575 CURVE",
"838 575 LINE",
"838 630 LINE"
);
},
{
closed = 1;
nodes = (
"1460 -20 OFFCURVE",
"1559 50 OFFCURVE",
"1630 122 CURVE",
"1600 164 LINE",
"1523 86 OFFCURVE",
"1410 34 OFFCURVE",
"1268 34 CURVE SMOOTH",
"989 34 OFFCURVE",
"870 241 OFFCURVE",
"870 500 CURVE SMOOTH",
"870 564 LINE SMOOTH",
"870 832 OFFCURVE",
"1015 1048 OFFCURVE",
"1253 1048 CURVE",
"1484 1048 OFFCURVE",
"1603 880 OFFCURVE",
"1603 664 CURVE",
"1603 632 LINE",
"850 632 LINE",
"850 577 LINE",
"1657 577 LINE",
"1657 660 LINE SMOOTH",
"1657 934 OFFCURVE",
"1505 1102 OFFCURVE",
"1253 1102 CURVE SMOOTH",
"1003 1102 OFFCURVE",
"815 880 OFFCURVE",
"815 564 CURVE SMOOTH",
"815 500 LINE SMOOTH",
"815 198 OFFCURVE",
"976 -20 OFFCURVE",
"1268 -20 CURVE"
);
}
);
width = 1735;
},
{
anchors = (
{
name = top;
position = "{863, 1291}";
},
{
name = top0315;
position = "{1730, 1291}";
},
{
name = top_dd;
position = "{1730, 1600}";
}
);
layerId = "3F40CA7F-E6AC-489E-A736-3B62737B1DDA";
paths = (
{
closed = 1;
nodes = (
"1032 218 LINE",
"1032 699 LINE",
"1032 967 OFFCURVE",
"856 1102 OFFCURVE",
"583 1102 CURVE SMOOTH",
"289 1102 OFFCURVE",
"100 958 OFFCURVE",
"100 759 CURVE",
"422 740 LINE",
"422 797 OFFCURVE",
"478 842 OFFCURVE",
"579 842 CURVE SMOOTH",
"670 842 OFFCURVE",
"720 789 OFFCURVE",
"720 701 CURVE",
"720 183 LINE"
);
},
{
closed = 1;
nodes = (
"575 655 LINE {name = hr01;}",
"239 655 OFFCURVE",
"63 535 OFFCURVE",
"63 324 CURVE SMOOTH",
"63 115 OFFCURVE",
"210 -20 OFFCURVE",
"479 -20 CURVE SMOOTH",
"723 -20 OFFCURVE",
"864 96 OFFCURVE",
"915 193 CURVE",
"768 349 LINE",
"768 290 OFFCURVE",
"643 212 OFFCURVE",
"540 212 CURVE SMOOTH {name = hr02;}",
"434 212 OFFCURVE",
"385 253 OFFCURVE",
"385 320 CURVE SMOOTH",
"385 388 OFFCURVE",
"451 451 OFFCURVE",
"577 451 CURVE",
"766 451 LINE",
"764 655 LINE"
);
},
{
closed = 1;
nodes = (
"1416 -20 OFFCURVE",
"1572 38 OFFCURVE",
"1650 101 CURVE",
"1570 307 LINE",
"1489 269 OFFCURVE",
"1415 240 OFFCURVE",
"1282 240 CURVE SMOOTH",
"1103 240 OFFCURVE",
"1032 344 OFFCURVE",
"1032 485 CURVE SMOOTH",
"1032 564 LINE SMOOTH",
"1032 725 OFFCURVE",
"1077 842 OFFCURVE",
"1226 842 CURVE",
"1320 842 OFFCURVE",
"1368 779 OFFCURVE",
"1368 672 CURVE",
"1368 646 LINE",
"846 646 LINE",
"846 435 LINE",
"1683 435 LINE",
"1683 612 LINE SMOOTH",
"1683 913 OFFCURVE",
"1509 1102 OFFCURVE",
"1226 1102 CURVE SMOOTH",
"891 1104 OFFCURVE",
"720 880 OFFCURVE",
"720 564 CURVE SMOOTH",
"720 485 LINE SMOOTH",
"720 191 OFFCURVE",
"905 -20 OFFCURVE",
"1241 -20 CURVE"
);
}
);
userData = {
com.typemytype.robofont.guides = (
{
angle = 0;
isGlobal = 0;
magnetic = 5;
x = 0;
y = 834;
}
);
com.typemytype.robofont.mark = (
1,
0.6,
0.6,
1
);
};
width = 1730;
}
);
unicode = 00E6;
}
{
glyphname = brokenbar;
layers = (
{
layerId = "7E29EDC2-3C1E-4E70-8272-9573F49A38C1";
paths = (
{
closed = 1;
nodes = (
"345 525 LINE",
"145 525 LINE",
"145 -270 LINE",
"345 -270 LINE"
);
},
{
closed = 1;
nodes = (
"145 1456 LINE",
"145 698 LINE",
"345 698 LINE",
"345 1456 LINE"
);
}
);
userData = {
com.typemytype.robofont.guides = (
{
angle = 0;
isGlobal = 0;
magnetic = 5;
x = 0;
y = 901;
},
{
angle = 0;
isGlobal = 0;
magnetic = 5;
x = 0;
y = 555;
}
);
};
width = 502;
},
{
layerId = master01;
paths = (
{
closed = 1;
nodes = (
"226 482 LINE",
"172 482 LINE",
"172 -270 LINE",
"226 -270 LINE"
);
},
{
closed = 1;
nodes = (
"172 1456 LINE",
"172 698 LINE",
"226 698 LINE",
"226 1456 LINE"
);
}
);
userData = {
com.typemytype.robofont.guides = (
{
angle = 0;
isGlobal = 0;
magnetic = 5;
x = 0;
y = 901;
},
{
angle = 0;
isGlobal = 0;
magnetic = 5;
x = 0;
y = 555;
}
);
};
width = 398;
},
{
layerId = "3F40CA7F-E6AC-489E-A736-3B62737B1DDA";
paths = (
{
closed = 1;
nodes = (
"404 525 LINE",
"122 525 LINE",
"122 -270 LINE",
"404 -270 LINE"
);
},
{
closed = 1;
nodes = (
"122 1456 LINE",
"122 698 LINE",
"404 698 LINE",
"404 1456 LINE"
);
}
);
userData = {
com.typemytype.robofont.guides = (
{
angle = 0;
isGlobal = 0;
magnetic = 5;
x = 0;
y = 901;
},
{
angle = 0;
isGlobal = 0;
magnetic = 5;
x = 0;
y = 555;
}
);
};
width = 522;
}
);
unicode = 00A6;
}
{
glyphname = cedilla;
layers = (
{
anchors = (
{
name = _bottom;
position = "{217, 0}";
},
{
name = mkmkbottom_acc;
position = "{217, -440}";
}
);
layerId = "7E29EDC2-3C1E-4E70-8272-9573F49A38C1";
paths = (
{
closed = 1;
nodes = (
"120 -136 LINE",
"231 -145 OFFCURVE",
"278 -163 OFFCURVE",
"278 -228 CURVE SMOOTH",
"278 -296 OFFCURVE",
"210 -323 OFFCURVE",
"120 -323 CURVE",
"127 -435 LINE",
"328 -435 OFFCURVE",
"432 -350 OFFCURVE",
"432 -224 CURVE SMOOTH",
"432 -109 OFFCURVE",
"357 -64 OFFCURVE",
"282 -51 CURVE",
"294 0 LINE",
"152 0 LINE"
);
}
);
width = 510;
},
{
anchors = (
{
name = _bottom;
position = "{179, 0}";
},
{
name = mkmkbottom_acc;
position = "{179, -435}";
}
);
layerId = master01;
paths = (
{
closed = 1;
nodes = (
"129 -121 LINE",
"253 -134 OFFCURVE",
"318 -157 OFFCURVE",
"318 -245 CURVE SMOOTH",
"318 -344 OFFCURVE",
"188 -386 OFFCURVE",
"81 -386 CURVE",
"88 -435 LINE",
"264 -435 OFFCURVE",
"373 -359 OFFCURVE",
"373 -245 CURVE SMOOTH",
"373 -124 OFFCURVE",
"285 -85 OFFCURVE",
"196 -76 CURVE",
"207 0 LINE",
"154 0 LINE"
);
}
);
width = 490;
},
{
anchors = (
{
name = _bottom;
position = "{240, 0}";
},
{
name = mkmkbottom_acc;
position = "{240, -472}";
}
);
layerId = "3F40CA7F-E6AC-489E-A736-3B62737B1DDA";
paths = (
{
closed = 1;
nodes = (
"90 -136 LINE",
"187 -142 OFFCURVE",
"227 -158 OFFCURVE",
"227 -209 CURVE SMOOTH",
"227 -264 OFFCURVE",
"187 -286 OFFCURVE",
"131 -286 CURVE",
"138 -472 LINE",
"378 -472 OFFCURVE",
"504 -373 OFFCURVE",
"504 -224 CURVE SMOOTH",
"504 -109 OFFCURVE",
"428 -64 OFFCURVE",
"354 -51 CURVE",
"365 10 LINE",
"121 10 LINE"
);
}
);
width = 563;
}
);
unicode = 00B8;
}
{
glyphname = cent;
layers = (
{
components = (
{
name = c;
transform = "{1, 0, 0, 1, 10, 0}";
}
);
layerId = "7E29EDC2-3C1E-4E70-8272-9573F49A38C1";
paths = (
{
closed = 1;
nodes = (
"477 1318 LINE",
"477 1026 LINE",
"677 1026 LINE",
"677 1318 LINE"
);
},
{
closed = 1;
nodes = (
"477 46 LINE",
"477 -245 LINE",
"677 -245 LINE",
"677 46 LINE"
);
}
);
width = 1122;
},
{
components = (
{
name = c;
transform = "{1, 0, 0, 1, 37, 0}";
}
);
layerId = master01;
paths = (
{
closed = 1;
nodes = (
"549 1318 LINE",
"549 1070 LINE",
"604 1070 LINE",
"604 1318 LINE"
);
},
{
closed = 1;
nodes = (
"549 2 LINE",
"549 -245 LINE",
"604 -245 LINE",
"604 2 LINE"
);
}
);
width = 1110;
},
{
components = (
{
name = c;
transform = "{1, 0, 0, 1, 42, 0}";
}
);
layerId = "3F40CA7F-E6AC-489E-A736-3B62737B1DDA";
paths = (
{
closed = 1;
nodes = (
"507 1318 LINE",
"507 1026 LINE",
"707 1026 LINE",
"707 1318 LINE"
);
},
{
closed = 1;
nodes = (
"507 46 LINE",
"507 -245 LINE",
"707 -245 LINE",
"707 46 LINE"
);
}
);
userData = {
com.typemytype.robofont.mark = (
1,
0.6,
0.6,
1
);
};
width = 1200;
}
);
unicode = 00A2;
}
{
glyphname = copyright;
layers = (
{
layerId = "7E29EDC2-3C1E-4E70-8272-9573F49A38C1";
paths = (
{
closed = 1;
nodes = (
"963 466 OFFCURVE",
"902 417 OFFCURVE",
"784 417 CURVE SMOOTH",
"656 417 OFFCURVE",
"589 520 OFFCURVE",
"589 669 CURVE SMOOTH",
"589 789 LINE SMOOTH",
"589 936 OFFCURVE",
"656 1040 OFFCURVE",
"784 1040 CURVE SMOOTH",
"902 1040 OFFCURVE",
"964 990 OFFCURVE",
"964 862 CURVE",
"1120 862 LINE",
"1120 1071 OFFCURVE",
"990 1175 OFFCURVE",
"784 1175 CURVE SMOOTH",
"569 1175 OFFCURVE",
"435 1017 OFFCURVE",
"435 788 CURVE",
"435 669 LINE",
"435 439 OFFCURVE",
"569 282 OFFCURVE",
"784 282 CURVE SMOOTH",
"990 282 OFFCURVE",
"1119 386 OFFCURVE",
"1119 596 CURVE",
"963 596 LINE"
);
},
{
closed = 1;
nodes = (
"210 1082 OFFCURVE",
"473 1351 OFFCURVE",
"798 1351 CURVE SMOOTH",
"1122 1351 OFFCURVE",
"1385 1082 OFFCURVE",
"1385 729 CURVE SMOOTH",
"1385 376 OFFCURVE",
"1122 104 OFFCURVE",
"798 104 CURVE SMOOTH",
"473 104 OFFCURVE",
"210 376 OFFCURVE",
"210 729 CURVE"
);
},
{
closed = 1;
nodes = (
"88 306 OFFCURVE",
"406 -21 OFFCURVE",
"798 -21 CURVE SMOOTH",
"1189 -21 OFFCURVE",
"1507 306 OFFCURVE",
"1507 729 CURVE SMOOTH",
"1507 1152 OFFCURVE",
"1189 1476 OFFCURVE",
"798 1476 CURVE SMOOTH",
"406 1476 OFFCURVE",
"88 1152 OFFCURVE",
"88 729 CURVE"
);
}
);
userData = {
com.typemytype.robofont.guides = (
{
angle = 0;
isGlobal = 0;
magnetic = 5;
x = 0;
y = 901;
},
{
angle = 0;
isGlobal = 0;
magnetic = 5;
x = 0;
y = 555;
}
);
};
width = 1603;
},
{
layerId = master01;
paths = (
{
closed = 1;
nodes = (
"1072 437 OFFCURVE",
"984 357 OFFCURVE",
"826 357 CURVE SMOOTH",
"657 357 OFFCURVE",
"561 502 OFFCURVE",
"561 689 CURVE SMOOTH",
"561 769 LINE SMOOTH",
"561 954 OFFCURVE",
"657 1102 OFFCURVE",
"826 1102 CURVE SMOOTH",
"984 1102 OFFCURVE",
"1073 1016 OFFCURVE",
"1073 842 CURVE",
"1125 842 LINE",
"1125 1051 OFFCURVE",
"1007 1155 OFFCURVE",
"826 1155 CURVE SMOOTH",
"635 1155 OFFCURVE",
"506 997 OFFCURVE",
"506 768 CURVE",
"506 689 LINE",
"506 459 OFFCURVE",
"635 302 OFFCURVE",
"826 302 CURVE SMOOTH",
"1007 302 OFFCURVE",
"1124 406 OFFCURVE",
"1124 616 CURVE",
"1072 616 LINE"
);
},
{
closed = 1;
nodes = (
"179 1117 OFFCURVE",
"474 1421 OFFCURVE",
"833 1421 CURVE SMOOTH",
"1191 1421 OFFCURVE",
"1487 1117 OFFCURVE",
"1487 729 CURVE SMOOTH",
"1487 341 OFFCURVE",
"1191 34 OFFCURVE",
"833 34 CURVE SMOOTH",
"474 34 OFFCURVE",
"179 341 OFFCURVE",
"179 729 CURVE"
);
},
{
closed = 1;
nodes = (
"123 306 OFFCURVE",
"442 -21 OFFCURVE",
"833 -21 CURVE SMOOTH",
"1225 -21 OFFCURVE",
"1543 306 OFFCURVE",
"1543 729 CURVE SMOOTH",
"1543 1152 OFFCURVE",
"1225 1476 OFFCURVE",
"833 1476 CURVE SMOOTH",
"442 1476 OFFCURVE",
"123 1152 OFFCURVE",
"123 729 CURVE"
);
}
);
userData = {
com.typemytype.robofont.guides = (
{
angle = 0;
isGlobal = 0;
magnetic = 5;
x = 0;
y = 901;
},
{
angle = 0;
isGlobal = 0;
magnetic = 5;
x = 0;
y = 555;
}
);
};
width = 1666;
},
{
layerId = "3F40CA7F-E6AC-489E-A736-3B62737B1DDA";
paths = (
{
closed = 1;
nodes = (
"961 466 OFFCURVE",
"900 417 OFFCURVE",
"782 417 CURVE SMOOTH",
"654 417 OFFCURVE",
"588 520 OFFCURVE",
"588 669 CURVE SMOOTH",
"588 789 LINE SMOOTH",
"588 936 OFFCURVE",
"654 1040 OFFCURVE",
"782 1040 CURVE SMOOTH",
"900 1040 OFFCURVE",
"962 989 OFFCURVE",
"962 861 CURVE",
"1118 861 LINE",
"1118 1070 OFFCURVE",
"988 1175 OFFCURVE",
"782 1175 CURVE SMOOTH",
"567 1175 OFFCURVE",
"433 1017 OFFCURVE",
"433 788 CURVE",
"433 669 LINE",
"433 439 OFFCURVE",
"567 282 OFFCURVE",
"782 282 CURVE SMOOTH",
"988 282 OFFCURVE",
"1117 386 OFFCURVE",
"1117 596 CURVE",
"961 596 LINE"
);
},
{
closed = 1;
nodes = (
"208 1082 OFFCURVE",
"471 1351 OFFCURVE",
"796 1351 CURVE SMOOTH",
"1120 1351 OFFCURVE",
"1383 1082 OFFCURVE",
"1383 729 CURVE SMOOTH",
"1383 376 OFFCURVE",
"1120 105 OFFCURVE",
"796 105 CURVE SMOOTH",
"471 105 OFFCURVE",
"208 376 OFFCURVE",
"208 729 CURVE"
);
},
{
closed = 1;
nodes = (
"86 306 OFFCURVE",
"404 -20 OFFCURVE",
"796 -20 CURVE SMOOTH",
"1187 -20 OFFCURVE",
"1506 306 OFFCURVE",
"1506 729 CURVE SMOOTH",
"1506 1152 OFFCURVE",
"1187 1476 OFFCURVE",
"796 1476 CURVE SMOOTH",
"404 1476 OFFCURVE",
"86 1152 OFFCURVE",
"86 729 CURVE"
);
}
);
userData = {
com.typemytype.robofont.guides = (
{
angle = 0;
isGlobal = 0;
magnetic = 5;
x = 0;
y = 901;
},
{
angle = 0;
isGlobal = 0;
magnetic = 5;
x = 0;
y = 555;
}
);
};
width = 1608;
}
);
unicode = 00A9;
}
{
glyphname = currency;
layers = (
{
layerId = "7E29EDC2-3C1E-4E70-8272-9573F49A38C1";
paths = (
{
closed = 1;
nodes = (
"324 854 OFFCURVE",
"507 1052 OFFCURVE",
"734 1052 CURVE SMOOTH",
"961 1052 OFFCURVE",
"1143 854 OFFCURVE",
"1143 608 CURVE SMOOTH",
"1143 362 OFFCURVE",
"961 162 OFFCURVE",
"734 162 CURVE SMOOTH",
"507 162 OFFCURVE",
"324 362 OFFCURVE",
"324 608 CURVE"
);
},
{
closed = 1;
nodes = (
"139 254 OFFCURVE",
"406 -20 OFFCURVE",
"734 -20 CURVE SMOOTH",
"1063 -20 OFFCURVE",
"1329 254 OFFCURVE",
"1329 608 CURVE SMOOTH",
"1329 963 OFFCURVE",
"1063 1234 OFFCURVE",
"734 1234 CURVE SMOOTH",
"406 1234 OFFCURVE",
"139 963 OFFCURVE",
"139 608 CURVE"
);
},
{
closed = 1;
nodes = (
"1228 1265 LINE",
"1026 1059 LINE",
"1168 914 LINE",
"1370 1120 LINE"
);
},
{
closed = 1;
nodes = (
"306 323 LINE",
"104 118 LINE",
"245 -26 LINE",
"447 180 LINE"
);
},
{
closed = 1;
nodes = (
"1370 118 LINE",
"1168 323 LINE",
"1026 179 LINE",
"1228 -27 LINE"
);
},
{
closed = 1;
nodes = (
"447 1058 LINE",
"245 1264 LINE",
"104 1120 LINE",
"306 914 LINE"
);
}
);
userData = {
com.typemytype.robofont.guides = (
{
angle = 0;
isGlobal = 0;
magnetic = 5;
x = 0;
y = 901;
},
{
angle = 0;
isGlobal = 0;
magnetic = 5;
x = 0;
y = 555;
}
);
};
width = 1456;
},
{
layerId = master01;
paths = (
{
closed = 1;
nodes = (
"204 925 OFFCURVE",
"449 1181 OFFCURVE",
"745 1181 CURVE SMOOTH",
"1040 1181 OFFCURVE",
"1285 925 OFFCURVE",
"1285 608 CURVE SMOOTH",
"1285 290 OFFCURVE",
"1040 33 OFFCURVE",
"745 33 CURVE SMOOTH",
"449 33 OFFCURVE",
"204 290 OFFCURVE",
"204 608 CURVE"
);
},
{
closed = 1;
nodes = (
"149 254 OFFCURVE",
"416 -20 OFFCURVE",
"745 -20 CURVE SMOOTH",
"1073 -20 OFFCURVE",
"1339 254 OFFCURVE",
"1339 608 CURVE SMOOTH",
"1339 963 OFFCURVE",
"1073 1234 OFFCURVE",
"745 1234 CURVE SMOOTH",
"416 1234 OFFCURVE",
"149 963 OFFCURVE",
"149 608 CURVE"
);
},
{
closed = 1;
nodes = (
"1339 1265 LINE",
"1137 1059 LINE",
"1178 1019 LINE",
"1380 1225 LINE"
);
},
{
closed = 1;
nodes = (
"316 219 LINE",
"114 13 LINE",
"154 -26 LINE",
"356 180 LINE"
);
},
{
closed = 1;
nodes = (
"1380 13 LINE",
"1178 219 LINE",
"1137 179 LINE",
"1339 -27 LINE"
);
},
{
closed = 1;
nodes = (
"356 1058 LINE",
"154 1264 LINE",
"114 1225 LINE",
"316 1019 LINE"
);
}
);
userData = {
com.typemytype.robofont.guides = (
{
angle = 0;
isGlobal = 0;
magnetic = 5;
x = 0;
y = 901;
},
{
angle = 0;
isGlobal = 0;
magnetic = 5;
x = 0;
y = 555;
}
);
};
width = 1502;
},
{
layerId = "3F40CA7F-E6AC-489E-A736-3B62737B1DDA";
paths = (
{
closed = 1;
nodes = (
"294 854 OFFCURVE",
"476 1042 OFFCURVE",
"704 1042 CURVE SMOOTH",
"930 1042 OFFCURVE",
"1113 854 OFFCURVE",
"1113 608 CURVE SMOOTH",
"1113 362 OFFCURVE",
"930 173 OFFCURVE",
"704 173 CURVE SMOOTH",
"476 173 OFFCURVE",
"294 362 OFFCURVE",
"294 608 CURVE"
);
},
{
closed = 1;
nodes = (
"108 254 OFFCURVE",
"375 -20 OFFCURVE",
"704 -20 CURVE SMOOTH",
"1032 -20 OFFCURVE",
"1298 254 OFFCURVE",
"1298 608 CURVE SMOOTH",
"1298 963 OFFCURVE",
"1032 1234 OFFCURVE",
"704 1234 CURVE SMOOTH",
"375 1234 OFFCURVE",
"108 963 OFFCURVE",
"108 608 CURVE"
);
},
{
closed = 1;
nodes = (
"1197 1265 LINE",
"996 1059 LINE",
"1137 914 LINE",
"1339 1120 LINE"
);
},
{
closed = 1;
nodes = (
"275 323 LINE",
"73 118 LINE",
"214 -26 LINE",
"416 180 LINE"
);
},
{
closed = 1;
nodes = (
"1339 118 LINE",
"1137 323 LINE",
"996 179 LINE",
"1197 -27 LINE"
);
},
{
closed = 1;
nodes = (
"416 1058 LINE",
"214 1264 LINE",
"73 1120 LINE",
"275 914 LINE"
);
}
);
userData = {
com.typemytype.robofont.guides = (
{
angle = 0;
isGlobal = 0;
magnetic = 5;
x = 0;
y = 901;
},
{
angle = 0;
isGlobal = 0;
magnetic = 5;
x = 0;
y = 555;
}
);
};
width = 1404;
}
);
unicode = 00A4;
}
{
glyphname = degree;
layers = (
{
layerId = "7E29EDC2-3C1E-4E70-8272-9573F49A38C1";
paths = (
{
closed = 1;
nodes = (
"128 1071 OFFCURVE",
"245 957 OFFCURVE",
"385 957 CURVE SMOOTH",
"524 957 OFFCURVE",
"638 1071 OFFCURVE",
"638 1215 CURVE SMOOTH",
"638 1358 OFFCURVE",
"524 1477 OFFCURVE",
"385 1477 CURVE SMOOTH",
"245 1477 OFFCURVE",
"128 1358 OFFCURVE",
"128 1215 CURVE"
);
},
{
closed = 1;
nodes = (
"260 1288 OFFCURVE",
"317 1343 OFFCURVE",
"385 1343 CURVE SMOOTH",
"454 1343 OFFCURVE",
"507 1288 OFFCURVE",
"507 1215 CURVE SMOOTH",
"507 1144 OFFCURVE",
"454 1091 OFFCURVE",
"385 1091 CURVE SMOOTH",
"317 1091 OFFCURVE",
"260 1144 OFFCURVE",
"260 1215 CURVE"
);
}
);
width = 763;
},
{
layerId = master01;
paths = (
{
closed = 1;
nodes = (
"156 1103 OFFCURVE",
"262 999 OFFCURVE",
"392 999 CURVE SMOOTH",
"519 999 OFFCURVE",
"624 1103 OFFCURVE",
"624 1236 CURVE SMOOTH",
"624 1367 OFFCURVE",
"519 1476 OFFCURVE",
"392 1476 CURVE SMOOTH",
"262 1476 OFFCURVE",
"156 1367 OFFCURVE",
"156 1236 CURVE"
);
},
{
closed = 1;
nodes = (
"211 1343 OFFCURVE",
"289 1421 OFFCURVE",
"392 1421 CURVE SMOOTH",
"494 1421 OFFCURVE",
"568 1343 OFFCURVE",
"568 1236 CURVE SMOOTH",
"568 1131 OFFCURVE",
"494 1055 OFFCURVE",
"392 1055 CURVE SMOOTH",
"289 1055 OFFCURVE",
"211 1131 OFFCURVE",
"211 1236 CURVE"
);
}
);
width = 783;
},
{
layerId = "3F40CA7F-E6AC-489E-A736-3B62737B1DDA";
paths = (
{
closed = 1;
nodes = (
"126 1041 OFFCURVE",
"252 918 OFFCURVE",
"404 918 CURVE SMOOTH",
"554 918 OFFCURVE",
"677 1041 OFFCURVE",
"677 1195 CURVE SMOOTH",
"677 1349 OFFCURVE",
"554 1476 OFFCURVE",
"404 1476 CURVE SMOOTH",
"252 1476 OFFCURVE",
"126 1349 OFFCURVE",
"126 1195 CURVE"
);
},
{
closed = 1;
nodes = (
"278 1268 OFFCURVE",
"336 1323 OFFCURVE",
"404 1323 CURVE SMOOTH",
"472 1323 OFFCURVE",
"525 1268 OFFCURVE",
"525 1195 CURVE SMOOTH",
"525 1123 OFFCURVE",
"472 1071 OFFCURVE",
"404 1071 CURVE SMOOTH",
"336 1071 OFFCURVE",
"278 1124 OFFCURVE",
"278 1195 CURVE"
);
}
);
width = 808;
}
);
unicode = 00B0;
}
{
glyphname = dieresis;
layers = (
{
anchors = (
{
name = _top;
position = "{420, 1290}";
},
{
name = mkmktop_acc;
position = "{420, 1580}";
}
);
layerId = "7E29EDC2-3C1E-4E70-8272-9573F49A38C1";
paths = (
{
closed = 1;
nodes = (
"93 1306 OFFCURVE",
"132 1258 OFFCURVE",
"208 1258 CURVE SMOOTH",
"284 1258 OFFCURVE",
"324 1306 OFFCURVE",
"324 1367 CURVE SMOOTH",
"324 1429 OFFCURVE",
"284 1478 OFFCURVE",
"208 1478 CURVE SMOOTH",
"132 1478 OFFCURVE",
"93 1429 OFFCURVE",
"93 1367 CURVE SMOOTH"
);
},
{
closed = 1;
nodes = (
"522 1304 OFFCURVE",
"561 1256 OFFCURVE",
"637 1256 CURVE SMOOTH",
"713 1256 OFFCURVE",
"753 1304 OFFCURVE",
"753 1365 CURVE SMOOTH",
"753 1427 OFFCURVE",
"713 1476 OFFCURVE",
"637 1476 CURVE SMOOTH",
"561 1476 OFFCURVE",
"522 1427 OFFCURVE",
"522 1365 CURVE SMOOTH"
);
}
);
userData = {
com.typemytype.robofont.mark = (
0.798,
1,
0.6,
1
);
};
width = 851;
},
{
anchors = (
{
name = _top;
position = "{450, 1293}";
},
{
name = mkmktop_acc;
position = "{451, 1540}";
}
);
layerId = master01;
paths = (
{
closed = 1;
nodes = (
"174 1390 OFFCURVE",
"198 1366 OFFCURVE",
"229 1366 CURVE SMOOTH",
"260 1366 OFFCURVE",
"285 1390 OFFCURVE",
"285 1421 CURVE SMOOTH",
"285 1452 OFFCURVE",
"260 1477 OFFCURVE",
"229 1477 CURVE SMOOTH",
"198 1477 OFFCURVE",
"174 1452 OFFCURVE",
"174 1421 CURVE SMOOTH"
);
},
{
closed = 1;
nodes = (
"619 1390 OFFCURVE",
"643 1366 OFFCURVE",
"674 1366 CURVE SMOOTH",
"705 1366 OFFCURVE",
"730 1390 OFFCURVE",
"730 1421 CURVE SMOOTH",
"730 1452 OFFCURVE",
"705 1477 OFFCURVE",
"674 1477 CURVE SMOOTH",
"643 1477 OFFCURVE",
"619 1452 OFFCURVE",
"619 1421 CURVE SMOOTH"
);
}
);
userData = {
com.typemytype.robofont.mark = (
0.798,
1,
0.6,
1
);
};
width = 906;
},
{
anchors = (
{
name = _top;
position = "{498, 1290}";
},
{
name = mkmktop_acc;
position = "{498, 1610}";
}
);
layerId = "3F40CA7F-E6AC-489E-A736-3B62737B1DDA";
paths = (
{
closed = 1;
nodes = (
"95 1290 OFFCURVE",
"160 1232 OFFCURVE",
"242 1232 CURVE SMOOTH",
"324 1232 OFFCURVE",
"389 1290 OFFCURVE",
"389 1365 CURVE SMOOTH",
"389 1440 OFFCURVE",
"324 1498 OFFCURVE",
"242 1498 CURVE SMOOTH",
"160 1498 OFFCURVE",
"95 1440 OFFCURVE",
"95 1365 CURVE SMOOTH"
);
},
{
closed = 1;
nodes = (
"604 1290 OFFCURVE",
"669 1232 OFFCURVE",
"751 1232 CURVE SMOOTH",
"833 1232 OFFCURVE",
"898 1290 OFFCURVE",
"898 1365 CURVE SMOOTH",
"898 1440 OFFCURVE",
"833 1498 OFFCURVE",
"751 1498 CURVE SMOOTH",
"669 1498 OFFCURVE",
"604 1440 OFFCURVE",
"604 1365 CURVE SMOOTH"
);
}
);
userData = {
com.typemytype.robofont.mark = (
0.798,
1,
0.6,
1
);
};
width = 995;
}
);
unicode = 00A8;
}
{
glyphname = divide;
layers = (
{
layerId = "7E29EDC2-3C1E-4E70-8272-9573F49A38C1";
paths = (
{
closed = 1;
nodes = (
"71 788 LINE",
"71 593 LINE",
"1069 593 LINE",
"1069 788 LINE"
);
},
{
closed = 1;
nodes = (
"454 1036 OFFCURVE",
"495 986 OFFCURVE",
"575 986 CURVE SMOOTH",
"655 986 OFFCURVE",
"697 1036 OFFCURVE",
"697 1100 CURVE SMOOTH",
"697 1166 OFFCURVE",
"655 1217 OFFCURVE",
"575 1217 CURVE SMOOTH",
"495 1217 OFFCURVE",
"454 1166 OFFCURVE",
"454 1100 CURVE SMOOTH"
);
},
{
closed = 1;
nodes = (
"454 216 OFFCURVE",
"495 166 OFFCURVE",
"575 166 CURVE SMOOTH",
"655 166 OFFCURVE",
"697 216 OFFCURVE",
"697 280 CURVE SMOOTH",
"697 346 OFFCURVE",
"655 397 OFFCURVE",
"575 397 CURVE SMOOTH",
"495 397 OFFCURVE",
"454 346 OFFCURVE",
"454 280 CURVE SMOOTH"
);
}
);
width = 1171;
},
{
layerId = master01;
paths = (
{
closed = 1;
nodes = (
"73 738 LINE",
"73 686 LINE",
"1071 686 LINE",
"1071 738 LINE"
);
},
{
closed = 1;
nodes = (
"529 1048 OFFCURVE",
"553 1024 OFFCURVE",
"584 1024 CURVE SMOOTH",
"615 1024 OFFCURVE",
"640 1048 OFFCURVE",
"640 1079 CURVE SMOOTH",
"640 1110 OFFCURVE",
"615 1135 OFFCURVE",
"584 1135 CURVE SMOOTH",
"553 1135 OFFCURVE",
"529 1110 OFFCURVE",
"529 1079 CURVE SMOOTH"
);
},
{
closed = 1;
nodes = (
"529 270 OFFCURVE",
"553 246 OFFCURVE",
"584 246 CURVE SMOOTH",
"615 246 OFFCURVE",
"640 270 OFFCURVE",
"640 301 CURVE SMOOTH",
"640 332 OFFCURVE",
"615 357 OFFCURVE",
"584 357 CURVE SMOOTH",
"553 357 OFFCURVE",
"529 332 OFFCURVE",
"529 301 CURVE SMOOTH"
);
}
);
width = 1159;
},
{
layerId = "3F40CA7F-E6AC-489E-A736-3B62737B1DDA";
paths = (
{
closed = 1;
nodes = (
"61 807 LINE",
"61 563 LINE",
"1100 563 LINE",
"1100 807 LINE"
);
},
{
closed = 1;
nodes = (
"401 990 OFFCURVE",
"473 922 OFFCURVE",
"580 922 CURVE SMOOTH",
"687 922 OFFCURVE",
"759 990 OFFCURVE",
"759 1086 CURVE SMOOTH",
"759 1182 OFFCURVE",
"687 1250 OFFCURVE",
"580 1250 CURVE SMOOTH",
"473 1250 OFFCURVE",
"401 1182 OFFCURVE",
"401 1086 CURVE SMOOTH"
);
},
{
closed = 1;
nodes = (
"401 181 OFFCURVE",
"473 113 OFFCURVE",
"580 113 CURVE SMOOTH",
"687 113 OFFCURVE",
"759 181 OFFCURVE",
"759 277 CURVE SMOOTH",
"759 373 OFFCURVE",
"687 441 OFFCURVE",
"580 441 CURVE SMOOTH",
"473 441 OFFCURVE",
"401 373 OFFCURVE",
"401 277 CURVE SMOOTH"
);
}
);
width = 1167;
}
);
unicode = 00F7;
}
{
glyphname = eth;
layers = (
{
layerId = "7E29EDC2-3C1E-4E70-8272-9573F49A38C1";
paths = (
{
closed = 1;
nodes = (
"584 1327 OFFCURVE",
"873 1097 OFFCURVE",
"873 637 CURVE SMOOTH",
"873 535 LINE SMOOTH",
"873 310 OFFCURVE",
"770 140 OFFCURVE",
"603 140 CURVE SMOOTH",
"422 140 OFFCURVE",
"321 308 OFFCURVE",
"321 468 CURVE",
"321 686 OFFCURVE",
"432 820 OFFCURVE",
"620 820 CURVE",
"802 820 OFFCURVE",
"893 703 OFFCURVE",
"893 618 CURVE",
"967 616 LINE",
"967 792 OFFCURVE",
"797 980 OFFCURVE",
"571 980 CURVE",
"314 980 OFFCURVE",
"121 776 OFFCURVE",
"121 468 CURVE",
"121 196 OFFCURVE",
"317 -20 OFFCURVE",
"599 -20 CURVE SMOOTH",
"873 -20 OFFCURVE",
"1073 206 OFFCURVE",
"1073 535 CURVE",
"1073 635 LINE",
"1073 1137 OFFCURVE",
"757 1486 OFFCURVE",
"307 1581 CURVE",
"246 1412 LINE"
);
},
{
closed = 1;
nodes = (
"910 1521 LINE",
"366 1147 LINE",
"444 1043 LINE",
"988 1417 LINE"
);
}
);
width = 1203;
},
{
layerId = master01;
paths = (
{
closed = 1;
nodes = (
"705 1390 OFFCURVE",
"987 1167 OFFCURVE",
"987 617 CURVE SMOOTH",
"987 535 LINE SMOOTH",
"987 246 OFFCURVE",
"850 38 OFFCURVE",
"633 38 CURVE SMOOTH",
"372 38 OFFCURVE",
"228 251 OFFCURVE",
"228 465 CURVE",
"228 705 OFFCURVE",
"339 895 OFFCURVE",
"601 895 CURVE",
"882 895 OFFCURVE",
"1008 699 OFFCURVE",
"1008 574 CURVE",
"1039 583 LINE",
"1039 819 OFFCURVE",
"824 953 OFFCURVE",
"601 953 CURVE",
"333 953 OFFCURVE",
"173 775 OFFCURVE",
"173 465 CURVE",
"173 194 OFFCURVE",
"361 -20 OFFCURVE",
"629 -20 CURVE SMOOTH",
"869 -20 OFFCURVE",
"1041 206 OFFCURVE",
"1041 535 CURVE",
"1041 615 LINE",
"1041 1128 OFFCURVE",
"816 1409 OFFCURVE",
"358 1577 CURVE",
"338 1527 LINE"
);
},
{
closed = 1;
nodes = (
"962 1461 LINE",
"489 1197 LINE",
"517 1149 LINE",
"991 1413 LINE"
);
}
);
width = 1183;
},
{
layerId = "3F40CA7F-E6AC-489E-A736-3B62737B1DDA";
paths = (
{
closed = 1;
nodes = (
"517 1260 OFFCURVE",
"795 1061 OFFCURVE",
"795 658 CURVE SMOOTH",
"795 553 LINE SMOOTH",
"795 374 OFFCURVE",
"727 240 OFFCURVE",
"587 240 CURVE SMOOTH",
"465 240 OFFCURVE",
"393 336 OFFCURVE",
"393 468 CURVE",
"393 624 OFFCURVE",
"458 720 OFFCURVE",
"595 720 CURVE",
"753 720 OFFCURVE",
"828 641 OFFCURVE",
"828 580 CURVE",
"942 578 LINE",
"922 806 OFFCURVE",
"750 961 OFFCURVE",
"524 961 CURVE",
"230 961 OFFCURVE",
"71 764 OFFCURVE",
"71 468 CURVE",
"71 196 OFFCURVE",
"276 -20 OFFCURVE",
"583 -20 CURVE SMOOTH",
"891 -20 OFFCURVE",
"1118 229 OFFCURVE",
"1118 593 CURVE",
"1118 656 LINE",
"1118 1146 OFFCURVE",
"793 1486 OFFCURVE",
"331 1579 CURVE",
"229 1335 LINE"
);
},
{
closed = 1;
nodes = (
"912 1504 LINE",
"338 1148 LINE",
"416 1030 LINE",
"989 1386 LINE"
);
}
);
width = 1170;
}
);
unicode = 00F0;
}
{
glyphname = exclamdown;
layers = (
{
layerId = "7E29EDC2-3C1E-4E70-8272-9573F49A38C1";
paths = (
{
closed = 1;
nodes = (
"365 -361 LINE",
"350 683 LINE",
"170 683 LINE",
"155 -361 LINE"
);
},
{
closed = 1;
nodes = (
"370 1053 OFFCURVE",
"331 1101 OFFCURVE",
"255 1101 CURVE SMOOTH",
"179 1101 OFFCURVE",
"139 1053 OFFCURVE",
"139 992 CURVE SMOOTH",
"139 930 OFFCURVE",
"179 881 OFFCURVE",
"255 881 CURVE SMOOTH",
"331 881 OFFCURVE",
"370 930 OFFCURVE",
"370 992 CURVE SMOOTH"
);
}
);
width = 510;
},
{
layerId = master01;
paths = (
{
closed = 1;
nodes = (
"233 -359 LINE",
"233 696 LINE",
"179 696 LINE",
"179 -359 LINE"
);
},
{
closed = 1;
nodes = (
"253 1079 OFFCURVE",
"229 1103 OFFCURVE",
"198 1103 CURVE SMOOTH",
"167 1103 OFFCURVE",
"142 1079 OFFCURVE",
"142 1048 CURVE SMOOTH",
"142 1017 OFFCURVE",
"167 992 OFFCURVE",
"198 992 CURVE SMOOTH",
"229 992 OFFCURVE",
"253 1017 OFFCURVE",
"253 1048 CURVE SMOOTH"
);
}
);
width = 406;
},
{
layerId = "3F40CA7F-E6AC-489E-A736-3B62737B1DDA";
paths = (
{
closed = 1;
nodes = (
"474 -372 LINE",
"434 623 LINE",
"171 623 LINE",
"131 -372 LINE"
);
},
{
closed = 1;
nodes = (
"483 1029 OFFCURVE",
"411 1102 OFFCURVE",
"304 1102 CURVE SMOOTH",
"197 1102 OFFCURVE",
"125 1029 OFFCURVE",
"125 933 CURVE SMOOTH",
"125 837 OFFCURVE",
"197 764 OFFCURVE",
"304 764 CURVE SMOOTH",
"411 764 OFFCURVE",
"483 837 OFFCURVE",
"483 933 CURVE SMOOTH"
);
}
);
width = 604;
}
);
unicode = 00A1;
}
{
glyphname = germandbls;
layers = (
{
layerId = "7E29EDC2-3C1E-4E70-8272-9573F49A38C1";
paths = (
{
closed = 1;
nodes = (
"336 1305 OFFCURVE",
"413 1396 OFFCURVE",
"547 1396 CURVE SMOOTH",
"655 1396 OFFCURVE",
"733 1330 OFFCURVE",
"733 1196 CURVE SMOOTH",
"733 1045 OFFCURVE",
"592 978 OFFCURVE",
"592 821 CURVE SMOOTH",
"592 548 OFFCURVE",
"938 494 OFFCURVE",
"938 308 CURVE SMOOTH",
"938 214 OFFCURVE",
"883 140 OFFCURVE",
"730 140 CURVE SMOOTH",
"639 140 OFFCURVE",
"542 187 OFFCURVE",
"497 215 CURVE",
"453 51 LINE",
"504 15 OFFCURVE",
"642 -20 OFFCURVE",
"751 -20 CURVE SMOOTH",
"981 -20 OFFCURVE",
"1138 88 OFFCURVE",
"1138 319 CURVE SMOOTH",
"1138 576 OFFCURVE",
"792 638 OFFCURVE",
"792 819 CURVE SMOOTH",
"792 950 OFFCURVE",
"921 997 OFFCURVE",
"921 1213 CURVE SMOOTH",
"921 1450 OFFCURVE",
"761 1556 OFFCURVE",
"537 1556 CURVE SMOOTH",
"301 1556 OFFCURVE",
"137 1405 OFFCURVE",
"137 1109 CURVE SMOOTH",
"137 0 LINE",
"336 0 LINE",
"336 1109 LINE {name = hr00;}"
);
}
);
width = 1222;
},
{
layerId = master01;
paths = (
{
closed = 1;
nodes = (
"218 1389 OFFCURVE",
"331 1481 OFFCURVE",
"503 1481 CURVE SMOOTH",
"625 1481 OFFCURVE",
"744 1384 OFFCURVE",
"744 1259 CURVE SMOOTH",
"744 1080 OFFCURVE",
"631 1036 OFFCURVE",
"631 831 CURVE SMOOTH",
"631 585 OFFCURVE",
"1008 536 OFFCURVE",
"1008 306 CURVE SMOOTH",
"1008 159 OFFCURVE",
"875 32 OFFCURVE",
"687 32 CURVE SMOOTH",
"581 32 OFFCURVE",
"461 75 OFFCURVE",
"408 117 CURVE",
"383 68 LINE",
"437 20 OFFCURVE",
"579 -21 OFFCURVE",
"695 -21 CURVE SMOOTH",
"859 -21 OFFCURVE",
"1062 95 OFFCURVE",
"1062 297 CURVE SMOOTH",
"1062 569 OFFCURVE",
"685 621 OFFCURVE",
"685 829 CURVE SMOOTH",
"685 1037 OFFCURVE",
"804 1068 OFFCURVE",
"804 1257 CURVE SMOOTH",
"804 1425 OFFCURVE",
"651 1535 OFFCURVE",
"493 1535 CURVE SMOOTH",
"281 1535 OFFCURVE",
"164 1396 OFFCURVE",
"164 1143 CURVE SMOOTH",
"164 0 LINE",
"218 0 LINE",
"218 1143 LINE"
);
}
);
width = 1183;
},
{
layerId = "3F40CA7F-E6AC-489E-A736-3B62737B1DDA";
paths = (
{
closed = 1;
nodes = (
"457 1254 OFFCURVE",
"515 1302 OFFCURVE",
"604 1302 CURVE SMOOTH",
"689 1302 OFFCURVE",
"750 1245 OFFCURVE",
"750 1167 CURVE SMOOTH",
"750 1011 OFFCURVE",
"651 1003 OFFCURVE",
"651 817 CURVE SMOOTH {name = hr01;}",
"651 564 OFFCURVE",
"936 520 OFFCURVE",
"936 365 CURVE SMOOTH {name = hr02;}",
"936 285 OFFCURVE",
"877 240 OFFCURVE",
"789 240 CURVE SMOOTH",
"692 240 OFFCURVE",
"617 263 OFFCURVE",
"576 284 CURVE",
"518 31 LINE",
"573 -1 OFFCURVE",
"689 -20 OFFCURVE",
"790 -20 CURVE SMOOTH",
"1096 -20 OFFCURVE",
"1257 128 OFFCURVE",
"1257 368 CURVE SMOOTH",
"1257 617 OFFCURVE",
"973 717 OFFCURVE",
"973 835 CURVE SMOOTH {name = hr03;}",
"973 1000 OFFCURVE",
"1072 990 OFFCURVE",
"1072 1181 CURVE SMOOTH {name = hr04;}",
"1072 1430 OFFCURVE",
"873 1561 OFFCURVE",
"636 1561 CURVE SMOOTH",
"325 1561 OFFCURVE",
"135 1404 OFFCURVE",
"135 1099 CURVE SMOOTH",
"135 0 LINE",
"457 0 LINE",
"457 1093 LINE"
);
}
);
width = 1318;
}
);
unicode = 00DF;
}
{
glyphname = logicalnot;
layers = (
{
layerId = "7E29EDC2-3C1E-4E70-8272-9573F49A38C1";
paths = (
{
closed = 1;
nodes = (
"128 805 LINE",
"128 634 LINE",
"963 634 LINE",
"963 805 LINE"
);
},
{
closed = 1;
nodes = (
"763 728 LINE",
"763 374 LINE",
"963 374 LINE",
"963 728 LINE"
);
}
);
width = 1138;
},
{
layerId = master01;
paths = (
{
closed = 1;
nodes = (
"122 753 LINE",
"122 700 LINE",
"915 700 LINE",
"915 753 LINE"
);
},
{
closed = 1;
nodes = (
"861 706 LINE",
"861 396 LINE",
"915 396 LINE",
"915 706 LINE"
);
}
);
width = 1101;
},
{
layerId = "3F40CA7F-E6AC-489E-A736-3B62737B1DDA";
paths = (
{
closed = 1;
nodes = (
"126 805 LINE",
"126 634 LINE",
"961 634 LINE",
"961 805 LINE"
);
},
{
closed = 1;
nodes = (
"761 728 LINE",
"761 374 LINE",
"961 374 LINE",
"961 728 LINE"
);
}
);
width = 1126;
}
);
unicode = 00AC;
}
{
glyphname = macron;
layers = (
{
anchors = (
{
name = _top;
position = "{480, 1282}";
},
{
name = mkmktop_acc;
position = "{480, 1580}";
}
);
layerId = "7E29EDC2-3C1E-4E70-8272-9573F49A38C1";
paths = (
{
closed = 1;
nodes = (
"144 1446 LINE",
"144 1296 LINE",
"827 1296 LINE",
"827 1446 LINE"
);
}
);
userData = {
com.typemytype.robofont.mark = (
0.798,
1,
0.6,
1
);
};
width = 953;
},
{
anchors = (
{
name = _top;
position = "{413, 1282}";
},
{
name = mkmktop_acc;
position = "{413, 1540}";
}
);
layerId = master01;
paths = (
{
closed = 1;
nodes = (
"132 1436 LINE",
"132 1383 LINE",
"699 1383 LINE",
"699 1436 LINE"
);
}
);
userData = {
com.typemytype.robofont.mark = (
0.798,
1,
0.6,
1
);
};
width = 811;
},
{
anchors = (
{
name = _top;
position = "{523, 1296}";
},
{
name = mkmktop_acc;
position = "{523, 1610}";
}
);
layerId = "3F40CA7F-E6AC-489E-A736-3B62737B1DDA";
paths = (
{
closed = 1;
nodes = (
"177 1458 LINE",
"177 1285 LINE",
"870 1285 LINE",
"870 1458 LINE"
);
}
);
userData = {
com.typemytype.robofont.mark = (
0.798,
1,
0.6,
1
);
};
width = 1053;
}
);
unicode = 00AF;
}
{
glyphname = micro;
layers = (
{
layerId = "7E29EDC2-3C1E-4E70-8272-9573F49A38C1";
paths = (
{
closed = 1;
nodes = (
"812 250 LINE",
"832 0 LINE",
"1012 0 LINE",
"1012 1082 LINE",
"812 1082 LINE"
);
},
{
closed = 1;
nodes = (
"849 290 OFFCURVE",
"792 139 OFFCURVE",
"563 139 CURVE SMOOTH",
"445 139 OFFCURVE",
"352 191 OFFCURVE",
"352 462 CURVE",
"227 462 LINE",
"270 154 LINE",
"328 32 OFFCURVE",
"420 -21 OFFCURVE",
"571 -21 CURVE SMOOTH",
"816 -21 OFFCURVE",
"920 202 OFFCURVE",
"920 505 CURVE",
"849 503 LINE"
);
},
{
closed = 1;
nodes = (
"153 -416 LINE",
"352 -416 LINE",
"352 1082 LINE",
"153 1082 LINE"
);
}
);
userData = {
com.typemytype.robofont.guides = (
{
angle = 0;
isGlobal = 0;
magnetic = 5;
x = 0;
y = 202;
},
{
angle = 0;
isGlobal = 0;
magnetic = 5;
x = 0;
y = 547;
}
);
};
width = 1165;
},
{
layerId = master01;
paths = (
{
closed = 1;
nodes = (
"899 250 LINE",
"902 0 LINE",
"953 0 LINE",
"953 1082 LINE",
"899 1082 LINE"
);
},
{
closed = 1;
nodes = (
"902 242 OFFCURVE",
"837 34 OFFCURVE",
"529 34 CURVE SMOOTH",
"372 34 OFFCURVE",
"223 118 OFFCURVE",
"223 440 CURVE",
"184 440 LINE",
"174 372 LINE",
"199 70 OFFCURVE",
"368 -20 OFFCURVE",
"538 -20 CURVE SMOOTH",
"836 -20 OFFCURVE",
"953 202 OFFCURVE",
"953 505 CURVE",
"902 503 LINE"
);
},
{
closed = 1;
nodes = (
"171 -416 LINE",
"223 -416 LINE",
"223 1082 LINE",
"171 1082 LINE"
);
}
);
userData = {
com.typemytype.robofont.guides = (
{
angle = 0;
isGlobal = 0;
magnetic = 5;
x = 0;
y = 202;
},
{
angle = 0;
isGlobal = 0;
magnetic = 5;
x = 0;
y = 547;
}
);
};
width = 1121;
},
{
layerId = "3F40CA7F-E6AC-489E-A736-3B62737B1DDA";
paths = (
{
closed = 1;
nodes = (
"814 250 LINE",
"834 0 LINE",
"1136 0 LINE",
"1136 1082 LINE",
"814 1082 LINE"
);
},
{
closed = 1;
nodes = (
"851 354 OFFCURVE",
"795 243 OFFCURVE",
"626 243 CURVE SMOOTH",
"521 243 OFFCURVE",
"457 283 OFFCURVE",
"457 462 CURVE",
"289 462 LINE",
"313 216 LINE",
"367 51 OFFCURVE",
"472 -21 OFFCURVE",
"614 -21 CURVE SMOOTH",
"859 -21 OFFCURVE",
"983 202 OFFCURVE",
"983 505 CURVE",
"851 503 LINE"
);
},
{
closed = 1;
nodes = (
"135 -416 LINE",
"457 -416 LINE",
"457 1082 LINE",
"135 1082 LINE"
);
}
);
userData = {
com.typemytype.robofont.guides = (
{
angle = 0;
isGlobal = 0;
magnetic = 5;
x = 0;
y = 202;
},
{
angle = 0;
isGlobal = 0;
magnetic = 5;
x = 0;
y = 547;
}
);
com.typemytype.robofont.mark = (
1,
0.6,
0.6,
1
);
};
width = 1297;
}
);
unicode = 00B5;
}
{
glyphname = multiply;
layers = (
{
layerId = "7E29EDC2-3C1E-4E70-8272-9573F49A38C1";
paths = (
{
closed = 1;
nodes = (
"993 1018 LINE",
"865 1149 LINE",
"86 355 LINE",
"214 224 LINE"
);
},
{
closed = 1;
nodes = (
"993 355 LINE",
"214 1149 LINE",
"86 1018 LINE",
"865 224 LINE"
);
}
);
width = 1097;
},
{
layerId = master01;
paths = (
{
closed = 1;
nodes = (
"949 1064 LINE",
"910 1103 LINE",
"130 307 LINE",
"169 270 LINE"
);
},
{
closed = 1;
nodes = (
"949 307 LINE",
"169 1103 LINE",
"130 1064 LINE",
"910 270 LINE"
);
}
);
width = 1052;
},
{
layerId = "3F40CA7F-E6AC-489E-A736-3B62737B1DDA";
paths = (
{
closed = 1;
nodes = (
"1022 992 LINE",
"836 1175 LINE",
"57 381 LINE",
"243 198 LINE"
);
},
{
closed = 1;
nodes = (
"1022 381 LINE",
"243 1175 LINE",
"57 992 LINE",
"836 198 LINE"
);
}
);
width = 1085;
}
);
unicode = 00D7;
}
{
glyphname = ordfeminine;
layers = (
{
layerId = "7E29EDC2-3C1E-4E70-8272-9573F49A38C1";
paths = (
{
closed = 1;
nodes = (
"588 807 OFFCURVE",
"597 753 OFFCURVE",
"612 706 CURVE",
"789 706 LINE",
"770 764 OFFCURVE",
"763 822 OFFCURVE",
"763 887 CURVE SMOOTH",
"763 1201 LINE",
"763 1384 OFFCURVE",
"647 1477 OFFCURVE",
"472 1477 CURVE SMOOTH",
"284 1477 OFFCURVE",
"161 1379 OFFCURVE",
"161 1244 CURVE",
"334 1230 LINE",
"334 1294 OFFCURVE",
"386 1329 OFFCURVE",
"472 1329 CURVE SMOOTH",
"550 1329 OFFCURVE",
"588 1284 OFFCURVE",
"588 1202 CURVE",
"588 862 LINE"
);
},
{
closed = 1;
nodes = (
"486 1151 LINE",
"256 1151 OFFCURVE",
"145 1067 OFFCURVE",
"145 920 CURVE SMOOTH",
"145 782 OFFCURVE",
"234 692 OFFCURVE",
"394 692 CURVE SMOOTH",
"530 692 OFFCURVE",
"606 770 OFFCURVE",
"636 834 CURVE",
"619 951 LINE",
"619 902 OFFCURVE",
"519 836 OFFCURVE",
"437 836 CURVE SMOOTH",
"357 836 OFFCURVE",
"320 869 OFFCURVE",
"320 924 CURVE SMOOTH",
"320 982 OFFCURVE",
"371 1034 OFFCURVE",
"487 1034 CURVE",
"632 1034 LINE",
"631 1151 LINE"
);
}
);
userData = {
com.typemytype.robofont.guides = (
{
angle = 0;
isGlobal = 0;
magnetic = 5;
x = 0;
y = 1681;
},
{
angle = 0;
isGlobal = 0;
magnetic = 5;
x = 0;
y = 909;
}
);
};
width = 918;
},
{
layerId = master01;
paths = (
{
closed = 1;
nodes = (
"657 806 OFFCURVE",
"665 752 OFFCURVE",
"680 705 CURVE",
"738 705 LINE",
"721 763 OFFCURVE",
"712 821 OFFCURVE",
"712 886 CURVE SMOOTH",
"712 1200 LINE",
"712 1383 OFFCURVE",
"607 1476 OFFCURVE",
"458 1476 CURVE SMOOTH",
"283 1476 OFFCURVE",
"167 1378 OFFCURVE",
"167 1243 CURVE",
"221 1243 LINE",
"221 1364 OFFCURVE",
"313 1422 OFFCURVE",
"458 1422 CURVE SMOOTH",
"590 1422 OFFCURVE",
"657 1339 OFFCURVE",
"657 1201 CURVE",
"657 861 LINE"
);
},
{
closed = 1;
nodes = (
"487 1132 LINE",
"285 1132 OFFCURVE",
"168 1045 OFFCURVE",
"168 900 CURVE SMOOTH",
"168 774 OFFCURVE",
"256 691 OFFCURVE",
"417 691 CURVE SMOOTH",
"553 691 OFFCURVE",
"656 792 OFFCURVE",
"685 877 CURVE",
"662 928 LINE",
"662 850 OFFCURVE",
"536 746 OFFCURVE",
"418 746 CURVE SMOOTH",
"278 746 OFFCURVE",
"222 810 OFFCURVE",
"222 904 CURVE SMOOTH",
"222 1024 OFFCURVE",
"319 1078 OFFCURVE",
"488 1078 CURVE",
"675 1078 LINE",
"674 1132 LINE"
);
}
);
userData = {
com.typemytype.robofont.guides = (
{
angle = 0;
isGlobal = 0;
magnetic = 5;
x = 0;
y = 1681;
},
{
angle = 0;
isGlobal = 0;
magnetic = 5;
x = 0;
y = 909;
}
);
};
width = 898;
},
{
layerId = "3F40CA7F-E6AC-489E-A736-3B62737B1DDA";
paths = (
{
closed = 1;
nodes = (
"578 806 OFFCURVE",
"586 752 OFFCURVE",
"602 705 CURVE",
"779 705 LINE",
"760 763 OFFCURVE",
"753 821 OFFCURVE",
"753 886 CURVE SMOOTH",
"753 1200 LINE",
"753 1383 OFFCURVE",
"636 1476 OFFCURVE",
"462 1476 CURVE SMOOTH",
"274 1476 OFFCURVE",
"151 1378 OFFCURVE",
"151 1243 CURVE",
"324 1229 LINE",
"324 1293 OFFCURVE",
"376 1328 OFFCURVE",
"462 1328 CURVE SMOOTH",
"540 1328 OFFCURVE",
"578 1283 OFFCURVE",
"578 1201 CURVE",
"578 861 LINE"
);
},
{
closed = 1;
nodes = (
"476 1150 LINE",
"246 1150 OFFCURVE",
"135 1066 OFFCURVE",
"135 919 CURVE SMOOTH",
"135 781 OFFCURVE",
"224 691 OFFCURVE",
"384 691 CURVE SMOOTH",
"520 691 OFFCURVE",
"596 769 OFFCURVE",
"626 833 CURVE",
"608 950 LINE",
"608 901 OFFCURVE",
"508 835 OFFCURVE",
"427 835 CURVE SMOOTH",
"347 835 OFFCURVE",
"310 868 OFFCURVE",
"310 923 CURVE SMOOTH",
"310 981 OFFCURVE",
"361 1033 OFFCURVE",
"477 1033 CURVE",
"622 1033 LINE",
"621 1150 LINE"
);
}
);
userData = {
com.typemytype.robofont.guides = (
{
angle = 0;
isGlobal = 0;
magnetic = 5;
x = 0;
y = 1681;
},
{
angle = 0;
isGlobal = 0;
magnetic = 5;
x = 0;
y = 909;
}
);
};
width = 906;
}
);
unicode = 00AA;
}
{
glyphname = ordmasculine;
layers = (
{
layerId = "7E29EDC2-3C1E-4E70-8272-9573F49A38C1";
paths = (
{
closed = 1;
nodes = (
"120 838 OFFCURVE",
"254 691 OFFCURVE",
"468 691 CURVE SMOOTH",
"681 691 OFFCURVE",
"813 838 OFFCURVE",
"813 1045 CURVE",
"813 1122 LINE",
"813 1329 OFFCURVE",
"681 1477 OFFCURVE",
"466 1477 CURVE SMOOTH",
"254 1477 OFFCURVE",
"120 1329 OFFCURVE",
"120 1122 CURVE",
"120 1045 LINE"
);
},
{
closed = 1;
nodes = (
"295 1239 OFFCURVE",
"351 1329 OFFCURVE",
"466 1329 CURVE SMOOTH",
"582 1329 OFFCURVE",
"638 1239 OFFCURVE",
"638 1122 CURVE",
"638 1045 LINE",
"638 926 OFFCURVE",
"582 837 OFFCURVE",
"468 837 CURVE SMOOTH",
"351 837 OFFCURVE",
"295 926 OFFCURVE",
"295 1045 CURVE",
"295 1122 LINE"
);
}
);
userData = {
com.typemytype.robofont.guides = (
{
angle = 0;
isGlobal = 0;
magnetic = 5;
x = 0;
y = 1975;
}
);
};
width = 934;
},
{
layerId = master01;
paths = (
{
closed = 1;
nodes = (
"148 829 OFFCURVE",
"264 690 OFFCURVE",
"454 690 CURVE SMOOTH",
"642 690 OFFCURVE",
"757 829 OFFCURVE",
"757 1024 CURVE",
"757 1141 LINE",
"757 1336 OFFCURVE",
"642 1476 OFFCURVE",
"452 1476 CURVE SMOOTH",
"264 1476 OFFCURVE",
"148 1336 OFFCURVE",
"148 1141 CURVE",
"148 1024 LINE"
);
},
{
closed = 1;
nodes = (
"202 1295 OFFCURVE",
"284 1422 OFFCURVE",
"452 1422 CURVE SMOOTH",
"622 1422 OFFCURVE",
"704 1295 OFFCURVE",
"704 1141 CURVE",
"704 1024 LINE",
"704 869 OFFCURVE",
"622 744 OFFCURVE",
"454 744 CURVE SMOOTH",
"278 744 OFFCURVE",
"202 869 OFFCURVE",
"202 1024 CURVE",
"202 1141 LINE"
);
}
);
userData = {
com.typemytype.robofont.guides = (
{
angle = 0;
isGlobal = 0;
magnetic = 5;
x = 0;
y = 1975;
}
);
};
width = 914;
},
{
layerId = "3F40CA7F-E6AC-489E-A736-3B62737B1DDA";
paths = (
{
closed = 1;
nodes = (
"118 837 OFFCURVE",
"252 690 OFFCURVE",
"466 690 CURVE SMOOTH",
"679 690 OFFCURVE",
"811 837 OFFCURVE",
"811 1044 CURVE",
"811 1121 LINE",
"811 1328 OFFCURVE",
"679 1476 OFFCURVE",
"464 1476 CURVE SMOOTH",
"252 1476 OFFCURVE",
"118 1328 OFFCURVE",
"118 1121 CURVE",
"118 1044 LINE"
);
},
{
closed = 1;
nodes = (
"293 1238 OFFCURVE",
"349 1328 OFFCURVE",
"464 1328 CURVE SMOOTH",
"580 1328 OFFCURVE",
"636 1238 OFFCURVE",
"636 1121 CURVE",
"636 1044 LINE",
"636 925 OFFCURVE",
"580 836 OFFCURVE",
"466 836 CURVE SMOOTH",
"349 836 OFFCURVE",
"293 925 OFFCURVE",
"293 1044 CURVE",
"293 1121 LINE"
);
}
);
userData = {
com.typemytype.robofont.guides = (
{
angle = 0;
isGlobal = 0;
magnetic = 5;
x = 0;
y = 1975;
}
);
};
width = 938;
}
);
unicode = 00BA;
}
{
glyphname = oslash;
layers = (
{
anchors = (
{
name = top;
position = "{540, 1289}";
},
{
name = top0315;
position = "{1165, 1289}";
},
{
name = top_dd;
position = "{1165, 1600}";
}
);
components = (
{
name = o;
}
);
layerId = "7E29EDC2-3C1E-4E70-8272-9573F49A38C1";
paths = (
{
closed = 1;
nodes = (
"859 1208 LINE",
"196 -134 LINE",
"326 -134 LINE",
"989 1208 LINE"
);
}
);
width = 1165;
},
{
anchors = (
{
name = top;
position = "{510, 1289}";
},
{
name = top0315;
position = "{1121, 1289}";
},
{
name = top_dd;
position = "{1121, 1600}";
}
);
components = (
{
name = o;
transform = "{1, 0, 0, 1, -3, 0}";
}
);
layerId = master01;
paths = (
{
closed = 1;
nodes = (
"868 1219 LINE",
"205 -145 LINE",
"268 -145 LINE",
"931 1219 LINE"
);
}
);
width = 1121;
},
{
anchors = (
{
name = top;
position = "{539, 1284}";
},
{
name = top0315;
position = "{1153, 1284}";
},
{
name = top_dd;
position = "{1153, 1600}";
}
);
components = (
{
name = o;
}
);
layerId = "3F40CA7F-E6AC-489E-A736-3B62737B1DDA";
paths = (
{
closed = 1;
nodes = (
"824 1219 LINE",
"161 -145 LINE",
"333 -145 LINE",
"996 1219 LINE"
);
}
);
width = 1153;
}
);
unicode = 00F8;
}
{
glyphname = paragraph;
layers = (
{
layerId = "7E29EDC2-3C1E-4E70-8272-9573F49A38C1";
paths = (
{
closed = 1;
nodes = (
"840 1456 LINE",
"556 1456 LINE SMOOTH",
"238 1456 OFFCURVE",
"64 1256 OFFCURVE",
"64 988 CURVE SMOOTH",
"64 718 OFFCURVE",
"238 520 OFFCURVE",
"556 520 CURVE SMOOTH",
"639 520 LINE",
"639 0 LINE",
"840 0 LINE"
);
}
);
userData = {
com.typemytype.robofont.guides = (
{
angle = 0;
isGlobal = 0;
magnetic = 5;
x = 0;
y = 901;
},
{
angle = 0;
isGlobal = 0;
magnetic = 5;
x = 0;
y = 555;
}
);
com.typemytype.robofont.mark = (
0.6,
0.609,
1,
1
);
};
width = 1008;
},
{
layerId = master01;
paths = (
{
closed = 1;
nodes = (
"770 1456 LINE",
"591 1456 LINE SMOOTH",
"272 1456 OFFCURVE",
"99 1256 OFFCURVE",
"99 988 CURVE SMOOTH",
"99 718 OFFCURVE",
"272 520 OFFCURVE",
"591 520 CURVE SMOOTH",
"716 520 LINE",
"716 0 LINE",
"770 0 LINE"
);
}
);
userData = {
com.typemytype.robofont.guides = (
{
angle = 0;
isGlobal = 0;
magnetic = 5;
x = 0;
y = 901;
},
{
angle = 0;
isGlobal = 0;
magnetic = 5;
x = 0;
y = 555;
}
);
};
width = 946;
},
{
layerId = "3F40CA7F-E6AC-489E-A736-3B62737B1DDA";
paths = (
{
closed = 1;
nodes = (
"881 1456 LINE",
"572 1456 LINE SMOOTH",
"254 1456 OFFCURVE",
"80 1256 OFFCURVE",
"80 988 CURVE SMOOTH",
"80 718 OFFCURVE",
"254 520 OFFCURVE",
"572 520 CURVE SMOOTH",
"655 520 LINE",
"655 0 LINE",
"881 0 LINE"
);
}
);
userData = {
com.typemytype.robofont.guides = (
{
angle = 0;
isGlobal = 0;
magnetic = 5;
x = 0;
y = 901;
},
{
angle = 0;
isGlobal = 0;
magnetic = 5;
x = 0;
y = 555;
}
);
com.typemytype.robofont.mark = (
0.6,
0.609,
1,
1
);
};
width = 1002;
}
);
unicode = 00B6;
}
{
glyphname = periodcentered;
layers = (
{
layerId = "7E29EDC2-3C1E-4E70-8272-9573F49A38C1";
paths = (
{
closed = 1;
nodes = (
"144 667 OFFCURVE",
"185 617 OFFCURVE",
"265 617 CURVE SMOOTH",
"345 617 OFFCURVE",
"387 667 OFFCURVE",
"387 731 CURVE SMOOTH",
"387 797 OFFCURVE",
"345 848 OFFCURVE",
"265 848 CURVE SMOOTH",
"185 848 OFFCURVE",
"144 797 OFFCURVE",
"144 731 CURVE SMOOTH"
);
}
);
userData = {
com.typemytype.robofont.guides = (
{
angle = 0;
isGlobal = 0;
magnetic = 5;
x = 0;
y = 901;
},
{
angle = 0;
isGlobal = 0;
magnetic = 5;
x = 0;
y = 555;
}
);
};
width = 542;
},
{
layerId = master01;
paths = (
{
closed = 1;
nodes = (
"179 675 OFFCURVE",
"203 651 OFFCURVE",
"234 651 CURVE SMOOTH",
"265 651 OFFCURVE",
"290 675 OFFCURVE",
"290 706 CURVE SMOOTH",
"290 737 OFFCURVE",
"265 762 OFFCURVE",
"234 762 CURVE SMOOTH",
"203 762 OFFCURVE",
"179 737 OFFCURVE",
"179 706 CURVE SMOOTH"
);
}
);
userData = {
com.typemytype.robofont.guides = (
{
angle = 0;
isGlobal = 0;
magnetic = 5;
x = 0;
y = 901;
},
{
angle = 0;
isGlobal = 0;
magnetic = 5;
x = 0;
y = 555;
}
);
};
width = 472;
},
{
layerId = "3F40CA7F-E6AC-489E-A736-3B62737B1DDA";
paths = (
{
closed = 1;
nodes = (
"139 589 OFFCURVE",
"211 516 OFFCURVE",
"318 516 CURVE SMOOTH",
"425 516 OFFCURVE",
"497 589 OFFCURVE",
"497 685 CURVE SMOOTH",
"497 781 OFFCURVE",
"425 854 OFFCURVE",
"318 854 CURVE SMOOTH",
"211 854 OFFCURVE",
"139 781 OFFCURVE",
"139 685 CURVE SMOOTH"
);
}
);
userData = {
com.typemytype.robofont.guides = (
{
angle = 0;
isGlobal = 0;
magnetic = 5;
x = 0;
y = 901;
},
{
angle = 0;
isGlobal = 0;
magnetic = 5;
x = 0;
y = 555;
}
);
};
width = 645;
}
);
unicode = 00B7;
}
{
glyphname = plusminus;
layers = (
{
components = (
{
name = minus;
transform = "{1, 0, 0, 1, -32, -644}";
}
);
layerId = "7E29EDC2-3C1E-4E70-8272-9573F49A38C1";
paths = (
{
closed = 1;
nodes = (
"100 859 LINE",
"100 699 LINE",
"1016 699 LINE",
"1016 859 LINE"
);
},
{
closed = 1;
nodes = (
"479 1267 LINE",
"479 289 LINE",
"659 289 LINE",
"659 1267 LINE"
);
}
);
width = 1097;
},
{
components = (
{
name = minus;
transform = "{1, 0, 0, 1, -41, -722}";
}
);
layerId = master01;
paths = (
{
closed = 1;
nodes = (
"72 805 LINE",
"72 751 LINE",
"988 751 LINE",
"988 805 LINE"
);
},
{
closed = 1;
nodes = (
"515 1267 LINE",
"515 289 LINE",
"569 289 LINE",
"569 1267 LINE"
);
}
);
width = 1077;
},
{
components = (
{
name = minus;
transform = "{1, 0, 0, 1, -34, -577}";
}
);
layerId = "3F40CA7F-E6AC-489E-A736-3B62737B1DDA";
paths = (
{
closed = 1;
nodes = (
"86 974 LINE",
"86 703 LINE",
"1002 703 LINE",
"1002 974 LINE"
);
},
{
closed = 1;
nodes = (
"404 1293 LINE",
"404 355 LINE",
"685 355 LINE",
"685 1293 LINE"
);
}
);
width = 1102;
}
);
unicode = 00B1;
}
{
glyphname = questiondown;
layers = (
{
layerId = "7E29EDC2-3C1E-4E70-8272-9573F49A38C1";
paths = (
{
closed = 1;
nodes = (
"397 582 OFFCURVE",
"377 498 OFFCURVE",
"308 430 CURVE",
"191 314 OFFCURVE",
"64 175 OFFCURVE",
"64 -5 CURVE SMOOTH",
"64 -247 OFFCURVE",
"216 -386 OFFCURVE",
"480 -386 CURVE SMOOTH",
"715 -386 OFFCURVE",
"894 -246 OFFCURVE",
"897 -20 CURVE",
"697 -20 LINE",
"697 -155 OFFCURVE",
"588 -215 OFFCURVE",
"480 -215 CURVE SMOOTH",
"341 -215 OFFCURVE",
"264 -140 OFFCURVE",
"264 1 CURVE SMOOTH",
"264 133 OFFCURVE",
"342 200 OFFCURVE",
"423 289 CURVE SMOOTH",
"547 425 OFFCURVE",
"595 483 OFFCURVE",
"597 679 CURVE",
"397 679 LINE"
);
},
{
closed = 1;
nodes = (
"603 1054 OFFCURVE",
"564 1102 OFFCURVE",
"488 1102 CURVE SMOOTH",
"412 1102 OFFCURVE",
"372 1054 OFFCURVE",
"372 993 CURVE SMOOTH",
"372 931 OFFCURVE",
"412 882 OFFCURVE",
"488 882 CURVE SMOOTH",
"564 882 OFFCURVE",
"603 931 OFFCURVE",
"603 993 CURVE SMOOTH"
);
}
);
userData = {
com.typemytype.robofont.guides = (
{
angle = 0;
isGlobal = 0;
magnetic = 5;
x = 0;
y = -181;
},
{
angle = 0;
isGlobal = 0;
magnetic = 5;
x = 0;
y = 921;
}
);
};
width = 976;
},
{
layerId = master01;
paths = (
{
closed = 1;
nodes = (
"460 580 OFFCURVE",
"460 522 OFFCURVE",
"361 445 CURVE SMOOTH",
"211 310 OFFCURVE",
"108 188 OFFCURVE",
"108 -15 CURVE SMOOTH",
"108 -232 OFFCURVE",
"238 -381 OFFCURVE",
"461 -381 CURVE SMOOTH",
"657 -381 OFFCURVE",
"813 -263 OFFCURVE",
"816 -21 CURVE",
"762 -21 LINE",
"758 -201 OFFCURVE",
"654 -328 OFFCURVE",
"461 -328 CURVE SMOOTH",
"268 -328 OFFCURVE",
"162 -211 OFFCURVE",
"162 -17 CURVE SMOOTH",
"162 193 OFFCURVE",
"267 286 OFFCURVE",
"389 403 CURVE SMOOTH",
"507 511 OFFCURVE",
"512 547 OFFCURVE",
"514 695 CURVE",
"460 695 LINE"
);
},
{
closed = 1;
nodes = (
"538 1077 OFFCURVE",
"514 1101 OFFCURVE",
"483 1101 CURVE SMOOTH",
"452 1101 OFFCURVE",
"427 1077 OFFCURVE",
"427 1046 CURVE SMOOTH",
"427 1015 OFFCURVE",
"452 990 OFFCURVE",
"483 990 CURVE SMOOTH",
"514 990 OFFCURVE",
"538 1015 OFFCURVE",
"538 1046 CURVE SMOOTH"
);
}
);
userData = {
com.typemytype.robofont.guides = (
{
angle = 0;
isGlobal = 0;
magnetic = 5;
x = 0;
y = -181;
},
{
angle = 0;
isGlobal = 0;
magnetic = 5;
x = 0;
y = 921;
}
);
};
width = 912;
},
{
layerId = "3F40CA7F-E6AC-489E-A736-3B62737B1DDA";
paths = (
{
closed = 1;
nodes = (
"412 525 OFFCURVE",
"401 473 OFFCURVE",
"324 405 CURVE",
"191 282 OFFCURVE",
"72 184 OFFCURVE",
"72 11 CURVE SMOOTH",
"72 -247 OFFCURVE",
"245 -385 OFFCURVE",
"533 -385 CURVE SMOOTH",
"794 -385 OFFCURVE",
"997 -260 OFFCURVE",
"1001 38 CURVE",
"678 38 LINE",
"675 -77 OFFCURVE",
"610 -125 OFFCURVE",
"526 -125 CURVE SMOOTH",
"448 -125 OFFCURVE",
"395 -84 OFFCURVE",
"395 11 CURVE SMOOTH",
"395 112 OFFCURVE",
"461 174 OFFCURVE",
"554 258 CURVE SMOOTH",
"664 350 OFFCURVE",
"692 455 OFFCURVE",
"692 630 CURVE",
"415 630 LINE"
);
},
{
closed = 1;
nodes = (
"739 1030 OFFCURVE",
"667 1103 OFFCURVE",
"560 1103 CURVE SMOOTH",
"453 1103 OFFCURVE",
"381 1030 OFFCURVE",
"381 934 CURVE SMOOTH",
"381 838 OFFCURVE",
"453 765 OFFCURVE",
"560 765 CURVE SMOOTH",
"667 765 OFFCURVE",
"739 838 OFFCURVE",
"739 934 CURVE SMOOTH"
);
}
);
width = 1036;
}
);
unicode = 00BF;
}
{
glyphname = registered;
layers = (
{
layerId = "7E29EDC2-3C1E-4E70-8272-9573F49A38C1";
paths = (
{
closed = 1;
nodes = (
"861 653 OFFCURVE",
"842 653 OFFCURVE",
"877 674 CURVE SMOOTH",
"881 674 OFFCURVE",
"886 688 OFFCURVE",
"890 688 CURVE SMOOTH",
"1031 726 OFFCURVE",
"1109 801 OFFCURVE",
"1109 909 CURVE",
"1109 1082 OFFCURVE",
"982 1166 OFFCURVE",
"784 1166 CURVE",
"503 1166 LINE",
"503 316 LINE",
"654 316 LINE",
"654 1033 LINE",
"784 1033 LINE",
"914 1033 OFFCURVE",
"959 1000 OFFCURVE",
"959 903 CURVE",
"959 828 OFFCURVE",
"886 789 OFFCURVE",
"805 787 CURVE",
"606 787 LINE",
"608 653 LINE",
"822 653 LINE"
);
},
{
closed = 1;
nodes = (
"916 653 OFFCURVE",
"955 608 OFFCURVE",
"955 514 CURVE",
"955 460 LINE",
"955 431 OFFCURVE",
"955 350 OFFCURVE",
"968 316 CURVE",
"1123 316 LINE",
"1123 332 LINE",
"1110 362 OFFCURVE",
"1106 409 OFFCURVE",
"1106 459 CURVE",
"1106 515 LINE",
"1106 649 OFFCURVE",
"1042 747 OFFCURVE",
"833 747 CURVE",
"812 653 LINE"
);
},
{
closed = 1;
nodes = (
"210 1082 OFFCURVE",
"473 1351 OFFCURVE",
"798 1351 CURVE SMOOTH",
"1122 1351 OFFCURVE",
"1385 1082 OFFCURVE",
"1385 729 CURVE SMOOTH",
"1385 376 OFFCURVE",
"1122 104 OFFCURVE",
"798 104 CURVE SMOOTH",
"473 104 OFFCURVE",
"210 376 OFFCURVE",
"210 729 CURVE SMOOTH"
);
},
{
closed = 1;
nodes = (
"88 306 OFFCURVE",
"406 -21 OFFCURVE",
"798 -21 CURVE SMOOTH",
"1189 -21 OFFCURVE",
"1507 306 OFFCURVE",
"1507 729 CURVE SMOOTH",
"1507 1152 OFFCURVE",
"1189 1476 OFFCURVE",
"798 1476 CURVE SMOOTH",
"406 1476 OFFCURVE",
"88 1152 OFFCURVE",
"88 729 CURVE SMOOTH"
);
}
);
width = 1603;
},
{
layerId = master01;
paths = (
{
closed = 1;
nodes = (
"909 678 OFFCURVE",
"890 678 OFFCURVE",
"925 699 CURVE SMOOTH",
"929 699 OFFCURVE",
"934 699 OFFCURVE",
"938 700 CURVE SMOOTH",
"1052 736 OFFCURVE",
"1121 807 OFFCURVE",
"1121 916 CURVE",
"1121 1074 OFFCURVE",
"1024 1156 OFFCURVE",
"832 1156 CURVE",
"593 1156 LINE",
"593 326 LINE",
"648 326 LINE",
"648 1101 LINE",
"832 1101 LINE",
"1009 1101 OFFCURVE",
"1066 1042 OFFCURVE",
"1066 917 CURVE",
"1066 797 OFFCURVE",
"969 734 OFFCURVE",
"853 734 CURVE",
"612 734 LINE",
"614 678 LINE",
"870 678 LINE"
);
},
{
closed = 1;
nodes = (
"995 678 OFFCURVE",
"1044 629 OFFCURVE",
"1044 504 CURVE",
"1044 470 LINE",
"1044 441 OFFCURVE",
"1044 360 OFFCURVE",
"1058 326 CURVE",
"1117 326 LINE",
"1117 342 LINE",
"1106 372 OFFCURVE",
"1100 419 OFFCURVE",
"1100 469 CURVE",
"1100 505 LINE",
"1100 624 OFFCURVE",
"1048 723 OFFCURVE",
"871 723 CURVE",
"860 678 LINE"
);
},
{
closed = 1;
nodes = (
"170 1117 OFFCURVE",
"466 1421 OFFCURVE",
"825 1421 CURVE SMOOTH",
"1183 1421 OFFCURVE",
"1479 1117 OFFCURVE",
"1479 729 CURVE SMOOTH",
"1479 341 OFFCURVE",
"1183 34 OFFCURVE",
"825 34 CURVE SMOOTH",
"466 34 OFFCURVE",
"170 341 OFFCURVE",
"170 729 CURVE SMOOTH"
);
},
{
closed = 1;
nodes = (
"115 306 OFFCURVE",
"433 -21 OFFCURVE",
"825 -21 CURVE SMOOTH",
"1217 -21 OFFCURVE",
"1535 306 OFFCURVE",
"1535 729 CURVE SMOOTH",
"1535 1152 OFFCURVE",
"1217 1476 OFFCURVE",
"825 1476 CURVE SMOOTH",
"433 1476 OFFCURVE",
"115 1152 OFFCURVE",
"115 729 CURVE SMOOTH"
);
}
);
width = 1674;
},
{
layerId = "3F40CA7F-E6AC-489E-A736-3B62737B1DDA";
paths = (
{
closed = 1;
nodes = (
"859 653 OFFCURVE",
"840 653 OFFCURVE",
"875 674 CURVE SMOOTH",
"879 674 OFFCURVE",
"884 688 OFFCURVE",
"888 688 CURVE SMOOTH",
"1029 726 OFFCURVE",
"1107 794 OFFCURVE",
"1107 902 CURVE",
"1107 1074 OFFCURVE",
"980 1166 OFFCURVE",
"782 1166 CURVE",
"501 1166 LINE",
"501 316 LINE",
"652 316 LINE",
"652 1033 LINE",
"782 1033 LINE",
"912 1033 OFFCURVE",
"957 1000 OFFCURVE",
"957 903 CURVE",
"957 826 OFFCURVE",
"875 787 OFFCURVE",
"782 787 CURVE",
"604 787 LINE",
"606 653 LINE",
"820 653 LINE"
);
},
{
closed = 1;
nodes = (
"914 653 OFFCURVE",
"953 608 OFFCURVE",
"953 514 CURVE",
"953 460 LINE",
"953 431 OFFCURVE",
"953 350 OFFCURVE",
"966 316 CURVE",
"1121 316 LINE",
"1121 332 LINE",
"1108 362 OFFCURVE",
"1104 409 OFFCURVE",
"1104 459 CURVE",
"1104 515 LINE",
"1104 661 OFFCURVE",
"1040 768 OFFCURVE",
"831 768 CURVE",
"810 653 LINE"
);
},
{
closed = 1;
nodes = (
"208 1082 OFFCURVE",
"471 1351 OFFCURVE",
"796 1351 CURVE SMOOTH",
"1120 1351 OFFCURVE",
"1383 1082 OFFCURVE",
"1383 729 CURVE SMOOTH",
"1383 376 OFFCURVE",
"1120 105 OFFCURVE",
"796 105 CURVE SMOOTH",
"471 105 OFFCURVE",
"208 376 OFFCURVE",
"208 729 CURVE SMOOTH"
);
},
{
closed = 1;
nodes = (
"86 306 OFFCURVE",
"404 -20 OFFCURVE",
"796 -20 CURVE SMOOTH",
"1187 -20 OFFCURVE",
"1506 306 OFFCURVE",
"1506 729 CURVE SMOOTH",
"1506 1152 OFFCURVE",
"1187 1476 OFFCURVE",
"796 1476 CURVE SMOOTH",
"404 1476 OFFCURVE",
"86 1152 OFFCURVE",
"86 729 CURVE SMOOTH"
);
}
);
width = 1608;
}
);
unicode = 00AE;
}
{
glyphname = section;
layers = (
{
layerId = "7E29EDC2-3C1E-4E70-8272-9573F49A38C1";
paths = (
{
closed = 1;
nodes = (
"973 104 OFFCURVE",
"1151 225 OFFCURVE",
"1151 431 CURVE",
"1151 682 OFFCURVE",
"981 776 OFFCURVE",
"683 859 CURVE SMOOTH",
"406 936 OFFCURVE",
"339 980 OFFCURVE",
"339 1111 CURVE",
"339 1223 OFFCURVE",
"430 1317 OFFCURVE",
"632 1317 CURVE SMOOTH",
"824 1317 OFFCURVE",
"928 1195 OFFCURVE",
"928 1046 CURVE",
"1128 1046 LINE",
"1128 1324 OFFCURVE",
"940 1477 OFFCURVE",
"632 1477 CURVE SMOOTH",
"332 1477 OFFCURVE",
"139 1331 OFFCURVE",
"139 1109 CURVE",
"139 857 OFFCURVE",
"312 764 OFFCURVE",
"604 685 CURVE SMOOTH",
"869 604 OFFCURVE",
"951 549 OFFCURVE",
"951 428 CURVE",
"951 312 OFFCURVE",
"859 229 OFFCURVE",
"700 229 CURVE",
"700 104 LINE"
);
},
{
closed = 1;
nodes = (
"263 878 OFFCURVE",
"94 749 OFFCURVE",
"94 551 CURVE SMOOTH",
"94 300 OFFCURVE",
"267 202 OFFCURVE",
"559 123 CURVE",
"824 42 OFFCURVE",
"906 -8 OFFCURVE",
"906 -129 CURVE SMOOTH",
"906 -245 OFFCURVE",
"800 -335 OFFCURVE",
"614 -335 CURVE SMOOTH",
"461 -335 OFFCURVE",
"288 -267 OFFCURVE",
"288 -62 CURVE",
"88 -64 LINE",
"88 -388 OFFCURVE",
"355 -495 OFFCURVE",
"614 -495 CURVE SMOOTH",
"912 -495 OFFCURVE",
"1106 -360 OFFCURVE",
"1106 -127 CURVE SMOOTH",
"1106 125 OFFCURVE",
"936 213 OFFCURVE",
"638 296 CURVE SMOOTH",
"361 373 OFFCURVE",
"294 422 OFFCURVE",
"294 553 CURVE SMOOTH",
"294 666 OFFCURVE",
"367 749 OFFCURVE",
"526 749 CURVE",
"526 878 LINE"
);
}
);
userData = {
com.typemytype.robofont.guides = (
{
angle = 0;
isGlobal = 0;
magnetic = 5;
x = 0;
y = 1658;
},
{
angle = 0;
isGlobal = 0;
magnetic = 5;
x = 0;
y = 578;
}
);
};
width = 1260;
},
{
layerId = master01;
paths = (
{
closed = 1;
nodes = (
"933 157 OFFCURVE",
"1094 267 OFFCURVE",
"1094 431 CURVE",
"1094 656 OFFCURVE",
"914 729 OFFCURVE",
"616 804 CURVE SMOOTH",
"296 896 OFFCURVE",
"220 968 OFFCURVE",
"220 1132 CURVE",
"220 1292 OFFCURVE",
"343 1422 OFFCURVE",
"618 1422 CURVE SMOOTH",
"877 1422 OFFCURVE",
"1018 1253 OFFCURVE",
"1018 1045 CURVE",
"1072 1045 LINE",
"1072 1323 OFFCURVE",
"901 1476 OFFCURVE",
"618 1476 CURVE SMOOTH",
"343 1476 OFFCURVE",
"166 1339 OFFCURVE",
"166 1129 CURVE",
"166 916 OFFCURVE",
"324 833 OFFCURVE",
"590 766 CURVE SMOOTH",
"935 671 OFFCURVE",
"1040 593 OFFCURVE",
"1040 428 CURVE",
"1040 301 OFFCURVE",
"912 196 OFFCURVE",
"685 196 CURVE",
"685 157 LINE"
);
},
{
closed = 1;
nodes = (
"273 830 OFFCURVE",
"121 723 OFFCURVE",
"121 551 CURVE SMOOTH",
"121 325 OFFCURVE",
"315 236 OFFCURVE",
"607 166 CURVE",
"920 84 OFFCURVE",
"995 2 OFFCURVE",
"995 -151 CURVE SMOOTH",
"995 -319 OFFCURVE",
"853 -441 OFFCURVE",
"600 -441 CURVE SMOOTH",
"400 -441 OFFCURVE",
"169 -353 OFFCURVE",
"169 -62 CURVE",
"115 -64 LINE",
"115 -388 OFFCURVE",
"361 -495 OFFCURVE",
"600 -495 CURVE SMOOTH",
"872 -495 OFFCURVE",
"1050 -367 OFFCURVE",
"1050 -149 CURVE SMOOTH",
"1050 65 OFFCURVE",
"895 144 OFFCURVE",
"624 215 CURVE SMOOTH",
"263 317 OFFCURVE",
"175 379 OFFCURVE",
"175 553 CURVE SMOOTH",
"175 689 OFFCURVE",
"280 797 OFFCURVE",
"512 797 CURVE",
"512 830 LINE"
);
}
);
userData = {
com.typemytype.robofont.guides = (
{
angle = 0;
isGlobal = 0;
magnetic = 5;
x = 0;
y = 1658;
},
{
angle = 0;
isGlobal = 0;
magnetic = 5;
x = 0;
y = 578;
}
);
};
width = 1223;
},
{
layerId = "3F40CA7F-E6AC-489E-A736-3B62737B1DDA";
paths = (
{
closed = 1;
nodes = (
"986 151 OFFCURVE",
"1191 267 OFFCURVE",
"1191 500 CURVE SMOOTH",
"1191 738 OFFCURVE",
"1015 843 OFFCURVE",
"706 920 CURVE SMOOTH",
"486 977 OFFCURVE",
"437 1008 OFFCURVE",
"437 1092 CURVE SMOOTH",
"437 1161 OFFCURVE",
"497 1216 OFFCURVE",
"643 1216 CURVE SMOOTH",
"780 1216 OFFCURVE",
"849 1144 OFFCURVE",
"849 1051 CURVE",
"1171 1051 LINE",
"1171 1325 OFFCURVE",
"970 1476 OFFCURVE",
"643 1476 CURVE SMOOTH",
"322 1476 OFFCURVE",
"114 1324 OFFCURVE",
"114 1090 CURVE SMOOTH",
"114 832 OFFCURVE",
"297 738 OFFCURVE",
"598 652 CURVE SMOOTH",
"811 589 OFFCURVE",
"874 545 OFFCURVE",
"874 462 CURVE SMOOTH",
"874 367 OFFCURVE",
"799 301 OFFCURVE",
"671 301 CURVE",
"671 151 LINE"
);
},
{
closed = 1;
nodes = (
"293 878 OFFCURVE",
"94 754 OFFCURVE",
"94 528 CURVE SMOOTH",
"94 290 OFFCURVE",
"276 188 OFFCURVE",
"577 109 CURVE SMOOTH",
"789 51 OFFCURVE",
"849 12 OFFCURVE",
"849 -62 CURVE SMOOTH",
"849 -135 OFFCURVE",
"779 -176 OFFCURVE",
"645 -176 CURVE SMOOTH",
"532 -176 OFFCURVE",
"416 -153 OFFCURVE",
"416 -25 CURVE",
"94 -25 LINE",
"94 -344 OFFCURVE",
"370 -437 OFFCURVE",
"645 -437 CURVE SMOOTH",
"963 -437 OFFCURVE",
"1171 -305 OFFCURVE",
"1171 -61 CURVE SMOOTH",
"1171 198 OFFCURVE",
"996 294 OFFCURVE",
"685 376 CURVE SMOOTH",
"464 442 OFFCURVE",
"416 474 OFFCURVE",
"416 568 CURVE SMOOTH",
"416 659 OFFCURVE",
"470 725 OFFCURVE",
"598 725 CURVE",
"598 878 LINE"
);
}
);
userData = {
com.typemytype.robofont.guides = (
{
angle = 0;
isGlobal = 0;
magnetic = 5;
x = 0;
y = 1726;
},
{
angle = 0;
isGlobal = 0;
magnetic = 5;
x = 0;
y = 624;
},
{
angle = 90;
isGlobal = 0;
magnetic = 5;
x = 1219;
y = 0;
},
{
angle = 90;
isGlobal = 0;
magnetic = 5;
x = 162;
y = 0;
}
);
};
width = 1297;
}
);
unicode = 00A7;
}
{
glyphname = sterling;
layers = (
{
layerId = "7E29EDC2-3C1E-4E70-8272-9573F49A38C1";
paths = (
{
closed = 1;
nodes = (
"1136 166 LINE",
"95 166 LINE",
"95 0 LINE",
"1135 0 LINE"
);
},
{
closed = 1;
nodes = (
"767 785 LINE",
"91 785 LINE",
"91 619 LINE",
"767 619 LINE"
);
},
{
closed = 1;
nodes = (
"445 1213 OFFCURVE",
"547 1310 OFFCURVE",
"672 1310 CURVE SMOOTH",
"790 1310 OFFCURVE",
"900 1248 OFFCURVE",
"900 1087 CURVE",
"1107 1087 LINE",
"1107 1319 OFFCURVE",
"953 1476 OFFCURVE",
"690 1476 CURVE SMOOTH",
"431 1476 OFFCURVE",
"237 1315 OFFCURVE",
"237 1039 CURVE SMOOTH",
"259 407 LINE SMOOTH",
"259 321 OFFCURVE",
"236 183 OFFCURVE",
"167 166 CURVE",
"353 110 LINE",
"430 166 OFFCURVE",
"467 285 OFFCURVE",
"467 408 CURVE SMOOTH",
"445 1039 LINE"
);
}
);
userData = {
com.typemytype.robofont.mark = (
0.6,
0.609,
1,
1
);
};
width = 1195;
},
{
layerId = master01;
paths = (
{
closed = 1;
nodes = (
"1060 54 LINE",
"99 54 LINE",
"99 0 LINE",
"1061 0 LINE"
);
},
{
closed = 1;
nodes = (
"728 721 LINE",
"95 721 LINE",
"95 667 LINE",
"728 667 LINE"
);
},
{
closed = 1;
nodes = (
"349 1287 OFFCURVE",
"469 1422 OFFCURVE",
"661 1422 CURVE SMOOTH",
"836 1422 OFFCURVE",
"981 1325 OFFCURVE",
"981 1089 CURVE",
"1035 1089 LINE",
"1035 1317 OFFCURVE",
"902 1476 OFFCURVE",
"661 1476 CURVE SMOOTH",
"439 1476 OFFCURVE",
"295 1315 OFFCURVE",
"295 1039 CURVE SMOOTH",
"316 336 LINE SMOOTH",
"319 216 OFFCURVE",
"291 75 OFFCURVE",
"219 54 CURVE",
"280 30 LINE",
"343 84 OFFCURVE",
"374 186 OFFCURVE",
"370 336 CURVE SMOOTH",
"349 1039 LINE"
);
}
);
width = 1150;
},
{
layerId = "3F40CA7F-E6AC-489E-A736-3B62737B1DDA";
paths = (
{
closed = 1;
nodes = (
"1171 270 LINE",
"105 270 LINE",
"105 0 LINE",
"1171 0 LINE"
);
},
{
closed = 1;
nodes = (
"901 822 LINE",
"102 822 LINE",
"102 561 LINE",
"901 561 LINE"
);
},
{
closed = 1;
nodes = (
"584 1151 OFFCURVE",
"635 1205 OFFCURVE",
"710 1205 CURVE SMOOTH",
"790 1205 OFFCURVE",
"856 1167 OFFCURVE",
"856 1048 CURVE",
"1172 1048 LINE",
"1172 1304 OFFCURVE",
"1006 1475 OFFCURVE",
"704 1475 CURVE SMOOTH",
"430 1475 OFFCURVE",
"250 1315 OFFCURVE",
"250 1039 CURVE SMOOTH",
"269 426 LINE SMOOTH",
"269 352 OFFCURVE",
"265 285 OFFCURVE",
"205 270 CURVE",
"401 171 LINE",
"556 234 OFFCURVE",
"609 314 OFFCURVE",
"609 449 CURVE SMOOTH",
"584 1039 LINE"
);
}
);
userData = {
com.typemytype.robofont.mark = (
0.6,
0.609,
1,
1
);
};
width = 1226;
}
);
unicode = 00A3;
}
{
glyphname = thorn;
layers = (
{
layerId = "7E29EDC2-3C1E-4E70-8272-9573F49A38C1";
paths = (
{
closed = 1;
nodes = (
"147 1536 LINE",
"147 -416 LINE",
"347 -416 LINE",
"347 1536 LINE"
);
},
{
closed = 1;
nodes = (
"1071 879 OFFCURVE",
"921 1102 OFFCURVE",
"647 1102 CURVE SMOOTH",
"370 1102 OFFCURVE",
"229 901 OFFCURVE",
"199 572 CURVE",
"199 489 LINE",
"229 173 OFFCURVE",
"370 -20 OFFCURVE",
"650 -20 CURVE SMOOTH",
"919 -20 OFFCURVE",
"1071 214 OFFCURVE",
"1071 529 CURVE SMOOTH",
"1071 550 LINE"
);
},
{
closed = 1;
nodes = (
"871 320 OFFCURVE",
"784 140 OFFCURVE",
"588 140 CURVE SMOOTH",
"410 140 OFFCURVE",
"335 267 OFFCURVE",
"295 406 CURVE",
"295 655 LINE",
"325 803 OFFCURVE",
"410 937 OFFCURVE",
"586 937 CURVE SMOOTH",
"784 937 OFFCURVE",
"871 759 OFFCURVE",
"871 550 CURVE SMOOTH",
"871 529 LINE"
);
}
);
width = 1187;
},
{
layerId = master01;
paths = (
{
closed = 1;
nodes = (
"170 1536 LINE",
"170 -416 LINE",
"224 -416 LINE",
"224 1536 LINE"
);
},
{
closed = 1;
nodes = (
"999 893 OFFCURVE",
"848 1102 OFFCURVE",
"591 1102 CURVE SMOOTH",
"356 1102 OFFCURVE",
"217 948 OFFCURVE",
"170 745 CURVE",
"170 305 LINE",
"204 133 OFFCURVE",
"349 -20 OFFCURVE",
"593 -20 CURVE SMOOTH",
"849 -20 OFFCURVE",
"999 201 OFFCURVE",
"999 531 CURVE SMOOTH",
"999 552 LINE"
);
},
{
closed = 1;
nodes = (
"944 243 OFFCURVE",
"830 34 OFFCURVE",
"594 34 CURVE SMOOTH",
"367 34 OFFCURVE",
"242 166 OFFCURVE",
"206 330 CURVE",
"206 709 LINE",
"235 843 OFFCURVE",
"320 1048 OFFCURVE",
"592 1048 CURVE SMOOTH",
"830 1048 OFFCURVE",
"944 839 OFFCURVE",
"944 552 CURVE SMOOTH",
"944 531 LINE"
);
}
);
width = 1121;
},
{
layerId = "3F40CA7F-E6AC-489E-A736-3B62737B1DDA";
paths = (
{
closed = 1;
nodes = (
"101 1536 LINE",
"101 -416 LINE",
"424 -416 LINE",
"424 1536 LINE"
);
},
{
closed = 1;
nodes = (
"1094 883 OFFCURVE",
"947 1102 OFFCURVE",
"672 1102 CURVE SMOOTH",
"411 1102 OFFCURVE",
"305 863 OFFCURVE",
"263 550 CURVE",
"263 523 LINE",
"305 231 OFFCURVE",
"411 -20 OFFCURVE",
"674 -20 CURVE SMOOTH",
"947 -20 OFFCURVE",
"1094 218 OFFCURVE",
"1094 533 CURVE SMOOTH",
"1094 554 LINE"
);
},
{
closed = 1;
nodes = (
"772 371 OFFCURVE",
"728 240 OFFCURVE",
"593 240 CURVE SMOOTH",
"444 240 OFFCURVE",
"393 343 OFFCURVE",
"393 495 CURVE SMOOTH",
"393 577 LINE SMOOTH",
"393 753 OFFCURVE",
"444 842 OFFCURVE",
"591 842 CURVE SMOOTH",
"724 842 OFFCURVE",
"772 722 OFFCURVE",
"772 554 CURVE SMOOTH",
"772 533 LINE"
);
}
);
userData = {
com.typemytype.robofont.mark = (
0.939,
1,
0.6,
1
);
};
width = 1153;
}
);
rightKerningGroup = b;
unicode = 00FE;
}
{
glyphname = yen;
layers = (
{
layerId = "7E29EDC2-3C1E-4E70-8272-9573F49A38C1";
paths = (
{
closed = 1;
nodes = (
"122 742 LINE",
"122 611 LINE",
"957 611 LINE",
"957 742 LINE"
);
},
{
closed = 1;
nodes = (
"122 452 LINE",
"122 322 LINE",
"957 322 LINE",
"957 452 LINE"
);
},
{
closed = 1;
nodes = (
"505 602 LINE",
"636 602 LINE",
"1067 1456 LINE",
"837 1456 LINE",
"473 660 LINE"
);
},
{
closed = 1;
nodes = (
"13 1456 LINE",
"445 602 LINE",
"575 602 LINE",
"614 652 LINE",
"247 1456 LINE"
);
},
{
closed = 1;
nodes = (
"432 782 LINE",
"432 0 LINE",
"640 0 LINE",
"640 782 LINE"
);
}
);
userData = {
com.typemytype.robofont.mark = (
0.798,
1,
0.6,
1
);
};
width = 1080;
},
{
layerId = master01;
paths = (
{
closed = 1;
nodes = (
"99 676 LINE",
"99 621 LINE",
"935 621 LINE",
"935 676 LINE"
);
},
{
closed = 1;
nodes = (
"99 381 LINE",
"99 326 LINE",
"935 326 LINE",
"935 381 LINE"
);
},
{
closed = 1;
nodes = (
"492 629 LINE",
"542 629 LINE",
"1000 1456 LINE",
"938 1456 LINE",
"547 738 LINE"
);
},
{
closed = 1;
nodes = (
"33 1456 LINE",
"490 629 LINE",
"541 629 LINE",
"487 738 LINE",
"95 1456 LINE"
);
},
{
closed = 1;
nodes = (
"489 687 LINE",
"489 0 LINE",
"543 0 LINE",
"543 687 LINE"
);
}
);
userData = {
com.typemytype.robofont.mark = (
0.798,
1,
0.6,
1
);
};
width = 1038;
},
{
layerId = "3F40CA7F-E6AC-489E-A736-3B62737B1DDA";
paths = (
{
closed = 1;
nodes = (
"78 742 LINE",
"78 552 LINE",
"993 552 LINE",
"993 742 LINE"
);
},
{
closed = 1;
nodes = (
"78 452 LINE",
"78 263 LINE",
"993 263 LINE",
"993 452 LINE"
);
},
{
closed = 1;
nodes = (
"519 540 LINE",
"699 540 LINE",
"1095 1456 LINE",
"752 1456 LINE",
"480 729 LINE"
);
},
{
closed = 1;
nodes = (
"10 1456 LINE",
"408 540 LINE",
"588 540 LINE",
"631 720 LINE",
"354 1456 LINE"
);
},
{
closed = 1;
nodes = (
"382 752 LINE",
"382 0 LINE",
"716 0 LINE",
"716 752 LINE"
);
}
);
userData = {
com.typemytype.robofont.mark = (
0.798,
1,
0.6,
1
);
};
width = 1105;
}
);
unicode = 00A5;
}
{
glyphname = AEModifier;
layers = (
{
layerId = "7E29EDC2-3C1E-4E70-8272-9573F49A38C1";
paths = (
{
closed = 1;
nodes = (
"778 1728 LINE",
"654 1728 LINE",
"20 651 LINE",
"243 651 LINE",
"767 1602 LINE"
);
},
{
closed = 1;
nodes = (
"325 1058 LINE",
"325 905 LINE",
"882 905 LINE",
"882 1058 LINE"
);
},
{
closed = 1;
nodes = (
"906 804 LINE",
"906 651 LINE",
"1448 651 LINE",
"1448 804 LINE"
);
},
{
closed = 1;
nodes = (
"739 1728 LINE",
"784 651 LINE",
"972 651 LINE",
"927 1728 LINE"
);
},
{
closed = 1;
nodes = (
"876 1285 LINE",
"876 1133 LINE",
"1343 1133 LINE",
"1343 1285 LINE"
);
},
{
closed = 1;
nodes = (
"861 1728 LINE",
"861 1574 LINE",
"1402 1574 LINE",
"1402 1728 LINE"
);
}
);
userData = {
com.typemytype.robofont.mark = (
0.939,
1,
0.6,
1
);
};
width = 1488;
},
{
layerId = master01;
paths = (
{
closed = 1;
nodes = (
"740 1728 LINE",
"692 1728 LINE",
"40 651 LINE",
"103 651 LINE",
"683 1612 LINE"
);
},
{
closed = 1;
nodes = (
"265 1005 LINE",
"265 951 LINE",
"745 951 LINE",
"745 1005 LINE"
);
},
{
closed = 1;
nodes = (
"769 705 LINE",
"769 651 LINE",
"1311 651 LINE",
"1311 705 LINE"
);
},
{
closed = 1;
nodes = (
"710 1728 LINE",
"755 651 LINE",
"809 651 LINE",
"764 1728 LINE"
);
},
{
closed = 1;
nodes = (
"739 1237 LINE",
"739 1183 LINE",
"1205 1183 LINE",
"1205 1237 LINE"
);
},
{
closed = 1;
nodes = (
"724 1728 LINE",
"724 1674 LINE",
"1266 1674 LINE",
"1266 1728 LINE"
);
}
);
userData = {
com.typemytype.robofont.mark = (
0.967,
0.6,
1,
1
);
};
width = 1351;
},
{
layerId = "3F40CA7F-E6AC-489E-A736-3B62737B1DDA";
paths = (
{
closed = 1;
nodes = (
"719 1732 LINE",
"596 1732 LINE",
"40 655 LINE",
"290 655 LINE",
"746 1616 LINE"
);
},
{
closed = 1;
nodes = (
"295 1098 LINE",
"295 898 LINE",
"796 898 LINE",
"796 1098 LINE"
);
},
{
closed = 1;
nodes = (
"821 850 LINE",
"821 655 LINE",
"1363 655 LINE",
"1363 850 LINE"
);
},
{
closed = 1;
nodes = (
"669 1732 LINE",
"714 655 LINE",
"937 655 LINE",
"892 1732 LINE"
);
},
{
closed = 1;
nodes = (
"791 1303 LINE",
"791 1108 LINE",
"1257 1108 LINE",
"1257 1303 LINE"
);
},
{
closed = 1;
nodes = (
"776 1732 LINE",
"776 1537 LINE",
"1317 1537 LINE",
"1317 1732 LINE"
);
}
);
userData = {
com.typemytype.robofont.mark = (
0.939,
1,
0.6,
1
);
};
width = 1403;
}
);
unicode = 1D2D;
}
{
glyphname = AEsmall;
layers = (
{
anchors = (
{
name = bottom;
position = "{899, 0}";
},
{
name = top;
position = "{899, 1290}";
},
{
name = top0315;
position = "{1598, 1290}";
}
);
layerId = "7E29EDC2-3C1E-4E70-8272-9573F49A38C1";
paths = (
{
closed = 1;
nodes = (
"969 158 LINE",
"969 0 LINE",
"1526 0 LINE",
"1526 158 LINE {name = hr00;}"
);
},
{
closed = 1;
nodes = (
"939 645 LINE",
"939 487 LINE",
"1419 487 LINE",
"1419 645 LINE"
);
},
{
closed = 1;
nodes = (
"924 1082 LINE",
"924 924 LINE",
"1480 924 LINE",
"1480 1082 LINE"
);
},
{
closed = 1;
nodes = (
"790 1082 LINE",
"665 1082 LINE",
"8 0 LINE",
"221 0 LINE",
"779 964 LINE"
);
},
{
closed = 1;
nodes = (
"333 414 LINE",
"333 255 LINE",
"945 255 LINE",
"945 414 LINE"
);
},
{
closed = 1;
nodes = (
"751 1082 LINE",
"796 0 LINE",
"995 0 LINE",
"950 1082 LINE"
);
}
);
userData = {
com.typemytype.robofont.mark = (
0.939,
1,
0.6,
1
);
};
width = 1598;
},
{
anchors = (
{
name = bottom;
position = "{866, 0}";
},
{
name = top;
position = "{866, 1290}";
},
{
name = top0315;
position = "{1553, 1290}";
}
);
layerId = master01;
paths = (
{
closed = 1;
nodes = (
"739 54 LINE",
"739 0 LINE",
"1485 0 LINE",
"1485 54 LINE"
);
},
{
closed = 1;
nodes = (
"739 590 LINE",
"739 536 LINE",
"1398 536 LINE",
"1398 590 LINE"
);
},
{
closed = 1;
nodes = (
"739 1082 LINE",
"739 1028 LINE",
"1485 1028 LINE",
"1485 1082 LINE"
);
},
{
closed = 1;
nodes = (
"743 1082 LINE",
"696 1082 LINE",
"20 0 LINE",
"83 0 LINE",
"728 1042 LINE"
);
},
{
closed = 1;
nodes = (
"255 360 LINE",
"255 306 LINE",
"747 306 LINE",
"747 360 LINE"
);
},
{
closed = 1;
nodes = (
"715 1082 LINE",
"715 0 LINE",
"769 0 LINE",
"769 1082 LINE"
);
}
);
userData = {
com.typemytype.robofont.mark = (
0.939,
1,
0.6,
1
);
};
width = 1553;
},
{
anchors = (
{
name = bottom;
position = "{839, 0}";
},
{
name = top;
position = "{839, 1290}";
},
{
name = top0315;
position = "{1623, 1290}";
}
);
layerId = "3F40CA7F-E6AC-489E-A736-3B62737B1DDA";
paths = (
{
closed = 1;
nodes = (
"840 258 LINE",
"840 0 LINE",
"1565 0 LINE",
"1565 258 LINE {name = hr00;}"
);
},
{
closed = 1;
nodes = (
"809 691 LINE",
"809 432 LINE",
"1459 432 LINE",
"1459 691 LINE"
);
},
{
closed = 1;
nodes = (
"794 1082 LINE",
"794 824 LINE",
"1519 824 LINE",
"1519 1082 LINE"
);
},
{
closed = 1;
nodes = (
"722 1082 LINE",
"499 1082 LINE",
"-60 0 LINE",
"290 0 LINE",
"750 964 LINE"
);
},
{
closed = 1;
nodes = (
"270 410 LINE",
"270 156 LINE",
"945 156 LINE",
"945 410 LINE"
);
},
{
closed = 1;
nodes = (
"672 1082 LINE",
"717 0 LINE",
"1037 0 LINE",
"991 1082 LINE"
);
}
);
userData = {
com.typemytype.robofont.mark = (
0.939,
1,
0.6,
1
);
};
width = 1623;
}
);
unicode = 1D01;
}
{
glyphname = Amod;
layers = (
{
layerId = "7E29EDC2-3C1E-4E70-8272-9573F49A38C1";
paths = (
{
closed = 1;
nodes = (
"561 1728 LINE",
"447 1728 LINE",
"20 651 LINE",
"221 651 LINE",
"563 1594 LINE"
);
},
{
closed = 1;
nodes = (
"1034 651 LINE",
"614 1728 LINE",
"501 1728 LINE",
"496 1600 LINE",
"833 651 LINE"
);
},
{
closed = 1;
nodes = (
"229 1053 LINE",
"229 900 LINE",
"845 900 LINE",
"845 1053 LINE"
);
}
);
userData = {
com.typemytype.robofont.mark = (
0.939,
1,
0.6,
1
);
};
width = 1054;
},
{
layerId = master01;
paths = (
{
closed = 1;
nodes = (
"488 1728 LINE",
"443 1728 LINE",
"40 651 LINE",
"97 651 LINE",
"458 1620 LINE"
);
},
{
closed = 1;
nodes = (
"895 651 LINE",
"491 1728 LINE",
"447 1728 LINE",
"478 1620 LINE",
"838 651 LINE"
);
},
{
closed = 1;
nodes = (
"201 1023 LINE",
"201 969 LINE",
"734 969 LINE",
"734 1023 LINE"
);
}
);
userData = {
com.typemytype.robofont.mark = (
0.967,
0.6,
1,
1
);
};
width = 935;
},
{
layerId = "3F40CA7F-E6AC-489E-A736-3B62737B1DDA";
paths = (
{
closed = 1;
nodes = (
"601 1732 LINE",
"440 1732 LINE",
"40 655 LINE",
"280 655 LINE",
"559 1489 LINE"
);
},
{
closed = 1;
nodes = (
"1063 655 LINE",
"663 1732 LINE",
"499 1732 LINE",
"540 1490 LINE",
"823 655 LINE"
);
},
{
closed = 1;
nodes = (
"233 1057 LINE",
"233 864 LINE",
"798 864 LINE",
"798 1057 LINE"
);
}
);
userData = {
com.typemytype.robofont.mark = (
0.939,
1,
0.6,
1
);
};
width = 1103;
}
);
unicode = 1D2C;
}
{
glyphname = Asmall;
layers = (
{
anchors = (
{
name = bottom;
position = "{570, 0}";
},
{
name = top;
position = "{570, 1290}";
},
{
name = top0315;
position = "{1141, 1290}";
}
);
layerId = "7E29EDC2-3C1E-4E70-8272-9573F49A38C1";
paths = (
{
closed = 1;
nodes = (
"596 1082 LINE",
"477 1082 LINE",
"8 0 LINE",
"215 0 LINE",
"619 969 LINE"
);
},
{
closed = 1;
nodes = (
"1133 0 LINE",
"665 1082 LINE",
"544 1082 LINE",
"519 976 LINE",
"927 0 LINE"
);
},
{
closed = 1;
nodes = (
"200 414 LINE",
"200 255 LINE",
"895 255 LINE",
"895 414 LINE"
);
}
);
userData = {
com.typemytype.robofont.mark = (
0.939,
1,
0.6,
1
);
};
width = 1141;
},
{
anchors = (
{
name = bottom;
position = "{526, 0}";
},
{
name = top;
position = "{526, 1290}";
},
{
name = top0315;
position = "{1050, 1290}";
}
);
layerId = master01;
paths = (
{
closed = 1;
nodes = (
"543 1082 LINE",
"496 1082 LINE",
"20 0 LINE",
"78 0 LINE",
"504 969 LINE"
);
},
{
closed = 1;
nodes = (
"1030 0 LINE",
"556 1082 LINE",
"508 1082 LINE",
"547 971 LINE",
"972 0 LINE"
);
},
{
closed = 1;
nodes = (
"195 360 LINE",
"195 306 LINE",
"847 306 LINE",
"847 360 LINE"
);
}
);
userData = {
com.typemytype.robofont.mark = (
0.939,
1,
0.6,
1
);
};
width = 1050;
},
{
anchors = (
{
name = bottom;
position = "{631, 0}";
},
{
name = top;
position = "{631, 1290}";
},
{
name = top0315;
position = "{1264, 1290}";
}
);
layerId = "3F40CA7F-E6AC-489E-A736-3B62737B1DDA";
paths = (
{
closed = 1;
nodes = (
"703 1082 LINE",
"453 1082 LINE",
"8 0 LINE",
"350 0 LINE",
"729 1009 LINE {name = hr00;}"
);
},
{
closed = 1;
nodes = (
"1256 0 LINE",
"812 1082 LINE",
"582 1082 LINE",
"531 1016 LINE",
"915 0 LINE"
);
},
{
closed = 1;
nodes = (
"270 401 LINE",
"270 156 LINE",
"945 156 LINE",
"945 401 LINE"
);
}
);
userData = {
com.typemytype.robofont.mark = (
0.939,
1,
0.6,
1
);
};
width = 1264;
}
);
unicode = 1D00;
}
{
glyphname = BBarredmod;
layers = (
{
components = (
{
name = Bmod;
transform = "{1, 0, 0, 1, 120, 0}";
}
);
layerId = "7E29EDC2-3C1E-4E70-8272-9573F49A38C1";
paths = (
{
closed = 1;
nodes = (
"20 1285 LINE",
"20 1132 LINE",
"1135 1132 LINE",
"1135 1285 LINE"
);
}
);
userData = {
com.typemytype.robofont.mark = (
0.939,
1,
0.6,
1
);
};
width = 1165;
},
{
components = (
{
name = Bmod;
transform = "{1, 0, 0, 1, 120, 0}";
}
);
layerId = master01;
paths = (
{
closed = 1;
nodes = (
"40 1230 LINE",
"40 1176 LINE",
"1028 1176 LINE",
"1028 1230 LINE"
);
}
);
userData = {
com.typemytype.robofont.mark = (
0.967,
0.6,
1,
1
);
};
width = 1068;
},
{
components = (
{
name = Bmod;
transform = "{1, 0, 0, 1, 164, 0}";
}
);
layerId = "3F40CA7F-E6AC-489E-A736-3B62737B1DDA";
paths = (
{
closed = 1;
nodes = (
"40 1283 LINE",
"40 1117 LINE",
"1205 1117 LINE",
"1205 1283 LINE"
);
}
);
userData = {
com.typemytype.robofont.mark = (
0.939,
1,
0.6,
1
);
};
width = 1245;
}
);
unicode = 1D2F;
}
{
glyphname = BbarredSmall;
layers = (
{
anchors = (
{
name = bottom;
position = "{611, 0}";
},
{
name = top;
position = "{611, 1290}";
},
{
name = top0315;
position = "{1277, 1290}";
}
);
components = (
{
name = "ve-cy";
transform = "{1, 0, 0, 1, 65, 0}";
}
);
layerId = "7E29EDC2-3C1E-4E70-8272-9573F49A38C1";
paths = (
{
closed = 1;
nodes = (
"20 628 LINE",
"20 472 LINE",
"262 472 LINE",
"262 628 LINE {name = hr00;}"
);
},
{
closed = 1;
nodes = (
"900 628 LINE",
"900 472 LINE",
"1242 472 LINE",
"1242 628 LINE"
);
}
);
userData = {
com.typemytype.robofont.mark = (
0.939,
1,
0.6,
1
);
};
width = 1277;
},
{
anchors = (
{
name = bottom;
position = "{629, 0}";
},
{
name = top;
position = "{629, 1290}";
},
{
name = top0315;
position = "{1156, 1290}";
}
);
components = (
{
name = "ve-cy";
transform = "{1, 0, 0, 1, 59, 0}";
}
);
layerId = master01;
paths = (
{
closed = 1;
nodes = (
"40 575 LINE",
"40 521 LINE",
"256 521 LINE",
"256 575 LINE"
);
},
{
closed = 1;
nodes = (
"774 575 LINE",
"774 521 LINE",
"1116 521 LINE",
"1116 575 LINE"
);
}
);
userData = {
com.typemytype.robofont.mark = (
0.939,
1,
0.6,
1
);
};
width = 1156;
},
{
anchors = (
{
name = bottom;
position = "{652, 0}";
},
{
name = top;
position = "{652, 1290}";
},
{
name = top0315;
position = "{1352, 1290}";
}
);
components = (
{
name = "ve-cy";
transform = "{1, 0, 0, 1, 83, 0}";
}
);
layerId = "3F40CA7F-E6AC-489E-A736-3B62737B1DDA";
paths = (
{
closed = 1;
nodes = (
"40 649 LINE",
"40 441 LINE",
"282 441 LINE",
"282 649 LINE"
);
},
{
closed = 1;
nodes = (
"920 649 LINE",
"920 441 LINE",
"1312 441 LINE",
"1312 649 LINE"
);
}
);
userData = {
com.typemytype.robofont.mark = (
0.939,
1,
0.6,
1
);
};
width = 1352;
}
);
unicode = 1D03;
}
{
glyphname = Bmod;
layers = (
{
layerId = "7E29EDC2-3C1E-4E70-8272-9573F49A38C1";
paths = (
{
closed = 1;
nodes = (
"596 1190 LINE",
"758 1210 OFFCURVE",
"871 1303 OFFCURVE",
"871 1436 CURVE SMOOTH",
"871 1637 OFFCURVE",
"729 1728 OFFCURVE",
"511 1728 CURVE SMOOTH",
"100 1728 LINE",
"100 651 LINE",
"283 651 LINE",
"283 1573 LINE",
"476 1573 LINE SMOOTH",
"611 1573 OFFCURVE",
"688 1547 OFFCURVE",
"688 1439 CURVE SMOOTH",
"688 1333 OFFCURVE",
"606 1285 OFFCURVE",
"492 1285 CURVE SMOOTH",
"251 1285 LINE",
"253 1132 LINE",
"513 1132 LINE"
);
},
{
closed = 1;
nodes = (
"756 651 OFFCURVE",
"898 754 OFFCURVE",
"898 964 CURVE SMOOTH",
"898 1096 OFFCURVE",
"811 1216 OFFCURVE",
"657 1231 CURVE",
"590 1273 LINE",
"313 1285 LINE",
"312 1132 LINE",
"513 1132 LINE SMOOTH",
"655 1132 OFFCURVE",
"715 1076 OFFCURVE",
"715 972 CURVE SMOOTH",
"715 856 OFFCURVE",
"638 804 OFFCURVE",
"507 804 CURVE SMOOTH",
"279 804 LINE",
"155 651 LINE",
"542 651 LINE"
);
}
);
userData = {
com.typemytype.robofont.mark = (
0.939,
1,
0.6,
1
);
};
width = 978;
},
{
layerId = master01;
paths = (
{
closed = 1;
nodes = (
"542 1205 LINE",
"680 1219 OFFCURVE",
"756 1319 OFFCURVE",
"756 1452 CURVE SMOOTH",
"756 1643 OFFCURVE",
"621 1728 OFFCURVE",
"403 1728 CURVE SMOOTH",
"120 1728 LINE",
"120 651 LINE",
"174 651 LINE",
"174 1674 LINE",
"403 1674 LINE SMOOTH",
"608 1674 OFFCURVE",
"702 1607 OFFCURVE",
"702 1452 CURVE SMOOTH",
"702 1295 OFFCURVE",
"614 1230 OFFCURVE",
"418 1230 CURVE SMOOTH",
"143 1230 LINE",
"144 1176 LINE",
"479 1176 LINE"
);
},
{
closed = 1;
nodes = (
"668 651 OFFCURVE",
"804 756 OFFCURVE",
"804 948 CURVE SMOOTH",
"804 1079 OFFCURVE",
"700 1193 OFFCURVE",
"564 1209 CURVE",
"561 1230 LINE",
"306 1230 LINE",
"304 1176 LINE",
"479 1176 LINE SMOOTH",
"670 1176 OFFCURVE",
"750 1062 OFFCURVE",
"750 948 CURVE SMOOTH",
"750 788 OFFCURVE",
"653 705 OFFCURVE",
"471 705 CURVE SMOOTH",
"170 705 LINE",
"143 651 LINE",
"471 651 LINE"
);
}
);
userData = {
com.typemytype.robofont.mark = (
0.967,
0.6,
1,
1
);
};
width = 864;
},
{
layerId = "3F40CA7F-E6AC-489E-A736-3B62737B1DDA";
paths = (
{
closed = 1;
nodes = (
"597 1182 LINE",
"810 1186 OFFCURVE",
"893 1304 OFFCURVE",
"893 1436 CURVE SMOOTH",
"893 1638 OFFCURVE",
"739 1732 OFFCURVE",
"482 1732 CURVE SMOOTH",
"100 1732 LINE",
"100 655 LINE",
"323 655 LINE",
"323 1540 LINE",
"482 1540 LINE SMOOTH",
"601 1540 OFFCURVE",
"669 1502 OFFCURVE",
"669 1408 CURVE SMOOTH",
"669 1326 OFFCURVE",
"601 1283 OFFCURVE",
"482 1283 CURVE SMOOTH",
"252 1283 LINE",
"254 1117 LINE",
"529 1117 LINE"
);
},
{
closed = 1;
nodes = (
"776 655 OFFCURVE",
"915 763 OFFCURVE",
"915 974 CURVE SMOOTH",
"915 1099 OFFCURVE",
"840 1224 OFFCURVE",
"635 1217 CURVE",
"580 1283 LINE",
"315 1283 LINE",
"313 1117 LINE",
"529 1117 LINE SMOOTH",
"636 1117 OFFCURVE",
"692 1063 OFFCURVE",
"692 977 CURVE SMOOTH",
"692 904 OFFCURVE",
"630 847 OFFCURVE",
"520 847 CURVE SMOOTH",
"280 847 LINE",
"191 655 LINE",
"520 655 LINE"
);
}
);
userData = {
com.typemytype.robofont.mark = (
0.939,
1,
0.6,
1
);
};
width = 975;
}
);
unicode = 1D2E;
}
{
glyphname = Csmall;
layers = (
{
anchors = (
{
name = bottom;
position = "{576, 0}";
},
{
name = top;
position = "{576, 1290}";
},
{
name = top0315;
position = "{1110, 1290}";
}
);
layerId = "7E29EDC2-3C1E-4E70-8272-9573F49A38C1";
paths = (
{
closed = 1;
nodes = (
"824 223 OFFCURVE",
"740 141 OFFCURVE",
"577 141 CURVE SMOOTH",
"415 141 OFFCURVE",
"292 288 OFFCURVE",
"292 491 CURVE SMOOTH",
"292 595 LINE SMOOTH",
"292 798 OFFCURVE",
"415 943 OFFCURVE",
"577 943 CURVE SMOOTH",
"741 943 OFFCURVE",
"825 862 OFFCURVE",
"845 684 CURVE",
"1046 684 LINE",
"1026 962 OFFCURVE",
"851 1101 OFFCURVE",
"577 1101 CURVE SMOOTH",
"306 1101 OFFCURVE",
"92 901 OFFCURVE",
"92 594 CURVE SMOOTH",
"92 491 LINE SMOOTH",
"92 184 OFFCURVE",
"306 -17 OFFCURVE",
"577 -17 CURVE SMOOTH",
"839 -17 OFFCURVE",
"1025 122 OFFCURVE",
"1045 403 CURVE",
"844 403 LINE"
);
}
);
userData = {
com.typemytype.robofont.mark = (
0.939,
1,
0.6,
1
);
};
width = 1110;
},
{
anchors = (
{
name = bottom;
position = "{539, 0}";
},
{
name = top;
position = "{539, 1290}";
},
{
name = top0315;
position = "{1070, 1290}";
}
);
layerId = master01;
paths = (
{
closed = 1;
nodes = (
"917 136 OFFCURVE",
"781 38 OFFCURVE",
"541 38 CURVE SMOOTH",
"300 38 OFFCURVE",
"151 207 OFFCURVE",
"151 461 CURVE SMOOTH",
"151 625 LINE SMOOTH",
"151 878 OFFCURVE",
"300 1047 OFFCURVE",
"541 1047 CURVE SMOOTH",
"784 1047 OFFCURVE",
"917 938 OFFCURVE",
"917 727 CURVE",
"971 727 LINE",
"971 977 OFFCURVE",
"805 1101 OFFCURVE",
"541 1101 CURVE SMOOTH",
"265 1101 OFFCURVE",
"97 907 OFFCURVE",
"97 624 CURVE SMOOTH",
"97 461 LINE SMOOTH",
"97 178 OFFCURVE",
"265 -17 OFFCURVE",
"541 -17 CURVE SMOOTH",
"805 -17 OFFCURVE",
"971 108 OFFCURVE",
"971 359 CURVE",
"917 359 LINE"
);
}
);
userData = {
com.typemytype.robofont.mark = (
0.939,
1,
0.6,
1
);
};
width = 1070;
},
{
anchors = (
{
name = bottom;
position = "{566, 0}";
},
{
name = top;
position = "{566, 1290}";
},
{
name = top0315;
position = "{1108, 1290}";
}
);
layerId = "3F40CA7F-E6AC-489E-A736-3B62737B1DDA";
paths = (
{
closed = 1;
nodes = (
"714 288 OFFCURVE",
"690 241 OFFCURVE",
"566 241 CURVE SMOOTH",
"436 241 OFFCURVE",
"379 333 OFFCURVE",
"379 461 CURVE SMOOTH",
"379 627 LINE SMOOTH",
"379 756 OFFCURVE",
"436 846 OFFCURVE",
"566 846 CURVE SMOOTH",
"676 846 OFFCURVE",
"717 791 OFFCURVE",
"737 683 CURVE",
"1058 683 LINE",
"1038 964 OFFCURVE",
"858 1103 OFFCURVE",
"566 1103 CURVE SMOOTH",
"256 1103 OFFCURVE",
"57 909 OFFCURVE",
"57 626 CURVE SMOOTH",
"57 461 LINE SMOOTH",
"57 178 OFFCURVE",
"256 -17 OFFCURVE",
"566 -17 CURVE SMOOTH",
"858 -17 OFFCURVE",
"1036 123 OFFCURVE",
"1056 406 CURVE",
"734 406 LINE"
);
}
);
userData = {
com.typemytype.robofont.mark = (
0.939,
1,
0.6,
1
);
};
width = 1108;
}
);
unicode = 1D04;
}
{
glyphname = Dmod;
layers = (
{
layerId = "7E29EDC2-3C1E-4E70-8272-9573F49A38C1";
paths = (
{
closed = 1;
nodes = (
"765 651 OFFCURVE",
"944 845 OFFCURVE",
"944 1160 CURVE SMOOTH",
"944 1219 LINE SMOOTH",
"944 1535 OFFCURVE",
"762 1728 OFFCURVE",
"466 1728 CURVE SMOOTH",
"196 1728 LINE",
"196 1575 LINE",
"466 1575 LINE SMOOTH",
"651 1575 OFFCURVE",
"761 1470 OFFCURVE",
"761 1221 CURVE SMOOTH",
"761 1160 LINE SMOOTH",
"761 924 OFFCURVE",
"655 804 OFFCURVE",
"451 804 CURVE SMOOTH",
"202 804 LINE",
"201 651 LINE",
"451 651 LINE"
);
},
{
closed = 1;
nodes = (
"100 1728 LINE",
"100 651 LINE",
"282 651 LINE",
"282 1728 LINE"
);
}
);
userData = {
com.typemytype.robofont.mark = (
0.939,
1,
0.6,
1
);
};
width = 1004;
},
{
layerId = master01;
paths = (
{
closed = 1;
nodes = (
"673 651 OFFCURVE",
"863 843 OFFCURVE",
"863 1124 CURVE SMOOTH",
"863 1256 LINE SMOOTH",
"863 1536 OFFCURVE",
"673 1728 OFFCURVE",
"418 1728 CURVE SMOOTH",
"165 1728 LINE",
"165 1674 LINE",
"418 1674 LINE SMOOTH",
"650 1674 OFFCURVE",
"809 1509 OFFCURVE",
"809 1258 CURVE SMOOTH",
"809 1124 LINE SMOOTH",
"809 871 OFFCURVE",
"650 705 OFFCURVE",
"418 705 CURVE SMOOTH",
"171 705 LINE",
"170 651 LINE",
"418 651 LINE"
);
},
{
closed = 1;
nodes = (
"120 1728 LINE",
"120 651 LINE",
"174 651 LINE",
"174 1728 LINE"
);
}
);
userData = {
com.typemytype.robofont.mark = (
0.967,
0.6,
1,
1
);
};
width = 923;
},
{
layerId = "3F40CA7F-E6AC-489E-A736-3B62737B1DDA";
paths = (
{
closed = 1;
nodes = (
"714 655 OFFCURVE",
"918 864 OFFCURVE",
"918 1171 CURVE SMOOTH",
"918 1217 LINE SMOOTH",
"918 1523 OFFCURVE",
"714 1732 OFFCURVE",
"422 1732 CURVE SMOOTH",
"182 1732 LINE",
"182 1540 LINE",
"422 1540 LINE SMOOTH",
"606 1540 OFFCURVE",
"695 1429 OFFCURVE",
"695 1218 CURVE SMOOTH",
"695 1171 LINE SMOOTH",
"695 960 OFFCURVE",
"606 847 OFFCURVE",
"422 847 CURVE SMOOTH",
"188 847 LINE",
"187 655 LINE",
"422 655 LINE"
);
},
{
closed = 1;
nodes = (
"100 1732 LINE",
"100 655 LINE",
"323 655 LINE",
"323 1732 LINE"
);
}
);
userData = {
com.typemytype.robofont.mark = (
0.939,
1,
0.6,
1
);
};
width = 978;
}
);
unicode = 1D30;
}
{
glyphname = Dsmall;
layers = (
{
anchors = (
{
name = bottom;
position = "{583, 0}";
},
{
name = top;
position = "{583, 1290}";
},
{
name = top0315;
position = "{1169, 1290}";
}
);
layerId = "7E29EDC2-3C1E-4E70-8272-9573F49A38C1";
paths = (
{
closed = 1;
nodes = (
"855 0 OFFCURVE",
"1077 194 OFFCURVE",
"1077 477 CURVE SMOOTH",
"1077 604 LINE SMOOTH",
"1077 887 OFFCURVE",
"855 1082 OFFCURVE",
"577 1082 CURVE SMOOTH",
"239 1082 LINE",
"239 924 LINE",
"577 924 LINE SMOOTH",
"744 924 OFFCURVE",
"877 786 OFFCURVE",
"877 605 CURVE SMOOTH",
"877 477 LINE SMOOTH",
"877 296 OFFCURVE",
"744 158 OFFCURVE",
"577 158 CURVE SMOOTH",
"245 158 LINE",
"244 0 LINE",
"577 0 LINE"
);
},
{
closed = 1;
nodes = (
"155 1082 LINE",
"155 0 LINE",
"355 0 LINE",
"355 1082 LINE"
);
}
);
userData = {
com.typemytype.robofont.mark = (
0.939,
1,
0.6,
1
);
};
width = 1169;
},
{
anchors = (
{
name = bottom;
position = "{549, 0}";
},
{
name = top;
position = "{549, 1290}";
},
{
name = top0315;
position = "{1099, 1290}";
}
);
layerId = master01;
paths = (
{
closed = 1;
nodes = (
"800 0 OFFCURVE",
"1009 194 OFFCURVE",
"1009 477 CURVE SMOOTH",
"1009 604 LINE SMOOTH",
"1009 887 OFFCURVE",
"800 1082 OFFCURVE",
"548 1082 CURVE SMOOTH",
"209 1082 LINE",
"209 1028 LINE",
"548 1028 LINE SMOOTH",
"770 1028 OFFCURVE",
"955 852 OFFCURVE",
"955 605 CURVE SMOOTH",
"955 477 LINE SMOOTH",
"955 230 OFFCURVE",
"770 54 OFFCURVE",
"548 54 CURVE SMOOTH",
"216 54 LINE",
"214 0 LINE",
"548 0 LINE"
);
},
{
closed = 1;
nodes = (
"172 1082 LINE",
"172 0 LINE",
"226 0 LINE",
"226 1082 LINE"
);
}
);
userData = {
com.typemytype.robofont.mark = (
0.939,
1,
0.6,
1
);
};
width = 1099;
},
{
anchors = (
{
name = bottom;
position = "{575, 0}";
},
{
name = top;
position = "{575, 1290}";
},
{
name = top0315;
position = "{1148, 1290}";
}
);
layerId = "3F40CA7F-E6AC-489E-A736-3B62737B1DDA";
paths = (
{
closed = 1;
nodes = (
"869 0 OFFCURVE",
"1090 194 OFFCURVE",
"1090 477 CURVE SMOOTH",
"1090 604 LINE SMOOTH",
"1090 887 OFFCURVE",
"869 1082 OFFCURVE",
"565 1082 CURVE SMOOTH",
"226 1082 LINE",
"226 824 LINE",
"565 824 LINE SMOOTH",
"691 824 OFFCURVE",
"767 734 OFFCURVE",
"767 605 CURVE SMOOTH",
"767 477 LINE SMOOTH",
"767 349 OFFCURVE",
"691 258 OFFCURVE",
"565 258 CURVE SMOOTH",
"233 258 LINE",
"231 0 LINE",
"565 0 LINE"
);
},
{
closed = 1;
nodes = (
"94 1082 LINE",
"94 0 LINE",
"416 0 LINE",
"416 1082 LINE"
);
}
);
userData = {
com.typemytype.robofont.mark = (
0.939,
1,
0.6,
1
);
};
width = 1148;
}
);
unicode = 1D05;
}
{
glyphname = Dzcaron;
layers = (
{
components = (
{
name = D;
}
);
layerId = "7E29EDC2-3C1E-4E70-8272-9573F49A38C1";
paths = (
{
closed = 1;
nodes = (
"1385 160 LINE",
"1385 0 LINE",
"2168 0 LINE",
"2168 160 LINE"
);
},
{
closed = 1;
nodes = (
"2142 1082 LINE",
"2015 1082 LINE",
"1308 144 LINE",
"1308 0 LINE",
"1430 0 LINE",
"2142 944 LINE"
);
},
{
closed = 1;
nodes = (
"1314 1082 LINE",
"1314 921 LINE",
"2054 921 LINE",
"2054 1082 LINE"
);
},
{
closed = 1;
nodes = (
"1420 1518 LINE",
"1420 1497 LINE",
"1674 1252 LINE",
"1794 1252 LINE",
"2052 1500 LINE",
"2052 1518 LINE",
"1880 1518 LINE",
"1734 1372 LINE",
"1588 1518 LINE"
);
}
);
userData = {
com.typemytype.robofont.mark = (
0.939,
1,
0.6,
1
);
};
width = 2239;
},
{
components = (
{
name = D;
}
);
layerId = master01;
paths = (
{
closed = 1;
nodes = (
"1243 54 LINE",
"1243 0 LINE",
"2071 0 LINE",
"2071 54 LINE"
);
},
{
closed = 1;
nodes = (
"2012 1082 LINE",
"1979 1082 LINE",
"1228 44 LINE",
"1228 0 LINE",
"1262 0 LINE",
"2012 1034 LINE"
);
},
{
closed = 1;
nodes = (
"1259 1082 LINE",
"1259 1027 LINE",
"1987 1027 LINE",
"1987 1082 LINE"
);
},
{
closed = 1;
nodes = (
"1388 1475 LINE",
"1388 1461 LINE",
"1602 1252 LINE",
"1681 1252 LINE",
"1893 1459 LINE",
"1893 1475 LINE",
"1826 1475 LINE",
"1642 1288 LINE",
"1459 1475 LINE"
);
}
);
userData = {
com.typemytype.robofont.mark = (
0.967,
0.6,
1,
1
);
};
width = 2119;
},
{
components = (
{
name = D;
}
);
layerId = "3F40CA7F-E6AC-489E-A736-3B62737B1DDA";
paths = (
{
closed = 1;
nodes = (
"1402 260 LINE",
"1402 0 LINE",
"2234 0 LINE",
"2234 260 LINE"
);
},
{
closed = 1;
nodes = (
"2222 1082 LINE",
"2002 1082 LINE",
"1322 188 LINE",
"1322 0 LINE",
"1541 0 LINE",
"2222 900 LINE"
);
},
{
closed = 1;
nodes = (
"1341 1082 LINE",
"1341 822 LINE",
"2114 822 LINE",
"2114 1082 LINE"
);
},
{
closed = 1;
nodes = (
"1384 1528 LINE",
"1384 1514 LINE",
"1674 1252 LINE",
"1900 1252 LINE",
"2188 1512 LINE",
"2188 1528 LINE",
"1914 1528 LINE",
"1787 1392 LINE",
"1660 1528 LINE"
);
}
);
userData = {
com.typemytype.robofont.mark = (
0.939,
1,
0.6,
1
);
};
width = 2304;
}
);
unicode = 01C5;
}
{
glyphname = EReversedmod;
layers = (
{
layerId = "7E29EDC2-3C1E-4E70-8272-9573F49A38C1";
paths = (
{
closed = 1;
nodes = (
"622 1575 LINE",
"622 1728 LINE",
"60 1728 LINE",
"60 1575 LINE"
);
},
{
closed = 1;
nodes = (
"777 651 LINE",
"777 1728 LINE",
"596 1728 LINE",
"596 651 LINE"
);
},
{
closed = 1;
nodes = (
"622 1107 LINE",
"622 1260 LINE",
"136 1260 LINE",
"136 1107 LINE"
);
},
{
closed = 1;
nodes = (
"622 651 LINE",
"622 804 LINE",
"68 804 LINE",
"68 651 LINE"
);
}
);
userData = {
com.typemytype.robofont.mark = (
0.939,
1,
0.6,
1
);
};
width = 877;
},
{
layerId = master01;
paths = (
{
closed = 1;
nodes = (
"682 1674 LINE",
"682 1728 LINE",
"40 1728 LINE",
"40 1674 LINE"
);
},
{
closed = 1;
nodes = (
"696 651 LINE",
"696 1728 LINE",
"642 1728 LINE",
"642 651 LINE"
);
},
{
closed = 1;
nodes = (
"682 1136 LINE",
"682 1190 LINE",
"116 1190 LINE",
"116 1136 LINE"
);
},
{
closed = 1;
nodes = (
"682 651 LINE",
"682 705 LINE",
"40 705 LINE",
"40 651 LINE"
);
}
);
userData = {
com.typemytype.robofont.mark = (
0.939,
1,
0.6,
1
);
};
width = 816;
},
{
layerId = "3F40CA7F-E6AC-489E-A736-3B62737B1DDA";
paths = (
{
closed = 1;
nodes = (
"612 1540 LINE",
"612 1732 LINE",
"40 1732 LINE",
"40 1540 LINE"
);
},
{
closed = 1;
nodes = (
"755 655 LINE",
"755 1732 LINE",
"532 1732 LINE",
"532 655 LINE"
);
},
{
closed = 1;
nodes = (
"612 1079 LINE",
"612 1271 LINE",
"114 1271 LINE",
"114 1079 LINE"
);
},
{
closed = 1;
nodes = (
"612 655 LINE",
"612 847 LINE",
"40 847 LINE",
"40 655 LINE"
);
}
);
userData = {
com.typemytype.robofont.mark = (
0.939,
1,
0.6,
1
);
};
width = 855;
}
);
unicode = 1D32;
}
{
glyphname = Emod;
layers = (
{
layerId = "7E29EDC2-3C1E-4E70-8272-9573F49A38C1";
paths = (
{
closed = 1;
nodes = (
"255 804 LINE",
"255 651 LINE",
"817 651 LINE",
"817 804 LINE"
);
},
{
closed = 1;
nodes = (
"100 1728 LINE",
"100 651 LINE",
"281 651 LINE",
"281 1728 LINE"
);
},
{
closed = 1;
nodes = (
"255 1272 LINE",
"255 1119 LINE",
"741 1119 LINE",
"741 1272 LINE"
);
},
{
closed = 1;
nodes = (
"255 1728 LINE",
"255 1575 LINE",
"809 1575 LINE",
"809 1728 LINE"
);
}
);
userData = {
com.typemytype.robofont.mark = (
0.939,
1,
0.6,
1
);
};
width = 877;
},
{
layerId = master01;
paths = (
{
closed = 1;
nodes = (
"134 705 LINE",
"134 651 LINE",
"776 651 LINE",
"776 705 LINE"
);
},
{
closed = 1;
nodes = (
"120 1728 LINE",
"120 651 LINE",
"174 651 LINE",
"174 1728 LINE"
);
},
{
closed = 1;
nodes = (
"134 1243 LINE",
"134 1189 LINE",
"700 1189 LINE",
"700 1243 LINE"
);
},
{
closed = 1;
nodes = (
"134 1728 LINE",
"134 1674 LINE",
"776 1674 LINE",
"776 1728 LINE"
);
}
);
userData = {
com.typemytype.robofont.mark = (
0.967,
0.6,
1,
1
);
};
width = 816;
},
{
layerId = "3F40CA7F-E6AC-489E-A736-3B62737B1DDA";
paths = (
{
closed = 1;
nodes = (
"243 847 LINE",
"243 655 LINE",
"815 655 LINE",
"815 847 LINE"
);
},
{
closed = 1;
nodes = (
"100 1732 LINE",
"100 655 LINE",
"323 655 LINE",
"323 1732 LINE"
);
},
{
closed = 1;
nodes = (
"243 1308 LINE",
"243 1116 LINE",
"741 1116 LINE",
"741 1308 LINE"
);
},
{
closed = 1;
nodes = (
"243 1732 LINE",
"243 1540 LINE",
"815 1540 LINE",
"815 1732 LINE"
);
}
);
userData = {
com.typemytype.robofont.mark = (
0.939,
1,
0.6,
1
);
};
width = 855;
}
);
unicode = 1D31;
}
{
glyphname = Esmall;
layers = (
{
anchors = (
{
name = bottom;
position = "{603, 0}";
},
{
name = top;
position = "{603, 1290}";
},
{
name = top0315;
position = "{1043, 1290}";
}
);
layerId = "7E29EDC2-3C1E-4E70-8272-9573F49A38C1";
paths = (
{
closed = 1;
nodes = (
"308 158 LINE",
"308 0 LINE",
"971 0 LINE",
"971 158 LINE"
);
},
{
closed = 1;
nodes = (
"155 1082 LINE",
"155 0 LINE",
"355 0 LINE",
"355 1082 LINE"
);
},
{
closed = 1;
nodes = (
"308 648 LINE",
"308 489 LINE",
"884 489 LINE",
"884 648 LINE"
);
},
{
closed = 1;
nodes = (
"308 1082 LINE",
"308 924 LINE",
"971 924 LINE",
"971 1082 LINE"
);
}
);
userData = {
com.typemytype.robofont.mark = (
0.939,
1,
0.6,
1
);
};
width = 1043;
},
{
anchors = (
{
name = bottom;
position = "{568, 0}";
},
{
name = top;
position = "{568, 1290}";
},
{
name = top0315;
position = "{1010, 1290}";
}
);
layerId = master01;
paths = (
{
closed = 1;
nodes = (
"196 54 LINE",
"196 0 LINE",
"942 0 LINE",
"942 54 LINE"
);
},
{
closed = 1;
nodes = (
"172 1082 LINE",
"172 0 LINE",
"226 0 LINE",
"226 1082 LINE"
);
},
{
closed = 1;
nodes = (
"196 590 LINE",
"196 536 LINE",
"855 536 LINE",
"855 590 LINE"
);
},
{
closed = 1;
nodes = (
"196 1082 LINE",
"196 1028 LINE",
"942 1028 LINE",
"942 1082 LINE"
);
}
);
userData = {
com.typemytype.robofont.mark = (
0.939,
1,
0.6,
1
);
};
width = 1010;
},
{
anchors = (
{
name = bottom;
position = "{557, 0}";
},
{
name = top;
position = "{557, 1290}";
},
{
name = top0315;
position = "{1016, 1290}";
}
);
layerId = "3F40CA7F-E6AC-489E-A736-3B62737B1DDA";
paths = (
{
closed = 1;
nodes = (
"295 258 LINE",
"295 0 LINE",
"958 0 LINE",
"958 258 LINE"
);
},
{
closed = 1;
nodes = (
"94 1082 LINE",
"94 0 LINE",
"416 0 LINE",
"416 1082 LINE"
);
},
{
closed = 1;
nodes = (
"295 691 LINE",
"295 432 LINE",
"872 432 LINE",
"872 691 LINE"
);
},
{
closed = 1;
nodes = (
"295 1082 LINE",
"295 824 LINE",
"958 824 LINE",
"958 1082 LINE"
);
}
);
userData = {
com.typemytype.robofont.mark = (
0.939,
1,
0.6,
1
);
};
width = 1016;
}
);
unicode = 1D07;
}
{
glyphname = Ezh;
layers = (
{
layerId = "7E29EDC2-3C1E-4E70-8272-9573F49A38C1";
paths = (
{
closed = 1;
nodes = (
"112 -203 OFFCURVE",
"278 -416 OFFCURVE",
"633 -416 CURVE SMOOTH",
"976 -416 OFFCURVE",
"1208 -248 OFFCURVE",
"1208 161 CURVE SMOOTH",
"1208 570 OFFCURVE",
"978 738 OFFCURVE",
"613 738 CURVE SMOOTH",
"410 738 LINE",
"410 578 LINE",
"613 578 LINE SMOOTH",
"873 578 OFFCURVE",
"1000 468 OFFCURVE",
"1000 161 CURVE SMOOTH",
"1000 -118 OFFCURVE",
"893 -250 OFFCURVE",
"633 -250 CURVE SMOOTH",
"386 -250 OFFCURVE",
"322 -134 OFFCURVE",
"288 67 CURVE",
"80 67 LINE"
);
},
{
closed = 1;
nodes = (
"1131 1456 LINE",
"1038 1456 LINE",
"390 730 LINE",
"390 578 LINE",
"481 578 LINE",
"1131 1310 LINE"
);
},
{
closed = 1;
nodes = (
"117 1456 LINE",
"117 1289 LINE",
"1044 1289 LINE",
"1044 1456 LINE"
);
}
);
userData = {
com.typemytype.robofont.mark = (
0.939,
1,
0.6,
1
);
};
width = 1324;
},
{
layerId = master01;
paths = (
{
closed = 1;
nodes = (
"120 -284 OFFCURVE",
"317 -436 OFFCURVE",
"609 -436 CURVE SMOOTH",
"929 -436 OFFCURVE",
"1136 -216 OFFCURVE",
"1136 164 CURVE SMOOTH",
"1136 544 OFFCURVE",
"929 764 OFFCURVE",
"609 764 CURVE SMOOTH",
"410 764 LINE",
"410 710 LINE",
"609 710 LINE SMOOTH",
"892 710 OFFCURVE",
"1082 517 OFFCURVE",
"1082 164 CURVE SMOOTH",
"1082 -189 OFFCURVE",
"892 -382 OFFCURVE",
"609 -382 CURVE SMOOTH",
"339 -382 OFFCURVE",
"174 -254 OFFCURVE",
"144 31 CURVE",
"90 31 LINE"
);
},
{
closed = 1;
nodes = (
"1054 1456 LINE",
"1015 1456 LINE",
"385 754 LINE",
"385 710 LINE",
"422 710 LINE",
"1054 1418 LINE"
);
},
{
closed = 1;
nodes = (
"90 1456 LINE",
"90 1403 LINE",
"1028 1403 LINE",
"1028 1456 LINE"
);
}
);
userData = {
com.typemytype.robofont.mark = (
0.967,
0.6,
1,
1
);
};
width = 1273;
},
{
layerId = "3F40CA7F-E6AC-489E-A736-3B62737B1DDA";
paths = (
{
closed = 1;
nodes = (
"81 -227 OFFCURVE",
"303 -436 OFFCURVE",
"661 -436 CURVE SMOOTH",
"1041 -436 OFFCURVE",
"1275 -196 OFFCURVE",
"1275 210 CURVE SMOOTH",
"1275 616 OFFCURVE",
"1030 855 OFFCURVE",
"661 855 CURVE SMOOTH",
"458 855 LINE",
"458 595 LINE",
"661 595 LINE SMOOTH",
"850 595 OFFCURVE",
"941 490 OFFCURVE",
"941 210 CURVE SMOOTH",
"941 -45 OFFCURVE",
"859 -166 OFFCURVE",
"661 -166 CURVE SMOOTH",
"496 -166 OFFCURVE",
"408 -96 OFFCURVE",
"398 75 CURVE",
"63 75 LINE"
);
},
{
closed = 1;
nodes = (
"1170 1456 LINE",
"972 1456 LINE",
"382 777 LINE",
"382 595 LINE",
"588 595 LINE",
"1170 1280 LINE"
);
},
{
closed = 1;
nodes = (
"60 1456 LINE",
"60 1185 LINE",
"1062 1185 LINE",
"1062 1456 LINE"
);
}
);
userData = {
com.typemytype.robofont.mark = (
0.939,
1,
0.6,
1
);
};
width = 1344;
}
);
unicode = 01B7;
}
{
glyphname = EzhSmall;
layers = (
{
anchors = (
{
name = bottom;
position = "{518, 0}";
},
{
name = top;
position = "{518, 1290}";
},
{
name = top0315;
position = "{1003, 1290}";
}
);
layerId = "7E29EDC2-3C1E-4E70-8272-9573F49A38C1";
paths = (
{
closed = 1;
nodes = (
"343 514 LINE",
"532 514 LINE SMOOTH",
"676 514 OFFCURVE",
"742 442 OFFCURVE",
"742 326 CURVE SMOOTH",
"742 215 OFFCURVE",
"667 137 OFFCURVE",
"519 137 CURVE SMOOTH",
"378 137 OFFCURVE",
"285 227 OFFCURVE",
"285 322 CURVE",
"86 322 LINE",
"86 85 OFFCURVE",
"306 -20 OFFCURVE",
"519 -20 CURVE SMOOTH",
"770 -20 OFFCURVE",
"943 97 OFFCURVE",
"943 326 CURVE SMOOTH",
"943 507 OFFCURVE",
"804 632 OFFCURVE",
"548 632 CURVE SMOOTH",
"343 632 LINE"
);
},
{
closed = 1;
nodes = (
"99 921 LINE",
"661 921 LINE",
"343 638 LINE",
"343 514 LINE",
"444 514 LINE",
"918 960 LINE",
"918 1082 LINE",
"99 1082 LINE"
);
}
);
userData = {
com.typemytype.robofont.mark = (
0.939,
1,
0.6,
1
);
};
width = 1003;
},
{
anchors = (
{
name = bottom;
position = "{514, 0}";
},
{
name = top;
position = "{514, 1290}";
},
{
name = top0315;
position = "{994, 1290}";
}
);
layerId = master01;
paths = (
{
closed = 1;
nodes = (
"368 585 LINE",
"513 585 LINE SMOOTH",
"748 585 OFFCURVE",
"865 485 OFFCURVE",
"865 317 CURVE SMOOTH",
"865 162 OFFCURVE",
"746 38 OFFCURVE",
"516 38 CURVE SMOOTH",
"316 38 OFFCURVE",
"164 149 OFFCURVE",
"164 301 CURVE",
"109 301 LINE",
"109 83 OFFCURVE",
"326 -17 OFFCURVE",
"516 -17 CURVE SMOOTH",
"756 -17 OFFCURVE",
"920 126 OFFCURVE",
"920 320 CURVE SMOOTH",
"920 501 OFFCURVE",
"793 632 OFFCURVE",
"517 632 CURVE SMOOTH",
"368 632 LINE"
);
},
{
closed = 1;
nodes = (
"133 1027 LINE",
"808 1027 LINE",
"368 632 LINE",
"368 615 LINE",
"426 615 LINE",
"872 1014 LINE",
"872 1082 LINE",
"133 1082 LINE"
);
}
);
userData = {
com.typemytype.robofont.mark = (
0.939,
1,
0.6,
1
);
};
width = 994;
},
{
anchors = (
{
name = bottom;
position = "{520, 0}";
},
{
name = top;
position = "{520, 1290}";
},
{
name = top0315;
position = "{1084, 1290}";
}
);
layerId = "3F40CA7F-E6AC-489E-A736-3B62737B1DDA";
paths = (
{
closed = 1;
nodes = (
"390 476 LINE",
"513 476 LINE SMOOTH",
"632 476 OFFCURVE",
"683 431 OFFCURVE",
"683 346 CURVE SMOOTH",
"683 281 OFFCURVE",
"648 220 OFFCURVE",
"542 220 CURVE SMOOTH",
"433 220 OFFCURVE",
"385 265 OFFCURVE",
"385 320 CURVE",
"63 320 LINE",
"63 84 OFFCURVE",
"295 -20 OFFCURVE",
"521 -20 CURVE SMOOTH",
"825 -20 OFFCURVE",
"1004 111 OFFCURVE",
"1004 316 CURVE SMOOTH",
"1004 497 OFFCURVE",
"865 608 OFFCURVE",
"610 608 CURVE SMOOTH",
"390 608 LINE"
);
},
{
closed = 1;
nodes = (
"93 822 LINE",
"607 822 LINE",
"368 601 LINE",
"368 476 LINE",
"585 476 LINE",
"985 866 LINE",
"984 1082 LINE",
"93 1082 LINE"
);
}
);
userData = {
com.typemytype.robofont.mark = (
0.967,
0.6,
1,
1
);
};
width = 1084;
}
);
unicode = 1D23;
}
{
glyphname = Ezhreversed;
layers = (
{
layerId = "7E29EDC2-3C1E-4E70-8272-9573F49A38C1";
paths = (
{
closed = 1;
nodes = (
"1002 -134 OFFCURVE",
"938 -250 OFFCURVE",
"691 -250 CURVE SMOOTH",
"431 -250 OFFCURVE",
"324 -118 OFFCURVE",
"324 161 CURVE SMOOTH",
"324 468 OFFCURVE",
"451 578 OFFCURVE",
"711 578 CURVE SMOOTH",
"914 578 LINE",
"914 738 LINE",
"711 738 LINE SMOOTH",
"346 738 OFFCURVE",
"116 570 OFFCURVE",
"116 161 CURVE SMOOTH",
"116 -248 OFFCURVE",
"348 -416 OFFCURVE",
"691 -416 CURVE SMOOTH",
"1046 -416 OFFCURVE",
"1212 -203 OFFCURVE",
"1244 67 CURVE",
"1036 67 LINE"
);
},
{
closed = 1;
nodes = (
"934 578 LINE",
"934 730 LINE",
"286 1456 LINE",
"193 1456 LINE",
"193 1310 LINE",
"843 578 LINE"
);
},
{
closed = 1;
nodes = (
"1207 1289 LINE",
"1207 1456 LINE",
"280 1456 LINE",
"280 1289 LINE"
);
}
);
userData = {
com.typemytype.robofont.mark = (
0.939,
1,
0.6,
1
);
};
width = 1324;
},
{
layerId = master01;
paths = (
{
closed = 1;
nodes = (
"1099 -254 OFFCURVE",
"934 -382 OFFCURVE",
"664 -382 CURVE SMOOTH",
"381 -382 OFFCURVE",
"191 -189 OFFCURVE",
"191 164 CURVE SMOOTH",
"191 517 OFFCURVE",
"381 710 OFFCURVE",
"664 710 CURVE SMOOTH",
"863 710 LINE",
"863 764 LINE",
"664 764 LINE SMOOTH",
"344 764 OFFCURVE",
"137 544 OFFCURVE",
"137 164 CURVE SMOOTH",
"137 -216 OFFCURVE",
"344 -436 OFFCURVE",
"664 -436 CURVE SMOOTH",
"956 -436 OFFCURVE",
"1153 -284 OFFCURVE",
"1183 31 CURVE",
"1129 31 LINE"
);
},
{
closed = 1;
nodes = (
"888 710 LINE",
"888 754 LINE",
"258 1456 LINE",
"219 1456 LINE",
"219 1418 LINE",
"851 710 LINE"
);
},
{
closed = 1;
nodes = (
"1183 1403 LINE",
"1183 1456 LINE",
"245 1456 LINE",
"245 1403 LINE"
);
}
);
userData = {
com.typemytype.robofont.mark = (
0.939,
1,
0.6,
1
);
};
width = 1273;
},
{
layerId = "3F40CA7F-E6AC-489E-A736-3B62737B1DDA";
paths = (
{
closed = 1;
nodes = (
"936 -96 OFFCURVE",
"848 -166 OFFCURVE",
"683 -166 CURVE SMOOTH",
"485 -166 OFFCURVE",
"403 -45 OFFCURVE",
"403 210 CURVE SMOOTH",
"403 490 OFFCURVE",
"494 595 OFFCURVE",
"683 595 CURVE SMOOTH",
"886 595 LINE",
"886 855 LINE",
"683 855 LINE SMOOTH",
"314 855 OFFCURVE",
"69 616 OFFCURVE",
"69 210 CURVE SMOOTH",
"69 -196 OFFCURVE",
"303 -436 OFFCURVE",
"683 -436 CURVE SMOOTH",
"1041 -436 OFFCURVE",
"1263 -227 OFFCURVE",
"1281 75 CURVE",
"946 75 LINE"
);
},
{
closed = 1;
nodes = (
"968 595 LINE",
"968 777 LINE",
"378 1456 LINE",
"180 1456 LINE",
"180 1280 LINE",
"762 595 LINE"
);
},
{
closed = 1;
nodes = (
"1284 1185 LINE",
"1284 1456 LINE",
"282 1456 LINE",
"282 1185 LINE"
);
}
);
userData = {
com.typemytype.robofont.mark = (
0.939,
1,
0.6,
1
);
};
width = 1344;
}
);
unicode = 01B8;
}
{
glyphname = Gcomb;
layers = (
{
anchors = (
{
name = _marktop;
position = "{-588, 1170}";
}
);
layerId = "7E29EDC2-3C1E-4E70-8272-9573F49A38C1";
paths = (
{
closed = 1;
nodes = (
"-447 1191 OFFCURVE",
"-344 1245 OFFCURVE",
"-320 1280 CURVE",
"-320 1521 LINE",
"-577 1521 LINE",
"-577 1414 LINE",
"-452 1414 LINE",
"-452 1331 LINE",
"-468 1318 OFFCURVE",
"-504 1298 OFFCURVE",
"-584 1298 CURVE SMOOTH",
"-685 1298 OFFCURVE",
"-725 1342 OFFCURVE",
"-725 1451 CURVE SMOOTH",
"-725 1530 LINE SMOOTH",
"-725 1651 OFFCURVE",
"-681 1694 OFFCURVE",
"-586 1694 CURVE SMOOTH",
"-503 1694 OFFCURVE",
"-471 1670 OFFCURVE",
"-459 1615 CURVE",
"-338 1615 LINE",
"-348 1721 OFFCURVE",
"-430 1801 OFFCURVE",
"-586 1801 CURVE SMOOTH",
"-739 1801 OFFCURVE",
"-857 1703 OFFCURVE",
"-857 1558 CURVE SMOOTH",
"-857 1434 LINE SMOOTH",
"-857 1290 OFFCURVE",
"-741 1191 OFFCURVE",
"-584 1191 CURVE SMOOTH"
);
}
);
userData = {
com.typemytype.robofont.mark = (
0.967,
0.6,
1,
1
);
};
width = 0;
},
{
anchors = (
{
name = _marktop;
position = "{-562, 1170}";
}
);
layerId = master01;
paths = (
{
closed = 1;
nodes = (
"-423 1192 OFFCURVE",
"-352 1248 OFFCURVE",
"-331 1280 CURVE",
"-331 1485 LINE",
"-527 1485 LINE",
"-527 1445 LINE",
"-371 1445 LINE",
"-371 1298 LINE",
"-390 1268 OFFCURVE",
"-438 1232 OFFCURVE",
"-548 1232 CURVE SMOOTH",
"-670 1232 OFFCURVE",
"-753 1309 OFFCURVE",
"-753 1435 CURVE SMOOTH",
"-753 1560 LINE SMOOTH",
"-753 1685 OFFCURVE",
"-673 1762 OFFCURVE",
"-555 1762 CURVE SMOOTH",
"-417 1762 OFFCURVE",
"-380 1711 OFFCURVE",
"-369 1625 CURVE",
"-331 1633 LINE",
"-342 1743 OFFCURVE",
"-411 1802 OFFCURVE",
"-555 1802 CURVE SMOOTH",
"-697 1802 OFFCURVE",
"-793 1704 OFFCURVE",
"-793 1559 CURVE SMOOTH",
"-793 1435 LINE SMOOTH",
"-793 1291 OFFCURVE",
"-694 1192 OFFCURVE",
"-548 1192 CURVE SMOOTH"
);
}
);
userData = {
com.typemytype.robofont.mark = (
0.967,
0.6,
1,
1
);
};
width = 0;
},
{
anchors = (
{
name = _marktop;
position = "{-576, 1170}";
}
);
layerId = "3F40CA7F-E6AC-489E-A736-3B62737B1DDA";
paths = (
{
closed = 1;
nodes = (
"-419 1191 OFFCURVE",
"-345 1239 OFFCURVE",
"-305 1282 CURVE",
"-305 1521 LINE",
"-574 1521 LINE",
"-574 1413 LINE",
"-469 1413 LINE",
"-469 1339 LINE",
"-486 1329 OFFCURVE",
"-509 1322 OFFCURVE",
"-570 1322 CURVE SMOOTH",
"-643 1322 OFFCURVE",
"-683 1369 OFFCURVE",
"-683 1434 CURVE SMOOTH",
"-683 1559 LINE SMOOTH",
"-683 1625 OFFCURVE",
"-645 1670 OFFCURVE",
"-579 1670 CURVE SMOOTH",
"-519 1670 OFFCURVE",
"-493 1652 OFFCURVE",
"-483 1603 CURVE",
"-318 1603 LINE",
"-334 1740 OFFCURVE",
"-426 1801 OFFCURVE",
"-579 1801 CURVE SMOOTH",
"-735 1801 OFFCURVE",
"-847 1703 OFFCURVE",
"-847 1558 CURVE SMOOTH",
"-847 1434 LINE SMOOTH",
"-847 1290 OFFCURVE",
"-733 1191 OFFCURVE",
"-570 1191 CURVE SMOOTH"
);
}
);
userData = {
com.typemytype.robofont.mark = (
0.967,
0.6,
1,
1
);
};
width = 0;
}
);
unicode = 1DDB;
}
{
glyphname = Germandbls;
layers = (
{
layerId = "7E29EDC2-3C1E-4E70-8272-9573F49A38C1";
paths = (
{
closed = 1;
nodes = (
"137 958 LINE",
"137 0 LINE",
"336 0 LINE",
"336 958 LINE"
);
},
{
closed = 1;
nodes = (
"336 1144 OFFCURVE",
"376 1316 OFFCURVE",
"591 1316 CURVE SMOOTH",
"724 1316 OFFCURVE",
"802 1269 OFFCURVE",
"865 1223 CURVE",
"567 853 LINE",
"567 728 LINE",
"677 728 LINE",
"1100 1254 LINE",
"968 1375 OFFCURVE",
"810 1476 OFFCURVE",
"591 1476 CURVE SMOOTH",
"288 1476 OFFCURVE",
"137 1303 OFFCURVE",
"137 956 CURVE",
"336 956 LINE"
);
},
{
closed = 1;
nodes = (
"550 -6 OFFCURVE",
"645 -21 OFFCURVE",
"738 -21 CURVE SMOOTH",
"1026 -21 OFFCURVE",
"1234 135 OFFCURVE",
"1234 408 CURVE SMOOTH",
"1234 692 OFFCURVE",
"1044 849 OFFCURVE",
"718 849 CURVE SMOOTH",
"567 849 LINE",
"567 694 LINE",
"714 694 LINE SMOOTH",
"922 694 OFFCURVE",
"1034 609 OFFCURVE",
"1034 404 CURVE SMOOTH",
"1034 252 OFFCURVE",
"926 139 OFFCURVE",
"738 139 CURVE SMOOTH",
"642 139 OFFCURVE",
"567 164 OFFCURVE",
"512 190 CURVE",
"456 29 LINE"
);
}
);
userData = {
com.typemytype.robofont.mark = (
0.939,
1,
0.6,
1
);
};
width = 1323;
},
{
layerId = master01;
paths = (
{
closed = 1;
nodes = (
"200 998 LINE",
"200 0 LINE",
"253 0 LINE",
"253 998 LINE"
);
},
{
closed = 1;
nodes = (
"253 1300 OFFCURVE",
"359 1422 OFFCURVE",
"613 1422 CURVE SMOOTH",
"765 1422 OFFCURVE",
"897 1349 OFFCURVE",
"979 1236 CURVE",
"579 833 LINE",
"579 779 LINE",
"610 779 LINE",
"1061 1234 LINE",
"950 1381 OFFCURVE",
"811 1476 OFFCURVE",
"613 1476 CURVE SMOOTH",
"286 1476 OFFCURVE",
"200 1283 OFFCURVE",
"200 996 CURVE",
"253 996 LINE"
);
},
{
closed = 1;
nodes = (
"576 -6 OFFCURVE",
"657 -20 OFFCURVE",
"750 -20 CURVE SMOOTH",
"1038 -20 OFFCURVE",
"1206 135 OFFCURVE",
"1206 408 CURVE SMOOTH",
"1206 657 OFFCURVE",
"1056 829 OFFCURVE",
"730 829 CURVE SMOOTH",
"579 829 LINE",
"579 775 LINE",
"730 775 LINE SMOOTH",
"1039 775 OFFCURVE",
"1152 621 OFFCURVE",
"1152 408 CURVE SMOOTH",
"1152 152 OFFCURVE",
"991 34 OFFCURVE",
"750 34 CURVE SMOOTH",
"654 34 OFFCURVE",
"569 61 OFFCURVE",
"514 87 CURVE",
"482 29 LINE"
);
}
);
userData = {
com.typemytype.robofont.mark = (
0.967,
0.6,
1,
1
);
};
width = 1325;
},
{
layerId = "3F40CA7F-E6AC-489E-A736-3B62737B1DDA";
paths = (
{
closed = 1;
nodes = (
"77 958 LINE",
"77 0 LINE",
"400 0 LINE",
"400 958 LINE"
);
},
{
closed = 1;
nodes = (
"400 1157 OFFCURVE",
"488 1217 OFFCURVE",
"603 1217 CURVE SMOOTH",
"713 1217 OFFCURVE",
"794 1179 OFFCURVE",
"864 1127 CURVE",
"608 844 LINE",
"608 719 LINE",
"830 719 LINE",
"1267 1219 LINE",
"1054 1381 OFFCURVE",
"855 1477 OFFCURVE",
"603 1477 CURVE SMOOTH",
"250 1477 OFFCURVE",
"77 1299 OFFCURVE",
"77 956 CURVE",
"400 956 LINE"
);
},
{
closed = 1;
nodes = (
"561 7 OFFCURVE",
"669 -21 OFFCURVE",
"828 -21 CURVE SMOOTH",
"1100 -21 OFFCURVE",
"1328 125 OFFCURVE",
"1328 423 CURVE SMOOTH",
"1328 709 OFFCURVE",
"1131 860 OFFCURVE",
"792 860 CURVE",
"608 839 LINE",
"608 650 LINE",
"739 650 LINE SMOOTH",
"913 650 OFFCURVE",
"1006 595 OFFCURVE",
"1006 423 CURVE SMOOTH",
"1006 307 OFFCURVE",
"924 239 OFFCURVE",
"784 239 CURVE SMOOTH",
"693 239 OFFCURVE",
"612 268 OFFCURVE",
"572 285 CURVE",
"480 41 LINE"
);
}
);
userData = {
com.typemytype.robofont.guides = (
{
angle = 0;
isGlobal = 0;
magnetic = 5;
x = 0;
y = 1522;
}
);
com.typemytype.robofont.mark = (
0.939,
1,
0.6,
1
);
};
width = 1414;
}
);
unicode = 1E9E;
}
{
glyphname = Gmod;
layers = (
{
layerId = "7E29EDC2-3C1E-4E70-8272-9573F49A38C1";
paths = (
{
closed = 1;
nodes = (
"531 1189 LINE",
"531 1037 LINE",
"773 1037 LINE",
"773 862 LINE",
"744 830 OFFCURVE",
"696 784 OFFCURVE",
"542 784 CURVE SMOOTH",
"362 784 OFFCURVE",
"243 910 OFFCURVE",
"243 1150 CURVE SMOOTH",
"243 1228 LINE SMOOTH",
"243 1472 OFFCURVE",
"322 1590 OFFCURVE",
"525 1590 CURVE SMOOTH",
"686 1590 OFFCURVE",
"753 1527 OFFCURVE",
"774 1413 CURVE",
"922 1413 LINE",
"894 1603 OFFCURVE",
"770 1742 OFFCURVE",
"525 1742 CURVE SMOOTH",
"242 1742 OFFCURVE",
"60 1552 OFFCURVE",
"60 1227 CURVE SMOOTH",
"60 1150 LINE SMOOTH",
"60 815 OFFCURVE",
"279 635 OFFCURVE",
"542 635 CURVE SMOOTH",
"788 635 OFFCURVE",
"881 736 OFFCURVE",
"922 795 CURVE",
"922 1189 LINE"
);
}
);
userData = {
com.typemytype.robofont.mark = (
0.939,
1,
0.6,
1
);
};
width = 1022;
},
{
layerId = master01;
paths = (
{
closed = 1;
nodes = (
"494 1143 LINE",
"494 1089 LINE",
"809 1089 LINE",
"809 788 LINE",
"776 750 OFFCURVE",
"671 693 OFFCURVE",
"495 693 CURVE SMOOTH",
"275 693 OFFCURVE",
"134 860 OFFCURVE",
"134 1113 CURVE SMOOTH",
"134 1291 LINE SMOOTH",
"134 1534 OFFCURVE",
"267 1693 OFFCURVE",
"483 1693 CURVE SMOOTH",
"697 1693 OFFCURVE",
"785 1581 OFFCURVE",
"807 1440 CURVE",
"861 1440 LINE",
"841 1613 OFFCURVE",
"716 1747 OFFCURVE",
"483 1747 CURVE SMOOTH",
"245 1747 OFFCURVE",
"80 1561 OFFCURVE",
"80 1289 CURVE SMOOTH",
"80 1113 LINE SMOOTH",
"80 832 OFFCURVE",
"249 639 OFFCURVE",
"495 639 CURVE SMOOTH",
"705 639 OFFCURVE",
"828 721 OFFCURVE",
"863 770 CURVE",
"863 1143 LINE"
);
}
);
userData = {
com.typemytype.robofont.mark = (
0.967,
0.6,
1,
1
);
};
width = 943;
},
{
layerId = "3F40CA7F-E6AC-489E-A736-3B62737B1DDA";
paths = (
{
closed = 1;
nodes = (
"511 1223 LINE",
"511 1049 LINE",
"726 1049 LINE",
"726 875 LINE",
"704 855 OFFCURVE",
"641 827 OFFCURVE",
"545 827 CURVE SMOOTH",
"383 827 OFFCURVE",
"283 939 OFFCURVE",
"283 1157 CURVE SMOOTH",
"283 1221 LINE SMOOTH",
"283 1440 OFFCURVE",
"383 1550 OFFCURVE",
"522 1550 CURVE SMOOTH",
"650 1550 OFFCURVE",
"712 1487 OFFCURVE",
"728 1379 CURVE",
"949 1379 LINE",
"926 1593 OFFCURVE",
"802 1743 OFFCURVE",
"515 1743 CURVE SMOOTH",
"244 1743 OFFCURVE",
"60 1553 OFFCURVE",
"60 1220 CURVE SMOOTH",
"60 1157 LINE SMOOTH",
"60 824 OFFCURVE",
"248 635 OFFCURVE",
"530 635 CURVE SMOOTH",
"765 635 OFFCURVE",
"896 724 OFFCURVE",
"949 784 CURVE",
"949 1223 LINE"
);
}
);
userData = {
com.typemytype.robofont.mark = (
0.939,
1,
0.6,
1
);
};
width = 1009;
}
);
unicode = 1D33;
}
{
glyphname = Gstroke;
layers = (
{
anchors = (
{
name = bottom;
position = "{668, -10}";
},
{
name = top;
position = "{668, 1633}";
},
{
name = top0315;
position = "{1394, 1633}";
}
);
components = (
{
name = G;
}
);
layerId = "7E29EDC2-3C1E-4E70-8272-9573F49A38C1";
paths = (
{
closed = 1;
nodes = (
"747 485 LINE",
"747 325 LINE",
"1389 325 LINE",
"1389 485 LINE"
);
}
);
userData = {
com.typemytype.robofont.mark = (
0.798,
1,
0.6,
1
);
};
width = 1394;
},
{
anchors = (
{
name = bottom;
position = "{729, 0}";
},
{
name = top;
position = "{703, 1633}";
},
{
name = top0315;
position = "{1406, 1633}";
}
);
components = (
{
name = G;
}
);
layerId = master01;
paths = (
{
closed = 1;
nodes = (
"839 435 LINE",
"839 381 LINE",
"1426 381 LINE",
"1426 435 LINE"
);
}
);
userData = {
com.typemytype.robofont.mark = (
0.798,
1,
0.6,
1
);
};
width = 1406;
},
{
anchors = (
{
name = bottom;
position = "{726, 0}";
},
{
name = top;
position = "{705, 1600}";
},
{
name = top0315;
position = "{1466, 1600}";
}
);
components = (
{
name = G;
}
);
layerId = "3F40CA7F-E6AC-489E-A736-3B62737B1DDA";
paths = (
{
closed = 1;
nodes = (
"749 482 LINE",
"749 327 LINE",
"1470 327 LINE",
"1470 482 LINE"
);
}
);
userData = {
com.typemytype.robofont.mark = (
0.798,
1,
0.6,
1
);
};
width = 1466;
}
);
unicode = 01E4;
}
{
glyphname = Hmod;
layers = (
{
layerId = "7E29EDC2-3C1E-4E70-8272-9573F49A38C1";
paths = (
{
closed = 1;
nodes = (
"255 1272 LINE",
"255 1119 LINE",
"941 1119 LINE",
"941 1272 LINE"
);
},
{
closed = 1;
nodes = (
"100 1728 LINE",
"100 651 LINE",
"281 651 LINE",
"281 1728 LINE"
);
},
{
closed = 1;
nodes = (
"813 1728 LINE",
"813 651 LINE",
"994 651 LINE",
"994 1728 LINE"
);
}
);
userData = {
com.typemytype.robofont.mark = (
0.939,
1,
0.6,
1
);
};
width = 1094;
},
{
layerId = master01;
paths = (
{
closed = 1;
nodes = (
"140 1212 LINE",
"140 1158 LINE",
"865 1158 LINE",
"865 1212 LINE"
);
},
{
closed = 1;
nodes = (
"120 1728 LINE",
"120 651 LINE",
"174 651 LINE",
"174 1728 LINE"
);
},
{
closed = 1;
nodes = (
"834 1728 LINE",
"834 651 LINE",
"888 651 LINE",
"888 1728 LINE"
);
}
);
userData = {
com.typemytype.robofont.mark = (
0.967,
0.6,
1,
1
);
};
width = 1008;
},
{
layerId = "3F40CA7F-E6AC-489E-A736-3B62737B1DDA";
paths = (
{
closed = 1;
nodes = (
"265 1281 LINE",
"265 1089 LINE",
"821 1089 LINE",
"821 1281 LINE"
);
},
{
closed = 1;
nodes = (
"100 1732 LINE",
"100 655 LINE",
"323 655 LINE",
"323 1732 LINE"
);
},
{
closed = 1;
nodes = (
"755 1732 LINE",
"755 655 LINE",
"978 655 LINE",
"978 1732 LINE"
);
}
);
userData = {
com.typemytype.robofont.mark = (
0.939,
1,
0.6,
1
);
};
width = 1078;
}
);
unicode = 1D34;
}
{
glyphname = Hwair;
layers = (
{
layerId = "7E29EDC2-3C1E-4E70-8272-9573F49A38C1";
paths = (
{
closed = 1;
nodes = (
"344 835 LINE",
"344 669 LINE",
"1110 669 LINE",
"1110 835 LINE"
);
},
{
closed = 1;
nodes = (
"166 1456 LINE",
"166 0 LINE",
"374 0 LINE",
"374 1456 LINE"
);
},
{
closed = 1;
nodes = (
"1086 1456 LINE",
"1086 500 LINE",
"1294 500 LINE",
"1294 1456 LINE"
);
},
{
closed = 1;
nodes = (
"1889 471 LINE SMOOTH",
"1889 248 OFFCURVE",
"1786 146 OFFCURVE",
"1590 146 CURVE SMOOTH",
"1396 146 OFFCURVE",
"1294 248 OFFCURVE",
"1294 471 CURVE SMOOTH",
"1294 565 LINE",
"1086 565 LINE",
"1086 471 LINE SMOOTH",
"1086 143 OFFCURVE",
"1292 -20 OFFCURVE",
"1590 -20 CURVE SMOOTH",
"1872 -20 OFFCURVE",
"2097 143 OFFCURVE",
"2097 471 CURVE SMOOTH",
"2097 1081 LINE",
"1889 1081 LINE"
);
}
);
userData = {
com.typemytype.robofont.mark = (
0.939,
1,
0.6,
1
);
};
width = 2225;
},
{
layerId = master01;
paths = (
{
closed = 1;
nodes = (
"227 776 LINE",
"227 722 LINE",
"1207 722 LINE",
"1207 776 LINE"
);
},
{
closed = 1;
nodes = (
"200 1456 LINE",
"200 0 LINE",
"254 0 LINE",
"254 1456 LINE"
);
},
{
closed = 1;
nodes = (
"1184 1456 LINE",
"1184 500 LINE",
"1238 500 LINE",
"1238 1456 LINE"
);
},
{
closed = 1;
nodes = (
"2056 391 LINE SMOOTH",
"2056 172 OFFCURVE",
"1880 38 OFFCURVE",
"1648 38 CURVE SMOOTH",
"1417 38 OFFCURVE",
"1238 172 OFFCURVE",
"1238 391 CURVE SMOOTH",
"1238 565 LINE",
"1184 565 LINE",
"1184 391 LINE SMOOTH",
"1184 130 OFFCURVE",
"1383 -17 OFFCURVE",
"1648 -17 CURVE SMOOTH",
"1912 -17 OFFCURVE",
"2111 130 OFFCURVE",
"2111 391 CURVE SMOOTH",
"2111 1082 LINE",
"2056 1082 LINE"
);
}
);
userData = {
com.typemytype.robofont.mark = (
0.939,
1,
0.6,
1
);
};
width = 2311;
},
{
layerId = "3F40CA7F-E6AC-489E-A736-3B62737B1DDA";
paths = (
{
closed = 1;
nodes = (
"345 878 LINE",
"345 608 LINE",
"1094 608 LINE",
"1094 878 LINE"
);
},
{
closed = 1;
nodes = (
"117 1456 LINE",
"117 0 LINE",
"452 0 LINE",
"452 1456 LINE"
);
},
{
closed = 1;
nodes = (
"990 1456 LINE",
"990 500 LINE",
"1324 500 LINE",
"1324 1456 LINE"
);
},
{
closed = 1;
nodes = (
"1731 505 LINE SMOOTH",
"1731 325 OFFCURVE",
"1678 250 OFFCURVE",
"1528 250 CURVE SMOOTH",
"1379 250 OFFCURVE",
"1324 325 OFFCURVE",
"1324 505 CURVE SMOOTH",
"1324 565 LINE",
"990 565 LINE",
"990 505 LINE SMOOTH",
"990 164 OFFCURVE",
"1191 -20 OFFCURVE",
"1528 -20 CURVE SMOOTH",
"1866 -20 OFFCURVE",
"2066 164 OFFCURVE",
"2066 505 CURVE SMOOTH",
"2066 1082 LINE",
"1731 1082 LINE"
);
}
);
userData = {
com.typemytype.robofont.mark = (
0.939,
1,
0.6,
1
);
};
width = 2176;
}
);
unicode = 01F6;
}
{
glyphname = Imod;
layers = (
{
layerId = "7E29EDC2-3C1E-4E70-8272-9573F49A38C1";
paths = (
{
closed = 1;
nodes = (
"130 1728 LINE",
"130 651 LINE",
"311 651 LINE",
"311 1728 LINE"
);
}
);
userData = {
com.typemytype.robofont.mark = (
0.939,
1,
0.6,
1
);
};
width = 441;
},
{
layerId = master01;
paths = (
{
closed = 1;
nodes = (
"120 1728 LINE",
"120 651 LINE",
"174 651 LINE",
"174 1728 LINE"
);
}
);
userData = {
com.typemytype.robofont.mark = (
0.967,
0.6,
1,
1
);
};
width = 294;
},
{
layerId = "3F40CA7F-E6AC-489E-A736-3B62737B1DDA";
paths = (
{
closed = 1;
nodes = (
"120 1732 LINE",
"120 655 LINE",
"343 655 LINE",
"343 1732 LINE"
);
}
);
userData = {
com.typemytype.robofont.mark = (
0.939,
1,
0.6,
1
);
};
width = 463;
}
);
unicode = 1D35;
}
{
glyphname = Ismallmod;
layers = (
{
layerId = "7E29EDC2-3C1E-4E70-8272-9573F49A38C1";
paths = (
{
closed = 1;
nodes = (
"224 1513 LINE",
"224 650 LINE",
"407 650 LINE",
"407 1513 LINE"
);
},
{
closed = 1;
nodes = (
"70 1513 LINE",
"70 1360 LINE",
"561 1360 LINE",
"561 1513 LINE"
);
},
{
closed = 1;
nodes = (
"70 803 LINE",
"70 650 LINE",
"561 650 LINE",
"561 803 LINE"
);
}
);
userData = {
com.typemytype.robofont.mark = (
0.798,
1,
0.6,
1
);
};
width = 631;
},
{
layerId = master01;
paths = (
{
closed = 1;
nodes = (
"188 1514 LINE",
"188 651 LINE",
"242 651 LINE",
"242 1514 LINE"
);
},
{
closed = 1;
nodes = (
"50 1514 LINE",
"50 1460 LINE",
"381 1460 LINE",
"381 1514 LINE"
);
},
{
closed = 1;
nodes = (
"50 705 LINE",
"50 651 LINE",
"381 651 LINE",
"381 705 LINE"
);
}
);
userData = {
com.typemytype.robofont.mark = (
0.798,
1,
0.6,
1
);
};
width = 431;
},
{
layerId = "3F40CA7F-E6AC-489E-A736-3B62737B1DDA";
paths = (
{
closed = 1;
nodes = (
"185 1518 LINE",
"185 655 LINE",
"408 655 LINE",
"408 1518 LINE"
);
},
{
closed = 1;
nodes = (
"50 1518 LINE",
"50 1345 LINE",
"543 1345 LINE",
"543 1518 LINE"
);
},
{
closed = 1;
nodes = (
"50 828 LINE",
"50 655 LINE",
"543 655 LINE",
"543 828 LINE"
);
}
);
userData = {
com.typemytype.robofont.mark = (
0.798,
1,
0.6,
1
);
};
width = 593;
}
);
unicode = 1DA6;
}
{
glyphname = IstrokeSmallmod;
layers = (
{
components = (
{
name = Ismallmod;
}
);
layerId = "7E29EDC2-3C1E-4E70-8272-9573F49A38C1";
paths = (
{
closed = 1;
nodes = (
"40 1193 LINE",
"40 1040 LINE",
"591 1040 LINE",
"591 1193 LINE"
);
}
);
userData = {
com.typemytype.robofont.mark = (
0.798,
1,
0.6,
1
);
};
width = 631;
},
{
components = (
{
name = Ismallmod;
}
);
layerId = master01;
paths = (
{
closed = 1;
nodes = (
"20 1156 LINE",
"20 1102 LINE",
"411 1102 LINE",
"411 1156 LINE"
);
}
);
userData = {
com.typemytype.robofont.mark = (
0.798,
1,
0.6,
1
);
};
width = 431;
},
{
components = (
{
name = Ismallmod;
}
);
layerId = "3F40CA7F-E6AC-489E-A736-3B62737B1DDA";
paths = (
{
closed = 1;
nodes = (
"40 1235 LINE",
"40 1062 LINE",
"553 1062 LINE",
"553 1235 LINE"
);
}
);
userData = {
com.typemytype.robofont.mark = (
0.798,
1,
0.6,
1
);
};
width = 593;
}
);
unicode = 1DA7;
}
{
glyphname = Jmod;
layers = (
{
layerId = "7E29EDC2-3C1E-4E70-8272-9573F49A38C1";
paths = (
{
closed = 1;
nodes = (
"562 825 OFFCURVE",
"500 784 OFFCURVE",
"396 784 CURVE SMOOTH",
"294 784 OFFCURVE",
"208 849 OFFCURVE",
"208 973 CURVE",
"40 973 LINE",
"40 742 OFFCURVE",
"213 631 OFFCURVE",
"396 631 CURVE SMOOTH",
"587 631 OFFCURVE",
"744 727 OFFCURVE",
"744 975 CURVE SMOOTH",
"744 1723 LINE",
"562 1723 LINE",
"562 976 LINE"
);
}
);
userData = {
com.typemytype.robofont.mark = (
0.939,
1,
0.6,
1
);
};
width = 844;
},
{
layerId = master01;
paths = (
{
closed = 1;
nodes = (
"608 788 OFFCURVE",
"507 694 OFFCURVE",
"359 694 CURVE SMOOTH",
"199 694 OFFCURVE",
"94 778 OFFCURVE",
"94 952 CURVE",
"40 952 LINE",
"40 741 OFFCURVE",
"169 640 OFFCURVE",
"359 640 CURVE SMOOTH",
"534 640 OFFCURVE",
"662 765 OFFCURVE",
"662 968 CURVE SMOOTH",
"662 1733 LINE",
"608 1733 LINE",
"608 968 LINE"
);
}
);
userData = {
com.typemytype.robofont.mark = (
0.967,
0.6,
1,
1
);
};
width = 782;
},
{
layerId = "3F40CA7F-E6AC-489E-A736-3B62737B1DDA";
paths = (
{
closed = 1;
nodes = (
"548 881 OFFCURVE",
"490 827 OFFCURVE",
"414 827 CURVE SMOOTH",
"325 827 OFFCURVE",
"269 874 OFFCURVE",
"269 973 CURVE",
"40 973 LINE",
"40 742 OFFCURVE",
"192 635 OFFCURVE",
"414 635 CURVE SMOOTH",
"612 635 OFFCURVE",
"771 766 OFFCURVE",
"771 989 CURVE SMOOTH",
"771 1727 LINE",
"548 1727 LINE",
"548 989 LINE"
);
}
);
userData = {
com.typemytype.robofont.mark = (
0.939,
1,
0.6,
1
);
};
width = 871;
}
);
unicode = 1D36;
}
{
glyphname = Jsmall;
layers = (
{
anchors = (
{
name = bottom;
position = "{454, 0}";
},
{
name = top;
position = "{758, 1290}";
},
{
name = top0315;
position = "{991, 1290}";
}
);
layerId = "7E29EDC2-3C1E-4E70-8272-9573F49A38C1";
paths = (
{
closed = 1;
nodes = (
"659 227 OFFCURVE",
"571 141 OFFCURVE",
"455 141 CURVE SMOOTH",
"318 141 OFFCURVE",
"232 204 OFFCURVE",
"232 338 CURVE",
"32 338 LINE",
"32 99 OFFCURVE",
"203 -17 OFFCURVE",
"455 -17 CURVE SMOOTH",
"686 -17 OFFCURVE",
"858 125 OFFCURVE",
"858 355 CURVE SMOOTH",
"858 1082 LINE",
"659 1082 LINE",
"659 355 LINE"
);
}
);
userData = {
com.typemytype.robofont.mark = (
0.939,
1,
0.6,
1
);
};
width = 991;
},
{
anchors = (
{
name = bottom;
position = "{421, 0}";
},
{
name = top;
position = "{744, 1290}";
},
{
name = top0315;
position = "{942, 1290}";
}
);
layerId = master01;
paths = (
{
closed = 1;
nodes = (
"718 149 OFFCURVE",
"588 38 OFFCURVE",
"420 38 CURVE SMOOTH",
"216 38 OFFCURVE",
"102 123 OFFCURVE",
"102 320 CURVE",
"48 320 LINE",
"48 94 OFFCURVE",
"199 -17 OFFCURVE",
"420 -17 CURVE SMOOTH",
"622 -17 OFFCURVE",
"774 119 OFFCURVE",
"774 337 CURVE SMOOTH",
"774 1082 LINE",
"718 1082 LINE",
"718 337 LINE"
);
}
);
userData = {
com.typemytype.robofont.mark = (
0.939,
1,
0.6,
1
);
};
width = 942;
},
{
anchors = (
{
name = bottom;
position = "{488, 0}";
},
{
name = top;
position = "{788, 1290}";
},
{
name = top0315;
position = "{1039, 1290}";
}
);
layerId = "3F40CA7F-E6AC-489E-A736-3B62737B1DDA";
paths = (
{
closed = 1;
nodes = (
"622 298 OFFCURVE",
"565 238 OFFCURVE",
"488 238 CURVE SMOOTH",
"415 238 OFFCURVE",
"339 279 OFFCURVE",
"339 383 CURVE",
"16 383 LINE",
"16 116 OFFCURVE",
"208 -21 OFFCURVE",
"488 -21 CURVE SMOOTH",
"754 -21 OFFCURVE",
"945 144 OFFCURVE",
"945 399 CURVE",
"945 1082 LINE",
"622 1082 LINE",
"622 399 LINE"
);
}
);
userData = {
com.typemytype.robofont.mark = (
0.939,
1,
0.6,
1
);
};
width = 1039;
}
);
unicode = 1D0A;
}
{
glyphname = Kmod;
layers = (
{
layerId = "7E29EDC2-3C1E-4E70-8272-9573F49A38C1";
paths = (
{
closed = 1;
nodes = (
"100 1728 LINE",
"100 651 LINE",
"282 651 LINE",
"282 1728 LINE"
);
},
{
closed = 1;
nodes = (
"701 1728 LINE",
"379 1333 LINE",
"202 1119 LINE",
"227 904 LINE",
"483 1197 LINE",
"929 1728 LINE"
);
},
{
closed = 1;
nodes = (
"973 651 LINE",
"519 1323 LINE",
"402 1174 LINE",
"759 651 LINE"
);
}
);
userData = {
com.typemytype.robofont.mark = (
0.939,
1,
0.6,
1
);
};
width = 993;
},
{
layerId = master01;
paths = (
{
closed = 1;
nodes = (
"120 1728 LINE",
"120 651 LINE",
"174 651 LINE",
"174 1728 LINE"
);
},
{
closed = 1;
nodes = (
"770 1728 LINE",
"328 1280 LINE",
"150 1101 LINE",
"144 1036 LINE",
"357 1235 LINE",
"840 1728 LINE"
);
},
{
closed = 1;
nodes = (
"881 651 LINE",
"346 1267 LINE",
"313 1226 LINE",
"808 651 LINE"
);
}
);
userData = {
com.typemytype.robofont.mark = (
0.967,
0.6,
1,
1
);
};
width = 921;
},
{
layerId = "3F40CA7F-E6AC-489E-A736-3B62737B1DDA";
paths = (
{
closed = 1;
nodes = (
"100 1732 LINE",
"100 655 LINE",
"323 655 LINE",
"323 1732 LINE"
);
},
{
closed = 1;
nodes = (
"684 1732 LINE",
"410 1379 LINE",
"247 1162 LINE",
"305 938 LINE",
"544 1191 LINE",
"967 1732 LINE"
);
},
{
closed = 1;
nodes = (
"973 655 LINE",
"571 1290 LINE",
"400 1144 LINE",
"700 655 LINE"
);
}
);
userData = {
com.typemytype.robofont.mark = (
0.939,
1,
0.6,
1
);
};
width = 993;
}
);
unicode = 1D37;
}
{
glyphname = Ksmall;
layers = (
{
anchors = (
{
name = bottom;
position = "{505, 0}";
},
{
name = top;
position = "{505, 1290}";
},
{
name = top0315;
position = "{1106, 1290}";
}
);
layerId = "7E29EDC2-3C1E-4E70-8272-9573F49A38C1";
paths = (
{
closed = 1;
nodes = (
"137 1082 LINE",
"137 0 LINE",
"337 0 LINE",
"337 1082 LINE"
);
},
{
closed = 1;
nodes = (
"805 1082 LINE",
"419 620 LINE",
"239 620 LINE",
"270 458 LINE",
"500 458 LINE",
"1046 1082 LINE"
);
},
{
closed = 1;
nodes = (
"1079 0 LINE",
"539 630 LINE",
"411 488 LINE",
"827 0 LINE"
);
}
);
userData = {
com.typemytype.robofont.mark = (
0.939,
1,
0.6,
1
);
};
width = 1106;
},
{
anchors = (
{
name = bottom;
position = "{472, 0}";
},
{
name = top;
position = "{472, 1290}";
},
{
name = top0315;
position = "{1017, 1290}";
}
);
layerId = master01;
paths = (
{
closed = 1;
nodes = (
"172 1082 LINE",
"172 0 LINE",
"227 0 LINE",
"227 1082 LINE"
);
},
{
closed = 1;
nodes = (
"864 1082 LINE",
"435 582 LINE",
"208 582 LINE",
"205 529 LINE",
"462 529 LINE",
"942 1082 LINE"
);
},
{
closed = 1;
nodes = (
"1005 0 LINE",
"453 584 LINE",
"421 533 LINE",
"924 0 LINE"
);
}
);
userData = {
com.typemytype.robofont.mark = (
0.939,
1,
0.6,
1
);
};
width = 1017;
},
{
anchors = (
{
name = bottom;
position = "{557, 0}";
},
{
name = top;
position = "{557, 1290}";
},
{
name = top0315;
position = "{1183, 1290}";
}
);
layerId = "3F40CA7F-E6AC-489E-A736-3B62737B1DDA";
paths = (
{
closed = 1;
nodes = (
"122 1082 LINE",
"122 0 LINE",
"444 0 LINE",
"444 1082 LINE"
);
},
{
closed = 1;
nodes = (
"735 1082 LINE",
"533 694 LINE",
"359 694 LINE",
"396 379 LINE",
"684 379 LINE",
"1146 1082 LINE"
);
},
{
closed = 1;
nodes = (
"1158 0 LINE",
"813 604 LINE",
"530 443 LINE",
"744 0 LINE"
);
}
);
userData = {
com.typemytype.robofont.mark = (
0.939,
1,
0.6,
1
);
};
width = 1183;
}
);
unicode = 1D0B;
}
{
glyphname = Lcomb;
layers = (
{
anchors = (
{
name = _marktop;
position = "{-564, 1170}";
}
);
layerId = "7E29EDC2-3C1E-4E70-8272-9573F49A38C1";
paths = (
{
closed = 1;
nodes = (
"-656 1308 LINE",
"-656 1201 LINE",
"-365 1201 LINE",
"-365 1308 LINE"
);
},
{
closed = 1;
nodes = (
"-764 1796 LINE",
"-764 1201 LINE",
"-632 1201 LINE",
"-632 1796 LINE"
);
}
);
userData = {
com.typemytype.robofont.mark = (
0.967,
0.6,
1,
1
);
};
width = 0;
},
{
anchors = (
{
name = _marktop;
position = "{-533, 1170}";
}
);
layerId = master01;
paths = (
{
closed = 1;
nodes = (
"-694 1242 LINE",
"-694 1202 LINE",
"-361 1202 LINE",
"-361 1242 LINE"
);
},
{
closed = 1;
nodes = (
"-706 1797 LINE",
"-706 1202 LINE",
"-666 1202 LINE",
"-666 1797 LINE"
);
}
);
userData = {
com.typemytype.robofont.mark = (
0.967,
0.6,
1,
1
);
};
width = 0;
},
{
anchors = (
{
name = _marktop;
position = "{-542, 1170}";
}
);
layerId = "3F40CA7F-E6AC-489E-A736-3B62737B1DDA";
paths = (
{
closed = 1;
nodes = (
"-641 1333 LINE",
"-641 1201 LINE",
"-340 1201 LINE",
"-340 1333 LINE"
);
},
{
closed = 1;
nodes = (
"-744 1796 LINE",
"-744 1201 LINE",
"-580 1201 LINE",
"-580 1796 LINE"
);
}
);
userData = {
com.typemytype.robofont.mark = (
0.967,
0.6,
1,
1
);
};
width = 0;
}
);
unicode = 1DDE;
}
{
glyphname = Lmod;
layers = (
{
layerId = "7E29EDC2-3C1E-4E70-8272-9573F49A38C1";
paths = (
{
closed = 1;
nodes = (
"222 804 LINE",
"222 651 LINE",
"787 651 LINE",
"787 804 LINE"
);
},
{
closed = 1;
nodes = (
"100 1728 LINE",
"100 651 LINE",
"282 651 LINE",
"282 1728 LINE"
);
}
);
userData = {
com.typemytype.robofont.mark = (
0.939,
1,
0.6,
1
);
};
width = 807;
},
{
layerId = master01;
paths = (
{
closed = 1;
nodes = (
"135 705 LINE",
"135 651 LINE",
"713 651 LINE",
"713 705 LINE"
);
},
{
closed = 1;
nodes = (
"120 1728 LINE",
"120 651 LINE",
"174 651 LINE",
"174 1728 LINE"
);
}
);
userData = {
com.typemytype.robofont.mark = (
0.967,
0.6,
1,
1
);
};
width = 753;
},
{
layerId = "3F40CA7F-E6AC-489E-A736-3B62737B1DDA";
paths = (
{
closed = 1;
nodes = (
"259 847 LINE",
"259 655 LINE",
"802 655 LINE",
"802 847 LINE"
);
},
{
closed = 1;
nodes = (
"100 1732 LINE",
"100 655 LINE",
"323 655 LINE",
"323 1732 LINE"
);
}
);
userData = {
com.typemytype.robofont.mark = (
0.939,
1,
0.6,
1
);
};
width = 842;
}
);
unicode = 1D38;
}
{
glyphname = Lsmallmod;
layers = (
{
layerId = "7E29EDC2-3C1E-4E70-8272-9573F49A38C1";
paths = (
{
closed = 1;
nodes = (
"248 804 LINE",
"248 651 LINE",
"670 651 LINE",
"670 804 LINE"
);
},
{
closed = 1;
nodes = (
"100 1451 LINE",
"100 651 LINE",
"283 651 LINE",
"283 1451 LINE"
);
}
);
userData = {
com.typemytype.robofont.mark = (
0.967,
0.6,
1,
1
);
};
width = 710;
},
{
layerId = master01;
paths = (
{
closed = 1;
nodes = (
"138 705 LINE",
"138 651 LINE",
"621 651 LINE",
"621 705 LINE"
);
},
{
closed = 1;
nodes = (
"120 1456 LINE",
"120 651 LINE",
"174 651 LINE",
"174 1456 LINE"
);
}
);
userData = {
com.typemytype.robofont.mark = (
0.967,
0.6,
1,
1
);
};
width = 663;
},
{
layerId = "3F40CA7F-E6AC-489E-A736-3B62737B1DDA";
paths = (
{
closed = 1;
nodes = (
"263 847 LINE",
"263 654 LINE",
"766 654 LINE",
"766 847 LINE"
);
},
{
closed = 1;
nodes = (
"104 1456 LINE",
"104 654 LINE",
"326 654 LINE",
"326 1456 LINE"
);
}
);
userData = {
com.typemytype.robofont.mark = (
0.967,
0.6,
1,
1
);
};
width = 804;
}
);
unicode = 1DAB;
}
{
glyphname = LstrokeSmall;
layers = (
{
anchors = (
{
name = bottom;
position = "{541, 0}";
},
{
name = top;
position = "{274, 1290}";
},
{
name = top0315;
position = "{925, 1290}";
}
);
layerId = "7E29EDC2-3C1E-4E70-8272-9573F49A38C1";
paths = (
{
closed = 1;
nodes = (
"323 158 LINE",
"323 0 LINE",
"893 0 LINE",
"893 158 LINE"
);
},
{
closed = 1;
nodes = (
"170 1082 LINE",
"170 0 LINE",
"370 0 LINE",
"370 1082 LINE"
);
},
{
closed = 1;
nodes = (
"48 653 LINE",
"48 482 LINE",
"637 669 LINE",
"637 840 LINE"
);
}
);
userData = {
com.typemytype.robofont.mark = (
0.939,
1,
0.6,
1
);
};
width = 925;
},
{
anchors = (
{
name = bottom;
position = "{541, 0}";
},
{
name = top;
position = "{242, 1290}";
},
{
name = top0315;
position = "{922, 1290}";
}
);
layerId = master01;
paths = (
{
closed = 1;
nodes = (
"237 54 LINE",
"237 0 LINE",
"890 0 LINE",
"890 54 LINE"
);
},
{
closed = 1;
nodes = (
"213 1082 LINE",
"213 0 LINE",
"267 0 LINE",
"267 1082 LINE"
);
},
{
closed = 1;
nodes = (
"40 575 LINE",
"40 518 LINE",
"630 705 LINE",
"630 762 LINE"
);
}
);
userData = {
com.typemytype.robofont.mark = (
0.939,
1,
0.6,
1
);
};
width = 922;
},
{
anchors = (
{
name = bottom;
position = "{561, 0}";
},
{
name = top;
position = "{323, 1290}";
},
{
name = top0315;
position = "{992, 1290}";
}
);
layerId = "3F40CA7F-E6AC-489E-A736-3B62737B1DDA";
paths = (
{
closed = 1;
nodes = (
"361 258 LINE",
"361 0 LINE",
"952 0 LINE",
"952 258 LINE"
);
},
{
closed = 1;
nodes = (
"160 1082 LINE",
"160 0 LINE",
"482 0 LINE",
"482 1082 LINE"
);
},
{
closed = 1;
nodes = (
"40 630 LINE",
"40 422 LINE",
"711 609 LINE",
"711 817 LINE"
);
}
);
userData = {
com.typemytype.robofont.mark = (
0.939,
1,
0.6,
1
);
};
width = 992;
}
);
unicode = 1D0C;
}
{
glyphname = Mcomb;
layers = (
{
anchors = (
{
name = _marktop;
position = "{-589, 1170}";
}
);
layerId = "7E29EDC2-3C1E-4E70-8272-9573F49A38C1";
paths = (
{
closed = 1;
nodes = (
"-767 1796 LINE",
"-884 1796 LINE",
"-643 1201 LINE",
"-532 1201 LINE",
"-290 1796 LINE",
"-407 1796 LINE",
"-587 1344 LINE"
);
},
{
closed = 1;
nodes = (
"-929 1796 LINE",
"-929 1201 LINE",
"-797 1201 LINE",
"-797 1796 LINE"
);
},
{
closed = 1;
nodes = (
"-249 1201 LINE",
"-249 1796 LINE",
"-381 1796 LINE",
"-381 1201 LINE"
);
}
);
userData = {
com.typemytype.robofont.mark = (
0.967,
0.6,
1,
1
);
};
width = 0;
},
{
anchors = (
{
name = _marktop;
position = "{-563, 1170}";
}
);
layerId = master01;
paths = (
{
closed = 1;
nodes = (
"-813 1797 LINE",
"-855 1797 LINE",
"-577 1202 LINE",
"-546 1202 LINE",
"-270 1797 LINE",
"-313 1797 LINE",
"-562 1254 LINE"
);
},
{
closed = 1;
nodes = (
"-860 1797 LINE",
"-860 1202 LINE",
"-820 1202 LINE",
"-820 1797 LINE"
);
},
{
closed = 1;
nodes = (
"-266 1202 LINE",
"-266 1797 LINE",
"-306 1797 LINE",
"-306 1202 LINE"
);
}
);
userData = {
com.typemytype.robofont.mark = (
0.967,
0.6,
1,
1
);
};
width = 0;
},
{
anchors = (
{
name = _marktop;
position = "{-577, 1170}";
}
);
layerId = "3F40CA7F-E6AC-489E-A736-3B62737B1DDA";
paths = (
{
closed = 1;
nodes = (
"-710 1796 LINE",
"-839 1796 LINE",
"-635 1201 LINE",
"-525 1201 LINE",
"-320 1796 LINE",
"-449 1796 LINE",
"-580 1391 LINE"
);
},
{
closed = 1;
nodes = (
"-912 1796 LINE",
"-912 1201 LINE",
"-748 1201 LINE",
"-748 1796 LINE"
);
},
{
closed = 1;
nodes = (
"-243 1201 LINE",
"-243 1796 LINE",
"-407 1796 LINE",
"-407 1201 LINE"
);
}
);
userData = {
com.typemytype.robofont.mark = (
0.967,
0.6,
1,
1
);
};
width = 0;
}
);
unicode = 1DDF;
}
{
glyphname = Mmod;
layers = (
{
layerId = "7E29EDC2-3C1E-4E70-8272-9573F49A38C1";
paths = (
{
closed = 1;
nodes = (
"595 651 LINE",
"748 651 LINE",
"1225 1728 LINE",
"1048 1728 LINE",
"672 884 LINE",
"299 1728 LINE",
"123 1728 LINE"
);
},
{
closed = 1;
nodes = (
"100 651 LINE",
"282 651 LINE",
"282 1073 LINE",
"261 1728 LINE",
"100 1728 LINE"
);
},
{
closed = 1;
nodes = (
"1063 1073 LINE",
"1063 651 LINE",
"1247 651 LINE",
"1247 1728 LINE",
"1084 1728 LINE"
);
}
);
userData = {
com.typemytype.robofont.mark = (
0.939,
1,
0.6,
1
);
};
width = 1347;
},
{
layerId = master01;
paths = (
{
closed = 1;
nodes = (
"597 651 LINE",
"643 651 LINE",
"1119 1728 LINE",
"1058 1728 LINE",
"620 728 LINE",
"183 1728 LINE",
"122 1728 LINE"
);
},
{
closed = 1;
nodes = (
"120 651 LINE",
"174 651 LINE",
"174 1171 LINE",
"174 1728 LINE",
"120 1728 LINE"
);
},
{
closed = 1;
nodes = (
"1069 1171 LINE",
"1069 651 LINE",
"1123 651 LINE",
"1123 1728 LINE",
"1069 1728 LINE"
);
}
);
userData = {
com.typemytype.robofont.mark = (
0.967,
0.6,
1,
1
);
};
width = 1243;
},
{
layerId = "3F40CA7F-E6AC-489E-A736-3B62737B1DDA";
paths = (
{
closed = 1;
nodes = (
"578 655 LINE",
"738 655 LINE",
"1118 1732 LINE",
"918 1732 LINE",
"658 972 LINE",
"398 1732 LINE",
"198 1732 LINE"
);
},
{
closed = 1;
nodes = (
"100 655 LINE",
"324 655 LINE",
"324 922 LINE",
"287 1732 LINE",
"100 1732 LINE"
);
},
{
closed = 1;
nodes = (
"994 922 LINE",
"994 655 LINE",
"1216 655 LINE",
"1216 1732 LINE",
"1031 1732 LINE"
);
}
);
userData = {
com.typemytype.robofont.mark = (
0.939,
1,
0.6,
1
);
};
width = 1316;
}
);
unicode = 1D39;
}
{
glyphname = Msmall;
layers = (
{
anchors = (
{
name = bottom;
position = "{766, 0}";
},
{
name = top;
position = "{766, 1290}";
},
{
name = top0315;
position = "{1524, 1290}";
}
);
layerId = "7E29EDC2-3C1E-4E70-8272-9573F49A38C1";
paths = (
{
closed = 1;
nodes = (
"413 1082 LINE",
"222 1082 LINE",
"696 0 LINE",
"834 0 LINE",
"1310 1082 LINE",
"1119 1082 LINE",
"765 260 LINE"
);
},
{
closed = 1;
nodes = (
"155 1082 LINE",
"155 0 LINE",
"355 0 LINE",
"355 1082 LINE"
);
},
{
closed = 1;
nodes = (
"1369 0 LINE",
"1369 1082 LINE",
"1169 1082 LINE",
"1169 0 LINE"
);
}
);
userData = {
com.typemytype.robofont.mark = (
0.939,
1,
0.6,
1
);
};
width = 1524;
},
{
anchors = (
{
name = bottom;
position = "{738, 0}";
},
{
name = top;
position = "{738, 1290}";
},
{
name = top0315;
position = "{1467, 1290}";
}
);
layerId = master01;
paths = (
{
closed = 1;
nodes = (
"246 1082 LINE",
"187 1082 LINE",
"717 0 LINE",
"759 0 LINE",
"1291 1082 LINE",
"1230 1082 LINE",
"738 82 LINE"
);
},
{
closed = 1;
nodes = (
"172 1082 LINE",
"172 0 LINE",
"226 0 LINE",
"226 1082 LINE"
);
},
{
closed = 1;
nodes = (
"1295 0 LINE",
"1295 1082 LINE",
"1240 1082 LINE",
"1240 0 LINE"
);
}
);
userData = {
com.typemytype.robofont.mark = (
0.939,
1,
0.6,
1
);
};
width = 1467;
},
{
anchors = (
{
name = bottom;
position = "{743, 0}";
},
{
name = top;
position = "{743, 1290}";
},
{
name = top0315;
position = "{1499, 1290}";
}
);
layerId = "3F40CA7F-E6AC-489E-A736-3B62737B1DDA";
paths = (
{
closed = 1;
nodes = (
"490 1082 LINE",
"236 1082 LINE",
"637 0 LINE",
"852 0 LINE",
"1254 1082 LINE",
"1001 1082 LINE",
"744 372 LINE"
);
},
{
closed = 1;
nodes = (
"94 1082 LINE",
"94 0 LINE",
"416 0 LINE",
"416 1082 LINE"
);
},
{
closed = 1;
nodes = (
"1405 0 LINE",
"1405 1082 LINE",
"1083 1082 LINE",
"1083 0 LINE"
);
}
);
userData = {
com.typemytype.robofont.mark = (
0.939,
1,
0.6,
1
);
};
width = 1499;
}
);
unicode = 1D0D;
}
{
glyphname = NReversedmod;
layers = (
{
layerId = "7E29EDC2-3C1E-4E70-8272-9573F49A38C1";
paths = (
{
closed = 1;
nodes = (
"930 1584 LINE",
"818 1728 LINE",
"178 785 LINE",
"284 651 LINE"
);
},
{
closed = 1;
nodes = (
"1000 651 LINE",
"1000 1728 LINE",
"818 1728 LINE",
"818 651 LINE"
);
},
{
closed = 1;
nodes = (
"282 651 LINE",
"282 1728 LINE",
"100 1728 LINE",
"100 651 LINE"
);
}
);
userData = {
com.typemytype.robofont.mark = (
0.939,
1,
0.6,
1
);
};
width = 1100;
},
{
layerId = master01;
paths = (
{
closed = 1;
nodes = (
"885 1698 LINE",
"842 1728 LINE",
"129 681 LINE",
"174 651 LINE"
);
},
{
closed = 1;
nodes = (
"896 651 LINE",
"896 1728 LINE",
"842 1728 LINE",
"842 651 LINE"
);
},
{
closed = 1;
nodes = (
"174 651 LINE",
"174 1728 LINE",
"120 1728 LINE",
"120 651 LINE"
);
}
);
userData = {
com.typemytype.robofont.mark = (
0.967,
0.6,
1,
1
);
};
width = 1016;
},
{
layerId = "3F40CA7F-E6AC-489E-A736-3B62737B1DDA";
paths = (
{
closed = 1;
nodes = (
"908 1643 LINE",
"733 1732 LINE",
"147 745 LINE",
"323 655 LINE"
);
},
{
closed = 1;
nodes = (
"957 655 LINE",
"957 1732 LINE",
"733 1732 LINE",
"733 655 LINE"
);
},
{
closed = 1;
nodes = (
"323 655 LINE",
"323 1732 LINE",
"100 1732 LINE",
"100 655 LINE"
);
}
);
userData = {
com.typemytype.robofont.mark = (
0.939,
1,
0.6,
1
);
};
width = 1057;
}
);
unicode = 1D3B;
}
{
glyphname = Ncomb;
layers = (
{
anchors = (
{
name = _marktop;
position = "{-604, 1170}";
}
);
layerId = "7E29EDC2-3C1E-4E70-8272-9573F49A38C1";
paths = (
{
closed = 1;
nodes = (
"-755 1796 LINE",
"-858 1726 LINE",
"-453 1201 LINE",
"-360 1281 LINE"
);
},
{
closed = 1;
nodes = (
"-887 1796 LINE",
"-887 1201 LINE",
"-755 1201 LINE",
"-755 1796 LINE"
);
},
{
closed = 1;
nodes = (
"-453 1796 LINE",
"-453 1201 LINE",
"-321 1201 LINE",
"-321 1796 LINE"
);
}
);
userData = {
com.typemytype.robofont.mark = (
0.967,
0.6,
1,
1
);
};
width = 0;
},
{
anchors = (
{
name = _marktop;
position = "{-562, 1170}";
}
);
layerId = master01;
paths = (
{
closed = 1;
nodes = (
"-767 1797 LINE",
"-793 1768 LINE",
"-357 1202 LINE",
"-330 1231 LINE"
);
},
{
closed = 1;
nodes = (
"-807 1797 LINE",
"-807 1202 LINE",
"-767 1202 LINE",
"-767 1797 LINE"
);
},
{
closed = 1;
nodes = (
"-357 1797 LINE",
"-357 1202 LINE",
"-317 1202 LINE",
"-317 1797 LINE"
);
}
);
userData = {
com.typemytype.robofont.mark = (
0.967,
0.6,
1,
1
);
};
width = 0;
},
{
anchors = (
{
name = _marktop;
position = "{-576, 1170}";
}
);
layerId = "3F40CA7F-E6AC-489E-A736-3B62737B1DDA";
paths = (
{
closed = 1;
nodes = (
"-683 1797 LINE",
"-805 1747 LINE",
"-471 1202 LINE",
"-347 1252 LINE"
);
},
{
closed = 1;
nodes = (
"-847 1797 LINE",
"-847 1202 LINE",
"-683 1202 LINE",
"-683 1797 LINE"
);
},
{
closed = 1;
nodes = (
"-471 1797 LINE",
"-471 1202 LINE",
"-306 1202 LINE",
"-306 1797 LINE"
);
}
);
userData = {
com.typemytype.robofont.mark = (
0.967,
0.6,
1,
1
);
};
width = 0;
}
);
unicode = 1DE1;
}
{
glyphname = Nmod;
layers = (
{
layerId = "7E29EDC2-3C1E-4E70-8272-9573F49A38C1";
paths = (
{
closed = 1;
nodes = (
"282 1728 LINE",
"170 1584 LINE",
"816 651 LINE",
"922 785 LINE"
);
},
{
closed = 1;
nodes = (
"100 1728 LINE",
"100 651 LINE",
"282 651 LINE",
"282 1728 LINE"
);
},
{
closed = 1;
nodes = (
"818 1728 LINE",
"818 651 LINE",
"1000 651 LINE",
"1000 1728 LINE"
);
}
);
userData = {
com.typemytype.robofont.mark = (
0.939,
1,
0.6,
1
);
};
width = 1100;
},
{
layerId = master01;
paths = (
{
closed = 1;
nodes = (
"174 1728 LINE",
"131 1698 LINE",
"842 651 LINE",
"887 681 LINE"
);
},
{
closed = 1;
nodes = (
"120 1728 LINE",
"120 651 LINE",
"174 651 LINE",
"174 1728 LINE"
);
},
{
closed = 1;
nodes = (
"842 1728 LINE",
"842 651 LINE",
"896 651 LINE",
"896 1728 LINE"
);
}
);
userData = {
com.typemytype.robofont.mark = (
0.967,
0.6,
1,
1
);
};
width = 1016;
},
{
layerId = "3F40CA7F-E6AC-489E-A736-3B62737B1DDA";
paths = (
{
closed = 1;
nodes = (
"324 1732 LINE",
"149 1643 LINE",
"734 655 LINE",
"910 745 LINE"
);
},
{
closed = 1;
nodes = (
"100 1732 LINE",
"100 655 LINE",
"324 655 LINE",
"324 1732 LINE"
);
},
{
closed = 1;
nodes = (
"734 1732 LINE",
"734 655 LINE",
"957 655 LINE",
"957 1732 LINE"
);
}
);
userData = {
com.typemytype.robofont.mark = (
0.939,
1,
0.6,
1
);
};
width = 1057;
}
);
unicode = 1D3A;
}
{
glyphname = Nsmallmodifier;
layers = (
{
layerId = "7E29EDC2-3C1E-4E70-8272-9573F49A38C1";
paths = (
{
closed = 1;
nodes = (
"283 1451 LINE",
"163 1316 LINE",
"702 651 LINE",
"834 777 LINE"
);
},
{
closed = 1;
nodes = (
"100 1451 LINE",
"100 651 LINE",
"283 651 LINE",
"283 1451 LINE"
);
},
{
closed = 1;
nodes = (
"702 1451 LINE",
"702 651 LINE",
"885 651 LINE",
"885 1451 LINE"
);
}
);
userData = {
com.typemytype.robofont.mark = (
0.967,
0.6,
1,
1
);
};
width = 985;
},
{
layerId = master01;
paths = (
{
closed = 1;
nodes = (
"174 1456 LINE",
"144 1406 LINE",
"768 651 LINE",
"800 700 LINE"
);
},
{
closed = 1;
nodes = (
"120 1456 LINE",
"120 651 LINE",
"174 651 LINE",
"174 1456 LINE"
);
},
{
closed = 1;
nodes = (
"768 1456 LINE",
"768 651 LINE",
"822 651 LINE",
"822 1456 LINE"
);
}
);
userData = {
com.typemytype.robofont.mark = (
0.939,
1,
0.6,
1
);
};
width = 942;
},
{
layerId = "3F40CA7F-E6AC-489E-A736-3B62737B1DDA";
paths = (
{
closed = 1;
nodes = (
"324 1456 LINE",
"121 1335 LINE",
"700 655 LINE",
"898 777 LINE"
);
},
{
closed = 1;
nodes = (
"100 1456 LINE",
"100 655 LINE",
"324 655 LINE",
"324 1456 LINE"
);
},
{
closed = 1;
nodes = (
"700 1456 LINE",
"700 655 LINE",
"924 655 LINE",
"924 1456 LINE"
);
}
);
userData = {
com.typemytype.robofont.mark = (
0.967,
0.6,
1,
1
);
};
width = 1024;
}
);
unicode = 1DB0;
}
{
glyphname = OUmod;
layers = (
{
layerId = "7E29EDC2-3C1E-4E70-8272-9573F49A38C1";
paths = (
{
closed = 1;
nodes = (
"60 801 OFFCURVE",
"210 636 OFFCURVE",
"436 636 CURVE SMOOTH",
"663 636 OFFCURVE",
"812 801 OFFCURVE",
"812 1043 CURVE SMOOTH",
"812 1059 LINE SMOOTH",
"812 1300 OFFCURVE",
"663 1466 OFFCURVE",
"435 1466 CURVE SMOOTH",
"210 1466 OFFCURVE",
"60 1300 OFFCURVE",
"60 1059 CURVE SMOOTH",
"60 1043 LINE"
);
},
{
closed = 1;
nodes = (
"243 1213 OFFCURVE",
"309 1313 OFFCURVE",
"435 1313 CURVE SMOOTH",
"562 1313 OFFCURVE",
"629 1213 OFFCURVE",
"629 1059 CURVE SMOOTH",
"629 1043 LINE SMOOTH",
"629 887 OFFCURVE",
"562 789 OFFCURVE",
"436 789 CURVE SMOOTH",
"309 789 OFFCURVE",
"243 887 OFFCURVE",
"243 1043 CURVE SMOOTH",
"243 1059 LINE"
);
},
{
closed = 1;
nodes = (
"629 1529 OFFCURVE",
"562 1466 OFFCURVE",
"436 1466 CURVE SMOOTH",
"309 1466 OFFCURVE",
"243 1529 OFFCURVE",
"243 1728 CURVE",
"60 1728 LINE",
"60 1426 OFFCURVE",
"210 1313 OFFCURVE",
"436 1313 CURVE SMOOTH",
"663 1313 OFFCURVE",
"812 1426 OFFCURVE",
"812 1728 CURVE",
"629 1728 LINE"
);
}
);
userData = {
com.typemytype.robofont.mark = (
0.967,
0.6,
1,
1
);
};
width = 872;
},
{
layerId = master01;
paths = (
{
closed = 1;
nodes = (
"81 794 OFFCURVE",
"215 638 OFFCURVE",
"410 638 CURVE SMOOTH",
"605 638 OFFCURVE",
"737 794 OFFCURVE",
"737 1014 CURVE SMOOTH",
"737 1043 LINE SMOOTH",
"737 1262 OFFCURVE",
"605 1422 OFFCURVE",
"409 1422 CURVE SMOOTH",
"215 1422 OFFCURVE",
"81 1262 OFFCURVE",
"81 1043 CURVE SMOOTH",
"81 1014 LINE"
);
},
{
closed = 1;
nodes = (
"134 1218 OFFCURVE",
"226 1368 OFFCURVE",
"409 1368 CURVE SMOOTH",
"593 1368 OFFCURVE",
"683 1218 OFFCURVE",
"683 1043 CURVE SMOOTH",
"683 1014 LINE SMOOTH",
"683 834 OFFCURVE",
"584 692 OFFCURVE",
"410 692 CURVE SMOOTH",
"236 692 OFFCURVE",
"134 834 OFFCURVE",
"134 1014 CURVE SMOOTH",
"134 1043 LINE"
);
},
{
closed = 1;
nodes = (
"682 1539 OFFCURVE",
"591 1422 OFFCURVE",
"409 1422 CURVE SMOOTH",
"225 1422 OFFCURVE",
"134 1539 OFFCURVE",
"134 1728 CURVE",
"80 1728 LINE",
"80 1499 OFFCURVE",
"214 1368 OFFCURVE",
"409 1368 CURVE SMOOTH",
"604 1368 OFFCURVE",
"736 1499 OFFCURVE",
"736 1728 CURVE",
"682 1728 LINE"
);
}
);
userData = {
com.typemytype.robofont.mark = (
0.939,
1,
0.6,
1
);
};
width = 817;
},
{
layerId = "3F40CA7F-E6AC-489E-A736-3B62737B1DDA";
paths = (
{
closed = 1;
nodes = (
"60 829 OFFCURVE",
"193 641 OFFCURVE",
"460 641 CURVE SMOOTH",
"727 641 OFFCURVE",
"859 829 OFFCURVE",
"859 1031 CURVE SMOOTH",
"859 1103 LINE SMOOTH",
"859 1328 OFFCURVE",
"727 1503 OFFCURVE",
"459 1503 CURVE SMOOTH",
"193 1503 OFFCURVE",
"60 1329 OFFCURVE",
"60 1103 CURVE SMOOTH",
"60 1031 LINE"
);
},
{
closed = 1;
nodes = (
"283 1233 OFFCURVE",
"351 1310 OFFCURVE",
"459 1310 CURVE SMOOTH",
"569 1310 OFFCURVE",
"636 1233 OFFCURVE",
"636 1097 CURVE SMOOTH",
"636 1046 LINE SMOOTH",
"636 899 OFFCURVE",
"568 834 OFFCURVE",
"460 834 CURVE SMOOTH",
"350 834 OFFCURVE",
"283 899 OFFCURVE",
"283 1046 CURVE SMOOTH",
"283 1097 LINE"
);
},
{
closed = 1;
nodes = (
"636 1560 OFFCURVE",
"576 1504 OFFCURVE",
"459 1504 CURVE SMOOTH",
"338 1504 OFFCURVE",
"283 1560 OFFCURVE",
"283 1732 CURVE",
"61 1732 LINE",
"61 1466 OFFCURVE",
"191 1310 OFFCURVE",
"459 1310 CURVE SMOOTH",
"725 1310 OFFCURVE",
"859 1466 OFFCURVE",
"859 1732 CURVE",
"636 1732 LINE"
);
}
);
userData = {
com.typemytype.robofont.mark = (
0.939,
1,
0.6,
1
);
};
width = 919;
}
);
unicode = 1D3D;
}
{
glyphname = OUsmall;
layers = (
{
anchors = (
{
name = bottom;
position = "{490, 0}";
},
{
name = top;
position = "{490, 1290}";
},
{
name = top0315;
position = "{978, 1290}";
}
);
layerId = "7E29EDC2-3C1E-4E70-8272-9573F49A38C1";
paths = (
{
closed = 1;
nodes = (
"91 126 OFFCURVE",
"263 -20 OFFCURVE",
"490 -20 CURVE SMOOTH",
"717 -20 OFFCURVE",
"888 126 OFFCURVE",
"888 388 CURVE SMOOTH",
"888 403 LINE SMOOTH",
"888 635 OFFCURVE",
"717 822 OFFCURVE",
"489 822 CURVE SMOOTH",
"263 822 OFFCURVE",
"91 635 OFFCURVE",
"91 403 CURVE SMOOTH",
"91 388 LINE"
);
},
{
closed = 1;
nodes = (
"291 558 OFFCURVE",
"352 663 OFFCURVE",
"489 663 CURVE SMOOTH",
"626 663 OFFCURVE",
"688 558 OFFCURVE",
"688 403 CURVE SMOOTH",
"688 388 LINE SMOOTH",
"688 231 OFFCURVE",
"626 140 OFFCURVE",
"490 140 CURVE SMOOTH",
"352 140 OFFCURVE",
"291 231 OFFCURVE",
"291 388 CURVE SMOOTH",
"291 403 LINE"
);
},
{
closed = 1;
nodes = (
"687 945 OFFCURVE",
"635 822 OFFCURVE",
"489 822 CURVE SMOOTH",
"341 822 OFFCURVE",
"290 945 OFFCURVE",
"290 1101 CURVE",
"90 1101 LINE",
"90 869 OFFCURVE",
"262 663 OFFCURVE",
"489 663 CURVE SMOOTH",
"716 663 OFFCURVE",
"887 869 OFFCURVE",
"887 1101 CURVE",
"687 1101 LINE"
);
}
);
userData = {
com.typemytype.robofont.mark = (
0.939,
1,
0.6,
1
);
};
width = 978;
},
{
anchors = (
{
name = bottom;
position = "{417, 0}";
},
{
name = top;
position = "{417, 1290}";
},
{
name = top0315;
position = "{833, 1290}";
}
);
layerId = master01;
paths = (
{
closed = 1;
nodes = (
"89 136 OFFCURVE",
"223 -20 OFFCURVE",
"418 -20 CURVE SMOOTH",
"613 -20 OFFCURVE",
"745 136 OFFCURVE",
"745 356 CURVE SMOOTH",
"745 385 LINE SMOOTH",
"745 604 OFFCURVE",
"613 764 OFFCURVE",
"417 764 CURVE SMOOTH",
"223 764 OFFCURVE",
"89 604 OFFCURVE",
"89 385 CURVE SMOOTH",
"89 356 LINE"
);
},
{
closed = 1;
nodes = (
"142 560 OFFCURVE",
"234 710 OFFCURVE",
"417 710 CURVE SMOOTH",
"601 710 OFFCURVE",
"691 560 OFFCURVE",
"691 385 CURVE SMOOTH",
"691 356 LINE SMOOTH",
"691 176 OFFCURVE",
"592 34 OFFCURVE",
"418 34 CURVE SMOOTH",
"244 34 OFFCURVE",
"142 176 OFFCURVE",
"142 356 CURVE SMOOTH",
"142 385 LINE"
);
},
{
closed = 1;
nodes = (
"690 922 OFFCURVE",
"599 764 OFFCURVE",
"417 764 CURVE SMOOTH",
"233 764 OFFCURVE",
"142 922 OFFCURVE",
"142 1101 CURVE",
"88 1101 LINE",
"88 882 OFFCURVE",
"222 710 OFFCURVE",
"417 710 CURVE SMOOTH",
"612 710 OFFCURVE",
"744 882 OFFCURVE",
"744 1101 CURVE",
"690 1101 LINE"
);
}
);
userData = {
com.typemytype.robofont.mark = (
0.939,
1,
0.6,
1
);
};
width = 833;
},
{
anchors = (
{
name = bottom;
position = "{515, 0}";
},
{
name = top;
position = "{515, 1290}";
},
{
name = top0315;
position = "{1035, 1290}";
}
);
layerId = "3F40CA7F-E6AC-489E-A736-3B62737B1DDA";
paths = (
{
closed = 1;
nodes = (
"58 136 OFFCURVE",
"251 -20 OFFCURVE",
"518 -20 CURVE SMOOTH",
"785 -20 OFFCURVE",
"977 136 OFFCURVE",
"977 417 CURVE SMOOTH",
"977 434 LINE SMOOTH",
"977 685 OFFCURVE",
"785 872 OFFCURVE",
"517 872 CURVE SMOOTH",
"251 872 OFFCURVE",
"58 685 OFFCURVE",
"58 434 CURVE SMOOTH",
"58 417 LINE"
);
},
{
closed = 1;
nodes = (
"381 540 OFFCURVE",
"409 612 OFFCURVE",
"517 612 CURVE SMOOTH",
"627 612 OFFCURVE",
"654 530 OFFCURVE",
"654 434 CURVE SMOOTH",
"654 417 LINE SMOOTH",
"654 318 OFFCURVE",
"626 240 OFFCURVE",
"518 240 CURVE SMOOTH",
"408 240 OFFCURVE",
"381 318 OFFCURVE",
"381 417 CURVE SMOOTH",
"381 434 LINE"
);
},
{
closed = 1;
nodes = (
"654 973 OFFCURVE",
"634 873 OFFCURVE",
"517 873 CURVE SMOOTH",
"396 873 OFFCURVE",
"381 973 OFFCURVE",
"381 1103 CURVE",
"59 1103 LINE",
"59 851 OFFCURVE",
"249 612 OFFCURVE",
"517 612 CURVE SMOOTH",
"783 612 OFFCURVE",
"977 851 OFFCURVE",
"977 1103 CURVE",
"654 1103 LINE"
);
}
);
userData = {
com.typemytype.robofont.mark = (
0.939,
1,
0.6,
1
);
};
width = 1035;
}
);
unicode = 1D15;
}
{
glyphname = Ohorn;
layers = (
{
anchors = (
{
name = bottom;
position = "{692, 0}";
},
{
name = top;
position = "{700, 1593}";
},
{
name = top0315;
position = "{1402, 1593}";
}
);
components = (
{
name = O;
transform = "{1, 0, 0, 1, -22, 0}";
}
);
layerId = "7E29EDC2-3C1E-4E70-8272-9573F49A38C1";
paths = (
{
closed = 1;
nodes = (
"1255 1428 OFFCURVE",
"1198 1328 OFFCURVE",
"1047 1328 CURVE",
"1047 1186 LINE",
"1304 1186 OFFCURVE",
"1435 1335 OFFCURVE",
"1435 1596 CURVE",
"1255 1596 LINE"
);
}
);
width = 1402;
},
{
anchors = (
{
name = bottom;
position = "{692, 0}";
},
{
name = top;
position = "{726, 1622}";
},
{
name = top0315;
position = "{1451, 1622}";
}
);
components = (
{
name = O;
transform = "{1, 0, 0, 1, 31, 0}";
}
);
layerId = master01;
paths = (
{
closed = 1;
nodes = (
"1405 1346 OFFCURVE",
"1356 1238 OFFCURVE",
"1146 1238 CURVE",
"1146 1184 LINE",
"1378 1184 OFFCURVE",
"1459 1309 OFFCURVE",
"1459 1541 CURVE",
"1405 1541 LINE"
);
}
);
width = 1451;
},
{
anchors = (
{
name = bottom;
position = "{680, 0}";
},
{
name = top;
position = "{708, 1607}";
},
{
name = top0315;
position = "{1449, 1607}";
}
);
components = (
{
name = O;
}
);
layerId = "3F40CA7F-E6AC-489E-A736-3B62737B1DDA";
paths = (
{
closed = 1;
nodes = (
"1278 1374 OFFCURVE",
"1245 1265 OFFCURVE",
"1110 1265 CURVE",
"1110 1101 LINE",
"1368 1101 OFFCURVE",
"1479 1267 OFFCURVE",
"1479 1556 CURVE",
"1278 1556 LINE"
);
}
);
width = 1449;
}
);
leftKerningGroup = C;
unicode = 01A0;
}
{
glyphname = Oi;
layers = (
{
layerId = "7E29EDC2-3C1E-4E70-8272-9573F49A38C1";
paths = (
{
closed = 1;
nodes = (
"1043 728 LINE",
"1043 251 LINE",
"1004 208 OFFCURVE",
"936 146 OFFCURVE",
"737 146 CURVE SMOOTH",
"462 146 OFFCURVE",
"322 358 OFFCURVE",
"322 676 CURVE SMOOTH",
"322 772 LINE",
"117 770 LINE",
"117 676 LINE SMOOTH",
"117 223 OFFCURVE",
"375 -20 OFFCURVE",
"728 -20 CURVE SMOOTH",
"1060 -20 OFFCURVE",
"1186 116 OFFCURVE",
"1241 196 CURVE",
"1241 728 LINE {name = hr00;}"
);
},
{
closed = 1;
nodes = (
"1186 1340 OFFCURVE",
"1060 1476 OFFCURVE",
"728 1476 CURVE SMOOTH",
"373 1476 OFFCURVE",
"117 1219 OFFCURVE",
"117 780 CURVE SMOOTH",
"117 696 LINE",
"322 694 LINE",
"322 780 LINE SMOOTH",
"322 1118 OFFCURVE",
"484 1310 OFFCURVE",
"728 1310 CURVE SMOOTH",
"936 1310 OFFCURVE",
"1004 1248 OFFCURVE",
"1043 1205 CURVE",
"1043 708 LINE",
"1241 708 LINE",
"1241 1260 LINE"
);
},
{
closed = 1;
nodes = (
"1428 1456 LINE",
"1149 1343 LINE",
"1149 1174 LINE",
"1383 1260 LINE",
"1383 -416 LINE",
"1583 -416 LINE",
"1583 1456 LINE"
);
}
);
userData = {
com.typemytype.robofont.mark = (
0.939,
1,
0.6,
1
);
};
width = 1752;
},
{
layerId = master01;
paths = (
{
closed = 1;
nodes = (
"1148 860 LINE",
"1148 181 LINE",
"1103 122 OFFCURVE",
"943 33 OFFCURVE",
"705 33 CURVE SMOOTH",
"397 33 OFFCURVE",
"198 277 OFFCURVE",
"198 620 CURVE SMOOTH",
"198 800 LINE",
"144 798 LINE",
"144 620 LINE SMOOTH",
"144 240 OFFCURVE",
"373 -21 OFFCURVE",
"705 -21 CURVE SMOOTH",
"989 -21 OFFCURVE",
"1155 90 OFFCURVE",
"1202 156 CURVE",
"1202 860 LINE"
);
},
{
closed = 1;
nodes = (
"1155 1365 OFFCURVE",
"989 1476 OFFCURVE",
"705 1476 CURVE SMOOTH",
"373 1476 OFFCURVE",
"144 1215 OFFCURVE",
"144 835 CURVE SMOOTH",
"144 657 LINE",
"198 655 LINE",
"198 835 LINE SMOOTH",
"198 1178 OFFCURVE",
"397 1422 OFFCURVE",
"705 1422 CURVE SMOOTH",
"943 1422 OFFCURVE",
"1103 1333 OFFCURVE",
"1148 1274 CURVE",
"1148 595 LINE",
"1202 595 LINE",
"1202 1299 LINE"
);
},
{
closed = 1;
nodes = (
"1360 1456 LINE",
"1168 1315 LINE",
"1168 1250 LINE",
"1356 1389 LINE",
"1356 -416 LINE",
"1410 -416 LINE",
"1410 1456 LINE"
);
}
);
userData = {
com.typemytype.robofont.mark = (
0.967,
0.6,
1,
1
);
};
width = 1610;
},
{
layerId = "3F40CA7F-E6AC-489E-A736-3B62737B1DDA";
paths = (
{
closed = 1;
nodes = (
"955 875 LINE",
"955 315 LINE",
"924 287 OFFCURVE",
"860 250 OFFCURVE",
"730 250 CURVE SMOOTH",
"516 250 OFFCURVE",
"415 404 OFFCURVE",
"415 686 CURVE SMOOTH",
"415 752 LINE",
"75 750 LINE",
"75 686 LINE SMOOTH",
"75 235 OFFCURVE",
"329 -20 OFFCURVE",
"710 -20 CURVE SMOOTH",
"1028 -20 OFFCURVE",
"1205 100 OFFCURVE",
"1277 182 CURVE",
"1277 874 LINE"
);
},
{
closed = 1;
nodes = (
"1205 1357 OFFCURVE",
"1028 1477 OFFCURVE",
"710 1477 CURVE SMOOTH",
"329 1477 OFFCURVE",
"75 1222 OFFCURVE",
"75 771 CURVE SMOOTH",
"75 697 LINE",
"415 695 LINE",
"415 771 LINE SMOOTH",
"415 1066 OFFCURVE",
"511 1207 OFFCURVE",
"730 1207 CURVE SMOOTH",
"845 1207 OFFCURVE",
"912 1181 OFFCURVE",
"955 1142 CURVE",
"955 582 LINE",
"1277 583 LINE",
"1277 1275 LINE"
);
},
{
closed = 1;
nodes = (
"1508 1456 LINE",
"1098 1264 LINE",
"1098 907 LINE",
"1428 1061 LINE",
"1428 -417 LINE",
"1750 -417 LINE",
"1750 1456 LINE"
);
}
);
userData = {
com.typemytype.robofont.mark = (
0.939,
1,
0.6,
1
);
};
width = 1868;
}
);
unicode = 01A2;
}
{
glyphname = Omod;
layers = (
{
layerId = "7E29EDC2-3C1E-4E70-8272-9573F49A38C1";
paths = (
{
closed = 1;
nodes = (
"969 1555 OFFCURVE",
"788 1742 OFFCURVE",
"514 1742 CURVE SMOOTH",
"249 1742 OFFCURVE",
"60 1555 OFFCURVE",
"60 1219 CURVE SMOOTH",
"60 1158 LINE SMOOTH",
"60 822 OFFCURVE",
"251 635 OFFCURVE",
"515 635 CURVE SMOOTH",
"789 635 OFFCURVE",
"969 822 OFFCURVE",
"969 1158 CURVE SMOOTH",
"969 1219 LINE"
);
},
{
closed = 1;
nodes = (
"786 907 OFFCURVE",
"699 788 OFFCURVE",
"515 788 CURVE SMOOTH",
"343 788 OFFCURVE",
"243 907 OFFCURVE",
"243 1158 CURVE SMOOTH",
"243 1220 LINE SMOOTH",
"243 1470 OFFCURVE",
"342 1589 OFFCURVE",
"514 1589 CURVE SMOOTH",
"696 1589 OFFCURVE",
"786 1470 OFFCURVE",
"786 1220 CURVE SMOOTH",
"786 1158 LINE"
);
}
);
userData = {
com.typemytype.robofont.mark = (
0.939,
1,
0.6,
1
);
};
width = 1029;
},
{
layerId = master01;
paths = (
{
closed = 1;
nodes = (
"893 1554 OFFCURVE",
"733 1746 OFFCURVE",
"486 1746 CURVE SMOOTH",
"238 1746 OFFCURVE",
"80 1554 OFFCURVE",
"80 1273 CURVE SMOOTH",
"80 1112 LINE SMOOTH",
"80 830 OFFCURVE",
"240 638 OFFCURVE",
"487 638 CURVE SMOOTH",
"735 638 OFFCURVE",
"893 830 OFFCURVE",
"893 1112 CURVE SMOOTH",
"893 1273 LINE"
);
},
{
closed = 1;
nodes = (
"839 858 OFFCURVE",
"709 692 OFFCURVE",
"487 692 CURVE SMOOTH",
"266 692 OFFCURVE",
"134 858 OFFCURVE",
"134 1112 CURVE SMOOTH",
"134 1274 LINE SMOOTH",
"134 1527 OFFCURVE",
"265 1692 OFFCURVE",
"486 1692 CURVE SMOOTH",
"708 1692 OFFCURVE",
"839 1527 OFFCURVE",
"839 1274 CURVE SMOOTH",
"839 1112 LINE"
);
}
);
userData = {
com.typemytype.robofont.mark = (
0.967,
0.6,
1,
1
);
};
width = 973;
},
{
layerId = "3F40CA7F-E6AC-489E-A736-3B62737B1DDA";
paths = (
{
closed = 1;
nodes = (
"988 1541 OFFCURVE",
"796 1743 OFFCURVE",
"523 1743 CURVE SMOOTH",
"250 1743 OFFCURVE",
"60 1541 OFFCURVE",
"60 1212 CURVE SMOOTH",
"60 1167 LINE SMOOTH",
"60 838 OFFCURVE",
"252 636 OFFCURVE",
"525 636 CURVE SMOOTH",
"798 636 OFFCURVE",
"988 838 OFFCURVE",
"988 1167 CURVE SMOOTH",
"988 1212 LINE"
);
},
{
closed = 1;
nodes = (
"765 941 OFFCURVE",
"667 828 OFFCURVE",
"525 828 CURVE SMOOTH",
"381 828 OFFCURVE",
"283 941 OFFCURVE",
"283 1167 CURVE SMOOTH",
"283 1214 LINE SMOOTH",
"283 1441 OFFCURVE",
"380 1551 OFFCURVE",
"523 1551 CURVE SMOOTH",
"665 1551 OFFCURVE",
"765 1441 OFFCURVE",
"765 1214 CURVE SMOOTH",
"765 1167 LINE"
);
}
);
userData = {
com.typemytype.robofont.mark = (
0.939,
1,
0.6,
1
);
};
width = 1048;
}
);
unicode = 1D3C;
}
{
glyphname = OopenSmall;
layers = (
{
anchors = (
{
name = bottom;
position = "{497, 0}";
},
{
name = top;
position = "{497, 1290}";
},
{
name = top0315;
position = "{1076, 1290}";
}
);
layerId = "7E29EDC2-3C1E-4E70-8272-9573F49A38C1";
paths = (
{
closed = 1;
nodes = (
"74 153 OFFCURVE",
"267 -20 OFFCURVE",
"498 -20 CURVE SMOOTH",
"829 -20 OFFCURVE",
"984 232 OFFCURVE",
"984 520 CURVE SMOOTH",
"984 562 LINE SMOOTH",
"984 850 OFFCURVE",
"828 1102 OFFCURVE",
"498 1102 CURVE SMOOTH",
"240 1102 OFFCURVE",
"74 929 OFFCURVE",
"64 709 CURVE",
"253 709 LINE",
"263 835 OFFCURVE",
"353 942 OFFCURVE",
"498 942 CURVE SMOOTH",
"722 942 OFFCURVE",
"784 743 OFFCURVE",
"784 562 CURVE SMOOTH",
"784 520 LINE SMOOTH",
"784 337 OFFCURVE",
"724 140 OFFCURVE",
"498 140 CURVE SMOOTH",
"370 140 OFFCURVE",
"263 229 OFFCURVE",
"253 343 CURVE",
"64 343 LINE"
);
}
);
userData = {
com.typemytype.robofont.mark = (
0.939,
1,
0.6,
1
);
};
width = 1076;
},
{
anchors = (
{
name = bottom;
position = "{502, 0}";
},
{
name = top;
position = "{502, 1290}";
},
{
name = top0315;
position = "{1039, 1290}";
}
);
layerId = master01;
paths = (
{
closed = 1;
nodes = (
"110 108 OFFCURVE",
"289 -21 OFFCURVE",
"500 -21 CURVE SMOOTH",
"781 -21 OFFCURVE",
"942 203 OFFCURVE",
"942 520 CURVE SMOOTH",
"942 562 LINE SMOOTH",
"942 879 OFFCURVE",
"781 1102 OFFCURVE",
"502 1102 CURVE SMOOTH",
"293 1102 OFFCURVE",
"109 973 OFFCURVE",
"99 725 CURVE",
"153 725 LINE",
"163 940 OFFCURVE",
"324 1048 OFFCURVE",
"502 1048 CURVE SMOOTH",
"767 1048 OFFCURVE",
"888 831 OFFCURVE",
"888 562 CURVE SMOOTH",
"888 520 LINE SMOOTH",
"888 249 OFFCURVE",
"767 33 OFFCURVE",
"500 33 CURVE SMOOTH",
"331 33 OFFCURVE",
"166 121 OFFCURVE",
"153 328 CURVE",
"99 328 LINE"
);
}
);
userData = {
com.typemytype.robofont.mark = (
0.967,
0.6,
1,
1
);
};
width = 1039;
},
{
anchors = (
{
name = bottom;
position = "{511, 0}";
},
{
name = top;
position = "{511, 1290}";
},
{
name = top0315;
position = "{1067, 1290}";
}
);
layerId = "3F40CA7F-E6AC-489E-A736-3B62737B1DDA";
paths = (
{
closed = 1;
nodes = (
"50 142 OFFCURVE",
"247 -20 OFFCURVE",
"504 -20 CURVE SMOOTH",
"841 -20 OFFCURVE",
"1009 216 OFFCURVE",
"1009 529 CURVE SMOOTH",
"1009 552 LINE SMOOTH",
"1009 865 OFFCURVE",
"841 1102 OFFCURVE",
"506 1102 CURVE SMOOTH",
"237 1102 OFFCURVE",
"50 943 OFFCURVE",
"50 668 CURVE",
"352 668 LINE",
"352 765 OFFCURVE",
"405 842 OFFCURVE",
"513 842 CURVE SMOOTH",
"661 842 OFFCURVE",
"687 708 OFFCURVE",
"687 552 CURVE SMOOTH",
"687 529 LINE SMOOTH",
"687 369 OFFCURVE",
"662 240 OFFCURVE",
"511 240 CURVE SMOOTH",
"413 240 OFFCURVE",
"352 294 OFFCURVE",
"352 386 CURVE",
"50 386 LINE"
);
}
);
userData = {
com.typemytype.robofont.mark = (
0.939,
1,
0.6,
1
);
};
width = 1067;
}
);
unicode = 1D10;
}
{
glyphname = Osmall;
layers = (
{
anchors = (
{
name = bottom;
position = "{593, 0}";
},
{
name = top;
position = "{593, 1290}";
},
{
name = top0315;
position = "{1189, 1290}";
}
);
layerId = "7E29EDC2-3C1E-4E70-8272-9573F49A38C1";
paths = (
{
closed = 1;
nodes = (
"1097 891 OFFCURVE",
"892 1101 OFFCURVE",
"593 1101 CURVE SMOOTH",
"296 1101 OFFCURVE",
"92 891 OFFCURVE",
"92 584 CURVE SMOOTH",
"92 501 LINE SMOOTH",
"92 194 OFFCURVE",
"298 -17 OFFCURVE",
"595 -17 CURVE SMOOTH",
"894 -17 OFFCURVE",
"1097 194 OFFCURVE",
"1097 501 CURVE SMOOTH",
"1097 584 LINE"
);
},
{
closed = 1;
nodes = (
"897 275 OFFCURVE",
"783 141 OFFCURVE",
"595 141 CURVE SMOOTH",
"408 141 OFFCURVE",
"292 275 OFFCURVE",
"292 501 CURVE SMOOTH",
"292 585 LINE SMOOTH",
"292 810 OFFCURVE",
"407 943 OFFCURVE",
"593 943 CURVE SMOOTH",
"781 943 OFFCURVE",
"897 810 OFFCURVE",
"897 585 CURVE SMOOTH",
"897 501 LINE"
);
}
);
userData = {
com.typemytype.robofont.mark = (
0.939,
1,
0.6,
1
);
};
width = 1189;
},
{
anchors = (
{
name = bottom;
position = "{567, 0}";
},
{
name = top;
position = "{567, 1290}";
},
{
name = top0315;
position = "{1127, 1290}";
}
);
layerId = master01;
paths = (
{
closed = 1;
nodes = (
"1027 921 OFFCURVE",
"838 1101 OFFCURVE",
"563 1101 CURVE SMOOTH",
"287 1101 OFFCURVE",
"101 921 OFFCURVE",
"101 624 CURVE SMOOTH",
"100 461 LINE SMOOTH",
"100 163 OFFCURVE",
"287 -17 OFFCURVE",
"564 -17 CURVE SMOOTH",
"838 -17 OFFCURVE",
"1026 163 OFFCURVE",
"1026 461 CURVE SMOOTH",
"1027 624 LINE"
);
},
{
closed = 1;
nodes = (
"972 179 OFFCURVE",
"815 38 OFFCURVE",
"564 38 CURVE SMOOTH",
"315 38 OFFCURVE",
"154 179 OFFCURVE",
"154 461 CURVE SMOOTH",
"155 625 LINE SMOOTH",
"155 906 OFFCURVE",
"314 1047 OFFCURVE",
"563 1047 CURVE SMOOTH",
"814 1047 OFFCURVE",
"973 906 OFFCURVE",
"973 625 CURVE SMOOTH",
"972 461 LINE"
);
}
);
userData = {
com.typemytype.robofont.mark = (
0.967,
0.6,
1,
1
);
};
width = 1127;
},
{
anchors = (
{
name = bottom;
position = "{582, 0}";
},
{
name = top;
position = "{582, 1290}";
},
{
name = top0315;
position = "{1169, 1290}";
}
);
layerId = "3F40CA7F-E6AC-489E-A736-3B62737B1DDA";
paths = (
{
closed = 1;
nodes = (
"1111 909 OFFCURVE",
"894 1103 OFFCURVE",
"584 1103 CURVE SMOOTH",
"274 1103 OFFCURVE",
"58 909 OFFCURVE",
"58 626 CURVE SMOOTH",
"58 461 LINE SMOOTH",
"58 178 OFFCURVE",
"276 -21 OFFCURVE",
"585 -21 CURVE SMOOTH",
"896 -21 OFFCURVE",
"1111 178 OFFCURVE",
"1111 461 CURVE SMOOTH",
"1111 626 LINE"
);
},
{
closed = 1;
nodes = (
"789 350 OFFCURVE",
"717 238 OFFCURVE",
"585 238 CURVE SMOOTH",
"450 238 OFFCURVE",
"380 350 OFFCURVE",
"380 461 CURVE SMOOTH",
"380 627 LINE SMOOTH",
"380 739 OFFCURVE",
"449 846 OFFCURVE",
"584 846 CURVE SMOOTH",
"715 846 OFFCURVE",
"789 739 OFFCURVE",
"789 627 CURVE SMOOTH",
"789 461 LINE"
);
}
);
userData = {
com.typemytype.robofont.mark = (
0.939,
1,
0.6,
1
);
};
width = 1169;
}
);
unicode = 1D0F;
}
{
glyphname = Phook;
layers = (
{
components = (
{
name = P;
transform = "{1, 0, 0, 1, 208, 0}";
}
);
layerId = "7E29EDC2-3C1E-4E70-8272-9573F49A38C1";
paths = (
{
closed = 1;
nodes = (
"549 1456 LINE",
"378 1456 LINE SMOOTH",
"153 1456 OFFCURVE",
"30 1364 OFFCURVE",
"30 1173 CURVE SMOOTH",
"30 1139 OFFCURVE",
"37 1088 OFFCURVE",
"47 1057 CURVE",
"207 1057 LINE",
"201 1077 OFFCURVE",
"199 1104 OFFCURVE",
"199 1121 CURVE SMOOTH",
"199 1231 OFFCURVE",
"248 1289 OFFCURVE",
"378 1289 CURVE SMOOTH",
"549 1289 LINE"
);
}
);
userData = {
com.typemytype.robofont.mark = (
0.939,
1,
0.6,
1
);
};
width = 1507;
},
{
components = (
{
name = P;
transform = "{1, 0, 0, 1, 168, 0}";
}
);
layerId = master01;
paths = (
{
closed = 1;
nodes = (
"399 1456 LINE",
"368 1456 LINE SMOOTH",
"143 1456 OFFCURVE",
"20 1350 OFFCURVE",
"20 1171 CURVE SMOOTH",
"20 1130 OFFCURVE",
"27 1098 OFFCURVE",
"40 1059 CURVE",
"92 1072 LINE",
"84 1093 OFFCURVE",
"74 1134 OFFCURVE",
"74 1171 CURVE SMOOTH",
"74 1319 OFFCURVE",
"181 1402 OFFCURVE",
"368 1402 CURVE SMOOTH",
"399 1402 LINE"
);
}
);
userData = {
com.typemytype.robofont.mark = (
0.939,
1,
0.6,
1
);
};
width = 1398;
},
{
components = (
{
name = P;
transform = "{1, 0, 0, 1, 340, 0}";
}
);
layerId = "3F40CA7F-E6AC-489E-A736-3B62737B1DDA";
paths = (
{
closed = 1;
nodes = (
"689 1456 LINE",
"462 1456 LINE SMOOTH",
"189 1456 OFFCURVE",
"40 1305 OFFCURVE",
"40 1056 CURVE SMOOTH",
"40 1001 OFFCURVE",
"44 956 OFFCURVE",
"57 901 CURVE",
"326 901 LINE",
"321 934 OFFCURVE",
"317 962 OFFCURVE",
"317 995 CURVE SMOOTH",
"317 1084 OFFCURVE",
"344 1185 OFFCURVE",
"462 1185 CURVE SMOOTH",
"689 1185 LINE {name = hr00;}"
);
}
);
userData = {
com.typemytype.robofont.mark = (
0.939,
1,
0.6,
1
);
};
width = 1670;
}
);
unicode = 01A4;
}
{
glyphname = Pmod;
layers = (
{
layerId = "7E29EDC2-3C1E-4E70-8272-9573F49A38C1";
paths = (
{
closed = 1;
nodes = (
"777 1054 OFFCURVE",
"901 1182 OFFCURVE",
"901 1391 CURVE SMOOTH",
"901 1582 OFFCURVE",
"777 1728 OFFCURVE",
"523 1728 CURVE SMOOTH",
"100 1728 LINE",
"100 651 LINE",
"282 651 LINE",
"282 1575 LINE",
"489 1575 LINE SMOOTH",
"653 1575 OFFCURVE",
"719 1499 OFFCURVE",
"719 1391 CURVE SMOOTH",
"719 1268 OFFCURVE",
"653 1207 OFFCURVE",
"489 1207 CURVE SMOOTH",
"238 1207 LINE",
"238 1054 LINE",
"523 1054 LINE"
);
}
);
userData = {
com.typemytype.robofont.mark = (
0.939,
1,
0.6,
1
);
};
width = 961;
},
{
layerId = master01;
paths = (
{
closed = 1;
nodes = (
"687 1096 OFFCURVE",
"804 1224 OFFCURVE",
"804 1414 CURVE SMOOTH",
"804 1603 OFFCURVE",
"686 1728 OFFCURVE",
"457 1728 CURVE SMOOTH",
"120 1728 LINE",
"120 651 LINE",
"174 651 LINE",
"174 1674 LINE",
"457 1674 LINE SMOOTH",
"674 1674 OFFCURVE",
"750 1567 OFFCURVE",
"750 1414 CURVE SMOOTH",
"750 1268 OFFCURVE",
"674 1150 OFFCURVE",
"457 1150 CURVE SMOOTH",
"130 1150 LINE",
"130 1096 LINE",
"457 1096 LINE"
);
}
);
userData = {
com.typemytype.robofont.mark = (
0.967,
0.6,
1,
1
);
};
width = 884;
},
{
layerId = "3F40CA7F-E6AC-489E-A736-3B62737B1DDA";
paths = (
{
closed = 1;
nodes = (
"766 1026 OFFCURVE",
"919 1162 OFFCURVE",
"919 1371 CURVE SMOOTH",
"919 1580 OFFCURVE",
"766 1732 OFFCURVE",
"509 1732 CURVE SMOOTH",
"100 1732 LINE",
"100 655 LINE",
"323 655 LINE",
"323 1540 LINE",
"509 1540 LINE SMOOTH",
"628 1540 OFFCURVE",
"696 1459 OFFCURVE",
"696 1369 CURVE SMOOTH",
"696 1282 OFFCURVE",
"628 1219 OFFCURVE",
"509 1219 CURVE SMOOTH",
"238 1219 LINE",
"238 1026 LINE",
"509 1026 LINE"
);
}
);
userData = {
com.typemytype.robofont.mark = (
0.939,
1,
0.6,
1
);
};
width = 979;
}
);
unicode = 1D3E;
}
{
glyphname = Psismall;
layers = (
{
anchors = (
{
name = bottom;
position = "{651, 0}";
},
{
name = top;
position = "{651, 1290}";
},
{
name = top0315;
position = "{1288, 1290}";
}
);
layerId = "7E29EDC2-3C1E-4E70-8272-9573F49A38C1";
paths = (
{
closed = 1;
nodes = (
"545 1082 LINE",
"545 0 LINE",
"745 0 LINE",
"745 1082 LINE"
);
},
{
closed = 1;
nodes = (
"1040 885 LINE SMOOTH",
"1040 550 OFFCURVE",
"878 429 OFFCURVE",
"644 429 CURVE SMOOTH",
"410 429 OFFCURVE",
"248 550 OFFCURVE",
"248 885 CURVE SMOOTH",
"248 1082 LINE",
"48 1082 LINE",
"48 887 LINE SMOOTH",
"48 457 OFFCURVE",
"261 269 OFFCURVE",
"644 269 CURVE SMOOTH",
"1027 269 OFFCURVE",
"1240 457 OFFCURVE",
"1240 887 CURVE SMOOTH",
"1240 1082 LINE",
"1040 1082 LINE"
);
}
);
userData = {
com.typemytype.robofont.mark = (
0.939,
1,
0.6,
1
);
};
width = 1288;
},
{
anchors = (
{
name = bottom;
position = "{618, 0}";
},
{
name = top;
position = "{618, 1290}";
},
{
name = top0315;
position = "{1218, 1290}";
}
);
layerId = master01;
paths = (
{
closed = 1;
nodes = (
"588 1082 LINE",
"588 0 LINE",
"643 0 LINE",
"643 1082 LINE"
);
},
{
closed = 1;
nodes = (
"1085 856 LINE SMOOTH",
"1085 564 OFFCURVE",
"897 380 OFFCURVE",
"609 380 CURVE SMOOTH",
"321 380 OFFCURVE",
"133 564 OFFCURVE",
"133 856 CURVE SMOOTH",
"133 1082 LINE",
"78 1082 LINE",
"78 856 LINE SMOOTH",
"78 517 OFFCURVE",
"290 327 OFFCURVE",
"609 327 CURVE SMOOTH",
"928 327 OFFCURVE",
"1140 517 OFFCURVE",
"1140 856 CURVE SMOOTH",
"1140 1082 LINE",
"1085 1082 LINE"
);
}
);
userData = {
com.typemytype.robofont.mark = (
0.939,
1,
0.6,
1
);
};
width = 1218;
},
{
anchors = (
{
name = bottom;
position = "{760, 0}";
},
{
name = top;
position = "{760, 1290}";
},
{
name = top0315;
position = "{1500, 1290}";
}
);
layerId = "3F40CA7F-E6AC-489E-A736-3B62737B1DDA";
paths = (
{
closed = 1;
nodes = (
"596 1082 LINE",
"596 0 LINE",
"918 0 LINE",
"918 1082 LINE {name = hr00;}"
);
},
{
closed = 1;
nodes = (
"1136 860 LINE SMOOTH",
"1136 618 OFFCURVE",
"1020 505 OFFCURVE",
"750 505 CURVE SMOOTH",
"480 505 OFFCURVE",
"364 618 OFFCURVE",
"364 860 CURVE SMOOTH",
"364 1082 LINE",
"42 1082 LINE",
"42 860 LINE SMOOTH",
"42 466 OFFCURVE",
"258 245 OFFCURVE",
"750 245 CURVE SMOOTH",
"1242 245 OFFCURVE",
"1458 466 OFFCURVE",
"1458 860 CURVE SMOOTH",
"1458 1082 LINE",
"1136 1082 LINE"
);
}
);
userData = {
com.typemytype.robofont.mark = (
0.939,
1,
0.6,
1
);
};
width = 1500;
}
);
unicode = 1D2A;
}
{
glyphname = Psmall;
layers = (
{
anchors = (
{
name = bottom;
position = "{580, 0}";
},
{
name = top;
position = "{580, 1290}";
},
{
name = top0315;
position = "{1107, 1290}";
}
);
layerId = "7E29EDC2-3C1E-4E70-8272-9573F49A38C1";
paths = (
{
closed = 1;
nodes = (
"899 336 OFFCURVE",
"1059 493 OFFCURVE",
"1059 709 CURVE SMOOTH",
"1059 924 OFFCURVE",
"899 1082 OFFCURVE",
"622 1082 CURVE SMOOTH",
"155 1082 LINE",
"155 0 LINE",
"355 0 LINE",
"355 924 LINE",
"622 924 LINE SMOOTH",
"788 924 OFFCURVE",
"858 816 OFFCURVE",
"858 707 CURVE SMOOTH",
"858 601 OFFCURVE",
"788 495 OFFCURVE",
"622 495 CURVE SMOOTH",
"303 495 LINE",
"303 336 LINE",
"622 336 LINE"
);
}
);
userData = {
com.typemytype.robofont.mark = (
0.939,
1,
0.6,
1
);
};
width = 1107;
},
{
anchors = (
{
name = bottom;
position = "{572, 0}";
},
{
name = top;
position = "{572, 1290}";
},
{
name = top0315;
position = "{1056, 1290}";
}
);
layerId = master01;
paths = (
{
closed = 1;
nodes = (
"842 387 OFFCURVE",
"978 529 OFFCURVE",
"978 735 CURVE SMOOTH",
"978 940 OFFCURVE",
"842 1082 OFFCURVE",
"593 1082 CURVE SMOOTH",
"172 1082 LINE",
"172 0 LINE",
"226 0 LINE",
"226 1028 LINE",
"593 1028 LINE SMOOTH",
"827 1028 OFFCURVE",
"924 893 OFFCURVE",
"924 733 CURVE SMOOTH",
"924 580 OFFCURVE",
"827 442 OFFCURVE",
"593 442 CURVE SMOOTH",
"191 442 LINE",
"191 387 LINE",
"593 387 LINE"
);
}
);
userData = {
com.typemytype.robofont.mark = (
0.939,
1,
0.6,
1
);
};
width = 1056;
},
{
anchors = (
{
name = bottom;
position = "{596, 0}";
},
{
name = top;
position = "{596, 1290}";
},
{
name = top0315;
position = "{1178, 1290}";
}
);
layerId = "3F40CA7F-E6AC-489E-A736-3B62737B1DDA";
paths = (
{
closed = 1;
nodes = (
"935 294 OFFCURVE",
"1136 449 OFFCURVE",
"1136 688 CURVE SMOOTH",
"1136 928 OFFCURVE",
"935 1082 OFFCURVE",
"627 1082 CURVE SMOOTH",
"122 1082 LINE",
"122 0 LINE",
"444 0 LINE",
"444 824 LINE",
"627 824 LINE SMOOTH",
"746 824 OFFCURVE",
"815 769 OFFCURVE",
"815 686 CURVE SMOOTH",
"815 605 OFFCURVE",
"746 553 OFFCURVE",
"627 553 CURVE SMOOTH",
"318 553 LINE",
"318 294 LINE",
"627 294 LINE"
);
}
);
userData = {
com.typemytype.robofont.mark = (
0.939,
1,
0.6,
1
);
};
width = 1178;
}
);
unicode = 1D18;
}
{
glyphname = Rcomb;
layers = (
{
anchors = (
{
name = _marktop;
position = "{-588, 1170}";
}
);
layerId = "7E29EDC2-3C1E-4E70-8272-9573F49A38C1";
paths = (
{
closed = 1;
nodes = (
"-533 1420 OFFCURVE",
"-534 1423 OFFCURVE",
"-512 1428 CURVE SMOOTH",
"-509 1429 OFFCURVE",
"-505 1461 OFFCURVE",
"-503 1462 CURVE SMOOTH",
"-408 1486 OFFCURVE",
"-357 1546 OFFCURVE",
"-357 1621 CURVE SMOOTH",
"-357 1731 OFFCURVE",
"-437 1796 OFFCURVE",
"-577 1796 CURVE SMOOTH",
"-842 1796 LINE",
"-842 1201 LINE",
"-710 1201 LINE",
"-710 1689 LINE",
"-577 1689 LINE SMOOTH",
"-527 1689 OFFCURVE",
"-489 1666 OFFCURVE",
"-489 1615 CURVE SMOOTH",
"-489 1561 OFFCURVE",
"-526 1526 OFFCURVE",
"-577 1526 CURVE SMOOTH",
"-738 1526 LINE",
"-737 1419 LINE",
"-549 1419 LINE"
);
},
{
closed = 1;
nodes = (
"-525 1419 OFFCURVE",
"-489 1410 OFFCURVE",
"-489 1349 CURVE SMOOTH",
"-489 1300 LINE SMOOTH",
"-489 1281 OFFCURVE",
"-489 1222 OFFCURVE",
"-470 1201 CURVE",
"-335 1201 LINE",
"-335 1211 LINE",
"-352 1230 OFFCURVE",
"-357 1272 OFFCURVE",
"-357 1299 CURVE SMOOTH",
"-357 1349 LINE SMOOTH",
"-357 1438 OFFCURVE",
"-400 1503 OFFCURVE",
"-542 1503 CURVE",
"-592 1419 LINE"
);
}
);
userData = {
com.typemytype.robofont.mark = (
0.967,
0.6,
1,
1
);
};
width = 0;
},
{
anchors = (
{
name = _marktop;
position = "{-562, 1170}";
}
);
layerId = master01;
paths = (
{
closed = 1;
nodes = (
"-517 1483 OFFCURVE",
"-524 1475 OFFCURVE",
"-505 1483 CURVE SMOOTH",
"-501 1483 OFFCURVE",
"-492 1482 OFFCURVE",
"-489 1482 CURVE SMOOTH",
"-392 1495 OFFCURVE",
"-354 1557 OFFCURVE",
"-354 1635 CURVE SMOOTH",
"-354 1741 OFFCURVE",
"-423 1797 OFFCURVE",
"-550 1797 CURVE SMOOTH",
"-781 1797 LINE",
"-781 1202 LINE",
"-741 1202 LINE",
"-741 1757 LINE",
"-550 1757 LINE SMOOTH",
"-436 1757 OFFCURVE",
"-394 1721 OFFCURVE",
"-394 1635 CURVE SMOOTH",
"-394 1550 OFFCURVE",
"-436 1516 OFFCURVE",
"-550 1516 CURVE SMOOTH",
"-759 1516 LINE",
"-758 1476 LINE",
"-525 1476 LINE"
);
},
{
closed = 1;
nodes = (
"-446 1476 OFFCURVE",
"-396 1429 OFFCURVE",
"-396 1350 CURVE SMOOTH",
"-396 1291 LINE SMOOTH",
"-396 1273 OFFCURVE",
"-396 1223 OFFCURVE",
"-387 1202 CURVE",
"-344 1202 LINE",
"-344 1213 LINE",
"-354 1230 OFFCURVE",
"-356 1259 OFFCURVE",
"-356 1290 CURVE SMOOTH",
"-356 1351 LINE SMOOTH",
"-356 1435 OFFCURVE",
"-392 1500 OFFCURVE",
"-523 1500 CURVE",
"-541 1476 LINE"
);
}
);
userData = {
com.typemytype.robofont.mark = (
0.967,
0.6,
1,
1
);
};
width = 0;
},
{
anchors = (
{
name = _marktop;
position = "{-576, 1170}";
}
);
layerId = "3F40CA7F-E6AC-489E-A736-3B62737B1DDA";
paths = (
{
closed = 1;
nodes = (
"-521 1398 OFFCURVE",
"-538 1409 OFFCURVE",
"-515 1414 CURVE SMOOTH",
"-512 1415 OFFCURVE",
"-510 1445 OFFCURVE",
"-507 1445 CURVE SMOOTH",
"-403 1473 OFFCURVE",
"-347 1530 OFFCURVE",
"-347 1615 CURVE SMOOTH",
"-347 1726 OFFCURVE",
"-444 1797 OFFCURVE",
"-593 1797 CURVE SMOOTH",
"-828 1797 LINE",
"-828 1202 LINE",
"-664 1202 LINE",
"-664 1665 LINE",
"-593 1665 LINE SMOOTH",
"-542 1665 OFFCURVE",
"-512 1634 OFFCURVE",
"-512 1600 CURVE SMOOTH",
"-512 1559 OFFCURVE",
"-542 1532 OFFCURVE",
"-593 1532 CURVE SMOOTH",
"-730 1532 LINE",
"-728 1400 LINE",
"-553 1400 LINE"
);
},
{
closed = 1;
nodes = (
"-533 1400 OFFCURVE",
"-502 1375 OFFCURVE",
"-502 1323 CURVE SMOOTH",
"-502 1291 LINE SMOOTH",
"-502 1278 OFFCURVE",
"-502 1216 OFFCURVE",
"-493 1202 CURVE",
"-324 1202 LINE",
"-324 1209 LINE",
"-336 1224 OFFCURVE",
"-338 1284 OFFCURVE",
"-338 1290 CURVE SMOOTH",
"-338 1323 LINE SMOOTH",
"-338 1412 OFFCURVE",
"-387 1476 OFFCURVE",
"-547 1476 CURVE",
"-592 1400 LINE"
);
}
);
userData = {
com.typemytype.robofont.mark = (
0.967,
0.6,
1,
1
);
};
width = 0;
}
);
unicode = 1DE2;
}
{
glyphname = Rmod;
layers = (
{
layerId = "7E29EDC2-3C1E-4E70-8272-9573F49A38C1";
paths = (
{
closed = 1;
nodes = (
"100 651 LINE",
"283 651 LINE",
"283 1575 LINE",
"449 1575 LINE SMOOTH",
"614 1575 OFFCURVE",
"680 1510 OFFCURVE",
"680 1388 CURVE SMOOTH",
"680 1277 OFFCURVE",
"603 1215 OFFCURVE",
"450 1215 CURVE SMOOTH",
"236 1215 LINE",
"238 1062 LINE",
"573 1062 LINE",
"612 1076 LINE",
"771 1118 OFFCURVE",
"863 1232 OFFCURVE",
"863 1387 CURVE SMOOTH",
"863 1608 OFFCURVE",
"730 1728 OFFCURVE",
"484 1728 CURVE SMOOTH",
"100 1728 LINE"
);
},
{
closed = 1;
nodes = (
"921 651 LINE",
"921 660 LINE",
"648 1115 LINE",
"454 1115 LINE",
"723 651 LINE"
);
}
);
userData = {
com.typemytype.robofont.mark = (
0.939,
1,
0.6,
1
);
};
width = 981;
},
{
layerId = master01;
paths = (
{
closed = 1;
nodes = (
"120 651 LINE",
"174 651 LINE",
"174 1674 LINE",
"463 1674 LINE SMOOTH",
"654 1674 OFFCURVE",
"763 1580 OFFCURVE",
"763 1410 CURVE SMOOTH",
"763 1276 OFFCURVE",
"684 1149 OFFCURVE",
"500 1149 CURVE SMOOTH",
"128 1149 LINE",
"130 1095 LINE",
"542 1095 LINE",
"565 1103 LINE",
"705 1124 OFFCURVE",
"817 1253 OFFCURVE",
"817 1410 CURVE SMOOTH",
"817 1611 OFFCURVE",
"669 1728 OFFCURVE",
"463 1728 CURVE SMOOTH",
"120 1728 LINE"
);
},
{
closed = 1;
nodes = (
"862 651 LINE",
"862 661 LINE",
"571 1120 LINE",
"510 1119 LINE",
"805 651 LINE"
);
}
);
userData = {
com.typemytype.robofont.mark = (
0.967,
0.6,
1,
1
);
};
width = 942;
},
{
layerId = "3F40CA7F-E6AC-489E-A736-3B62737B1DDA";
paths = (
{
closed = 1;
nodes = (
"100 655 LINE",
"323 655 LINE",
"323 1540 LINE",
"495 1540 LINE SMOOTH",
"604 1540 OFFCURVE",
"674 1481 OFFCURVE",
"674 1386 CURVE SMOOTH",
"674 1292 OFFCURVE",
"604 1234 OFFCURVE",
"495 1234 CURVE SMOOTH",
"236 1234 LINE",
"238 1041 LINE",
"588 1041 LINE",
"665 1086 LINE",
"805 1137 OFFCURVE",
"897 1226 OFFCURVE",
"897 1408 CURVE SMOOTH",
"897 1619 OFFCURVE",
"743 1732 OFFCURVE",
"495 1732 CURVE SMOOTH",
"100 1732 LINE {name = hr00;}"
);
},
{
closed = 1;
nodes = (
"936 655 LINE",
"936 666 LINE",
"681 1135 LINE",
"438 1133 LINE",
"694 655 LINE"
);
}
);
userData = {
com.typemytype.robofont.mark = (
0.939,
1,
0.6,
1
);
};
width = 996;
}
);
unicode = 1D3F;
}
{
glyphname = RreversedSmall;
layers = (
{
anchors = (
{
name = bottom;
position = "{567, 0}";
},
{
name = top;
position = "{567, 1290}";
},
{
name = top0315;
position = "{1138, 1290}";
}
);
layerId = "7E29EDC2-3C1E-4E70-8272-9573F49A38C1";
paths = (
{
closed = 1;
nodes = (
"48 0 LINE",
"263 0 LINE",
"579 520 LINE",
"364 520 LINE"
);
},
{
closed = 1;
nodes = (
"261 1082 OFFCURVE",
"109 941 OFFCURVE",
"109 751 CURVE SMOOTH",
"109 560 OFFCURVE",
"254 419 OFFCURVE",
"505 419 CURVE SMOOTH",
"835 419 LINE",
"835 579 LINE",
"505 579 LINE SMOOTH",
"367 579 OFFCURVE",
"310 665 OFFCURVE",
"310 749 CURVE SMOOTH",
"310 834 OFFCURVE",
"373 924 OFFCURVE",
"525 924 CURVE SMOOTH",
"783 924 LINE",
"783 0 LINE",
"983 0 LINE",
"983 1082 LINE",
"525 1082 LINE"
);
}
);
userData = {
com.typemytype.robofont.mark = (
0.939,
1,
0.6,
1
);
};
width = 1138;
},
{
anchors = (
{
name = bottom;
position = "{553, 0}";
},
{
name = top;
position = "{553, 1290}";
},
{
name = top0315;
position = "{1067, 1290}";
}
);
layerId = master01;
paths = (
{
closed = 1;
nodes = (
"110 0 LINE",
"174 0 LINE",
"461 476 LINE",
"396 476 LINE"
);
},
{
closed = 1;
nodes = (
"259 1082 OFFCURVE",
"130 947 OFFCURVE",
"130 766 CURVE SMOOTH",
"130 584 OFFCURVE",
"244 450 OFFCURVE",
"453 450 CURVE SMOOTH",
"876 450 LINE",
"876 505 LINE",
"453 505 LINE SMOOTH",
"262 505 OFFCURVE",
"184 632 OFFCURVE",
"184 764 CURVE SMOOTH",
"184 904 OFFCURVE",
"274 1027 OFFCURVE",
"495 1027 CURVE SMOOTH",
"841 1027 LINE",
"841 0 LINE",
"895 0 LINE",
"895 1082 LINE",
"495 1082 LINE"
);
}
);
userData = {
com.typemytype.robofont.mark = (
0.939,
1,
0.6,
1
);
};
width = 1067;
},
{
anchors = (
{
name = bottom;
position = "{557, 0}";
},
{
name = top;
position = "{557, 1290}";
},
{
name = top0315;
position = "{1160, 1290}";
}
);
layerId = "3F40CA7F-E6AC-489E-A736-3B62737B1DDA";
paths = (
{
closed = 1;
nodes = (
"52 0 LINE",
"374 0 LINE",
"671 551 LINE",
"349 551 LINE"
);
},
{
closed = 1;
nodes = (
"260 1082 OFFCURVE",
"76 925 OFFCURVE",
"76 709 CURVE SMOOTH",
"76 506 OFFCURVE",
"260 358 OFFCURVE",
"555 358 CURVE SMOOTH",
"842 358 LINE",
"842 575 LINE",
"555 575 LINE SMOOTH",
"450 575 OFFCURVE",
"398 639 OFFCURVE",
"398 697 CURVE SMOOTH",
"398 757 OFFCURVE",
"450 824 OFFCURVE",
"555 824 CURVE SMOOTH",
"717 824 LINE",
"717 0 LINE",
"1038 0 LINE",
"1038 1082 LINE",
"555 1082 LINE"
);
}
);
userData = {
com.typemytype.robofont.mark = (
0.939,
1,
0.6,
1
);
};
width = 1160;
}
);
unicode = 1D19;
}
{
glyphname = Thook;
layers = (
{
layerId = "7E29EDC2-3C1E-4E70-8272-9573F49A38C1";
paths = (
{
closed = 1;
nodes = (
"576 1456 LINE",
"576 0 LINE",
"782 0 LINE",
"782 1456 LINE"
);
},
{
closed = 1;
nodes = (
"417 1456 LINE",
"417 1289 LINE",
"1243 1289 LINE",
"1243 1456 LINE"
);
},
{
closed = 1;
nodes = (
"549 1456 LINE",
"378 1456 LINE SMOOTH",
"153 1456 OFFCURVE",
"30 1364 OFFCURVE",
"30 1173 CURVE SMOOTH",
"30 1139 OFFCURVE",
"37 1088 OFFCURVE",
"47 1057 CURVE",
"207 1057 LINE",
"201 1077 OFFCURVE",
"199 1104 OFFCURVE",
"199 1121 CURVE SMOOTH",
"199 1231 OFFCURVE",
"248 1289 OFFCURVE",
"378 1289 CURVE SMOOTH",
"549 1289 LINE"
);
}
);
userData = {
com.typemytype.robofont.mark = (
0.939,
1,
0.6,
1
);
};
width = 1289;
},
{
layerId = master01;
paths = (
{
closed = 1;
nodes = (
"578 1456 LINE",
"578 0 LINE",
"632 0 LINE",
"632 1456 LINE"
);
},
{
closed = 1;
nodes = (
"368 1456 LINE",
"368 1402 LINE",
"1162 1402 LINE",
"1162 1456 LINE"
);
},
{
closed = 1;
nodes = (
"399 1456 LINE",
"368 1456 LINE SMOOTH",
"143 1456 OFFCURVE",
"20 1350 OFFCURVE",
"20 1171 CURVE SMOOTH",
"20 1130 OFFCURVE",
"27 1098 OFFCURVE",
"40 1059 CURVE",
"92 1072 LINE",
"84 1093 OFFCURVE",
"74 1134 OFFCURVE",
"74 1171 CURVE SMOOTH",
"74 1319 OFFCURVE",
"181 1402 OFFCURVE",
"368 1402 CURVE SMOOTH",
"399 1402 LINE"
);
}
);
userData = {
com.typemytype.robofont.mark = (
0.939,
1,
0.6,
1
);
};
width = 1217;
},
{
layerId = "3F40CA7F-E6AC-489E-A736-3B62737B1DDA";
paths = (
{
closed = 1;
nodes = (
"678 1456 LINE",
"678 0 LINE",
"1013 0 LINE",
"1013 1456 LINE"
);
},
{
closed = 1;
nodes = (
"530 1456 LINE",
"530 1185 LINE",
"1453 1185 LINE",
"1453 1456 LINE"
);
},
{
closed = 1;
nodes = (
"679 1456 LINE",
"452 1456 LINE SMOOTH",
"179 1456 OFFCURVE",
"30 1305 OFFCURVE",
"30 1056 CURVE SMOOTH",
"30 1001 OFFCURVE",
"34 956 OFFCURVE",
"47 901 CURVE",
"316 901 LINE",
"311 934 OFFCURVE",
"307 962 OFFCURVE",
"307 995 CURVE SMOOTH",
"307 1084 OFFCURVE",
"334 1185 OFFCURVE",
"452 1185 CURVE SMOOTH",
"679 1185 LINE"
);
}
);
userData = {
com.typemytype.robofont.mark = (
0.939,
1,
0.6,
1
);
};
width = 1492;
}
);
unicode = 01AC;
}
{
glyphname = Tmod;
layers = (
{
layerId = "7E29EDC2-3C1E-4E70-8272-9573F49A38C1";
paths = (
{
closed = 1;
nodes = (
"363 1728 LINE",
"363 651 LINE",
"547 651 LINE",
"547 1728 LINE"
);
},
{
closed = 1;
nodes = (
"40 1728 LINE",
"40 1575 LINE",
"870 1575 LINE",
"870 1728 LINE"
);
}
);
userData = {
com.typemytype.robofont.guides = (
{
angle = 90;
isGlobal = 0;
magnetic = 5;
x = 455;
y = 0;
}
);
com.typemytype.robofont.mark = (
0.939,
1,
0.6,
1
);
};
width = 910;
},
{
layerId = master01;
paths = (
{
closed = 1;
nodes = (
"425 1728 LINE",
"425 651 LINE",
"479 651 LINE",
"479 1728 LINE"
);
},
{
closed = 1;
nodes = (
"40 1728 LINE",
"40 1674 LINE",
"864 1674 LINE",
"864 1728 LINE"
);
}
);
userData = {
com.typemytype.robofont.guides = (
{
angle = 90;
isGlobal = 0;
magnetic = 5;
x = 452;
y = 0;
}
);
com.typemytype.robofont.mark = (
0.967,
0.6,
1,
1
);
};
width = 904;
},
{
layerId = "3F40CA7F-E6AC-489E-A736-3B62737B1DDA";
paths = (
{
closed = 1;
nodes = (
"369 1732 LINE",
"369 655 LINE",
"592 655 LINE",
"592 1732 LINE"
);
},
{
closed = 1;
nodes = (
"40 1732 LINE",
"40 1540 LINE",
"927 1540 LINE",
"927 1732 LINE"
);
}
);
userData = {
com.typemytype.robofont.guides = (
{
angle = 90;
isGlobal = 0;
magnetic = 5;
x = 480;
y = 0;
}
);
com.typemytype.robofont.mark = (
0.939,
1,
0.6,
1
);
};
width = 967;
}
);
unicode = 1D40;
}
{
glyphname = Tonefive;
layers = (
{
components = (
{
name = five;
}
);
layerId = "7E29EDC2-3C1E-4E70-8272-9573F49A38C1";
paths = (
{
closed = 1;
nodes = (
"65 1456 LINE",
"65 1275 LINE",
"387 1275 LINE",
"387 1456 LINE {name = hr00;}"
);
}
);
userData = {
com.typemytype.robofont.mark = (
0.939,
1,
0.6,
1
);
};
width = 1154;
},
{
components = (
{
name = five;
}
);
layerId = master01;
paths = (
{
closed = 1;
nodes = (
"59 1456 LINE",
"59 1403 LINE",
"306 1403 LINE",
"306 1456 LINE {name = hr00;}"
);
}
);
userData = {
com.typemytype.robofont.mark = (
0.939,
1,
0.6,
1
);
};
width = 1121;
},
{
components = (
{
name = five;
transform = "{1, 0, 0, 1, 107, 0}";
}
);
layerId = "3F40CA7F-E6AC-489E-A736-3B62737B1DDA";
paths = (
{
closed = 1;
nodes = (
"60 1456 LINE",
"60 1194 LINE",
"371 1194 LINE",
"371 1456 LINE"
);
}
);
userData = {
com.typemytype.robofont.mark = (
0.939,
1,
0.6,
1
);
};
width = 1283;
}
);
unicode = 01BC;
}
{
glyphname = Tonetwo;
layers = (
{
layerId = "7E29EDC2-3C1E-4E70-8272-9573F49A38C1";
paths = (
{
closed = 1;
nodes = (
"285 502 OFFCURVE",
"351 565 OFFCURVE",
"620 644 CURVE",
"907 728 OFFCURVE",
"1091 851 OFFCURVE",
"1091 1076 CURVE SMOOTH",
"1091 1303 OFFCURVE",
"896 1476 OFFCURVE",
"595 1476 CURVE SMOOTH",
"261 1476 OFFCURVE",
"78 1260 OFFCURVE",
"78 1035 CURVE",
"286 1035 LINE",
"286 1194 OFFCURVE",
"382 1309 OFFCURVE",
"595 1309 CURVE SMOOTH",
"793 1309 OFFCURVE",
"882 1212 OFFCURVE",
"882 1079 CURVE SMOOTH",
"882 959 OFFCURVE",
"781 886 OFFCURVE",
"553 822 CURVE",
"218 727 OFFCURVE",
"76 596 OFFCURVE",
"76 372 CURVE SMOOTH",
"76 135 OFFCURVE",
"274 -20 OFFCURVE",
"585 -20 CURVE SMOOTH",
"856 -20 OFFCURVE",
"1137 136 OFFCURVE",
"1137 423 CURVE",
"929 423 LINE",
"929 232 OFFCURVE",
"770 146 OFFCURVE",
"585 146 CURVE SMOOTH",
"390 146 OFFCURVE",
"285 232 OFFCURVE",
"285 370 CURVE SMOOTH"
);
}
);
userData = {
com.typemytype.robofont.mark = (
0.939,
1,
0.6,
1
);
};
width = 1216;
},
{
layerId = master01;
paths = (
{
closed = 1;
nodes = (
"139 533 OFFCURVE",
"258 628 OFFCURVE",
"588 718 CURVE SMOOTH",
"885 799 OFFCURVE",
"1068 886 OFFCURVE",
"1068 1120 CURVE SMOOTH",
"1068 1342 OFFCURVE",
"860 1476 OFFCURVE",
"585 1476 CURVE SMOOTH",
"302 1476 OFFCURVE",
"100 1303 OFFCURVE",
"100 1046 CURVE",
"154 1046 LINE",
"154 1261 OFFCURVE",
"326 1422 OFFCURVE",
"585 1422 CURVE SMOOTH",
"860 1422 OFFCURVE",
"1014 1280 OFFCURVE",
"1014 1122 CURVE SMOOTH",
"1014 967 OFFCURVE",
"921 860 OFFCURVE",
"573 770 CURVE",
"286 695 OFFCURVE",
"84 596 OFFCURVE",
"84 351 CURVE SMOOTH",
"84 113 OFFCURVE",
"306 -20 OFFCURVE",
"578 -20 CURVE SMOOTH",
"827 -20 OFFCURVE",
"1115 85 OFFCURVE",
"1115 411 CURVE",
"1061 411 LINE",
"1061 120 OFFCURVE",
"788 34 OFFCURVE",
"578 34 CURVE SMOOTH",
"322 34 OFFCURVE",
"139 162 OFFCURVE",
"139 349 CURVE SMOOTH"
);
}
);
userData = {
com.typemytype.robofont.mark = (
0.939,
1,
0.6,
1
);
};
width = 1211;
},
{
layerId = "3F40CA7F-E6AC-489E-A736-3B62737B1DDA";
paths = (
{
closed = 1;
nodes = (
"406 478 OFFCURVE",
"448 527 OFFCURVE",
"672 600 CURVE SMOOTH",
"931 685 OFFCURVE",
"1165 805 OFFCURVE",
"1165 1067 CURVE SMOOTH",
"1165 1317 OFFCURVE",
"932 1476 OFFCURVE",
"612 1476 CURVE SMOOTH",
"292 1476 OFFCURVE",
"71 1299 OFFCURVE",
"71 1024 CURVE",
"405 1024 LINE",
"405 1134 OFFCURVE",
"475 1211 OFFCURVE",
"619 1211 CURVE SMOOTH",
"760 1211 OFFCURVE",
"831 1144 OFFCURVE",
"831 1064 CURVE SMOOTH",
"831 977 OFFCURVE",
"730 924 OFFCURVE",
"557 870 CURVE SMOOTH",
"245 772 OFFCURVE",
"71 634 OFFCURVE",
"71 389 CURVE SMOOTH",
"71 127 OFFCURVE",
"282 -20 OFFCURVE",
"606 -20 CURVE SMOOTH",
"902 -20 OFFCURVE",
"1209 127 OFFCURVE",
"1209 472 CURVE",
"873 472 LINE",
"873 301 OFFCURVE",
"773 244 OFFCURVE",
"606 244 CURVE SMOOTH",
"466 244 OFFCURVE",
"406 309 OFFCURVE",
"406 387 CURVE SMOOTH"
);
}
);
userData = {
com.typemytype.robofont.mark = (
0.939,
1,
0.6,
1
);
};
width = 1275;
}
);
unicode = 01A7;
}
{
glyphname = Tretroflexhook;
layers = (
{
layerId = "7E29EDC2-3C1E-4E70-8272-9573F49A38C1";
paths = (
{
closed = 1;
nodes = (
"49 1456 LINE",
"49 1289 LINE",
"1176 1289 LINE",
"1176 1456 LINE"
);
},
{
closed = 1;
nodes = (
"934 -256 LINE",
"912 -261 OFFCURVE",
"861 -269 OFFCURVE",
"836 -269 CURVE SMOOTH",
"757 -269 OFFCURVE",
"715 -206 OFFCURVE",
"715 -89 CURVE SMOOTH",
"715 1456 LINE",
"509 1456 LINE",
"509 -89 LINE SMOOTH",
"509 -314 OFFCURVE",
"632 -437 OFFCURVE",
"836 -437 CURVE SMOOTH",
"877 -437 OFFCURVE",
"910 -433 OFFCURVE",
"948 -420 CURVE"
);
}
);
userData = {
com.typemytype.robofont.mark = (
0.939,
1,
0.6,
1
);
};
width = 1222;
},
{
layerId = master01;
paths = (
{
closed = 1;
nodes = (
"55 1456 LINE",
"55 1402 LINE",
"1169 1402 LINE",
"1169 1456 LINE"
);
},
{
closed = 1;
nodes = (
"969 -365 LINE",
"948 -373 OFFCURVE",
"907 -383 OFFCURVE",
"870 -383 CURVE SMOOTH",
"722 -383 OFFCURVE",
"639 -277 OFFCURVE",
"639 -89 CURVE SMOOTH",
"639 1456 LINE",
"585 1456 LINE",
"585 -89 LINE SMOOTH",
"585 -314 OFFCURVE",
"691 -437 OFFCURVE",
"870 -437 CURVE SMOOTH",
"911 -437 OFFCURVE",
"943 -430 OFFCURVE",
"982 -417 CURVE"
);
}
);
userData = {
com.typemytype.robofont.mark = (
0.967,
0.6,
1,
1
);
};
width = 1224;
},
{
layerId = "3F40CA7F-E6AC-489E-A736-3B62737B1DDA";
paths = (
{
closed = 1;
nodes = (
"38 1456 LINE",
"38 1185 LINE",
"1245 1185 LINE",
"1245 1456 LINE"
);
},
{
closed = 1;
nodes = (
"1011 -150 LINE",
"979 -158 OFFCURVE",
"954 -162 OFFCURVE",
"912 -162 CURVE SMOOTH",
"842 -162 OFFCURVE",
"805 -122 OFFCURVE",
"805 -15 CURVE SMOOTH",
"805 1456 LINE",
"470 1456 LINE",
"470 -15 LINE SMOOTH",
"470 -288 OFFCURVE",
"622 -437 OFFCURVE",
"871 -437 CURVE SMOOTH",
"926 -437 OFFCURVE",
"971 -433 OFFCURVE",
"1026 -420 CURVE"
);
}
);
userData = {
com.typemytype.robofont.mark = (
0.939,
1,
0.6,
1
);
};
width = 1284;
}
);
unicode = 01AE;
}
{
glyphname = TturnedSmall;
layers = (
{
anchors = (
{
name = bottom;
position = "{577, 0}";
},
{
name = top;
position = "{577, 1290}";
},
{
name = top0315;
position = "{1138, 1290}";
}
);
layerId = "7E29EDC2-3C1E-4E70-8272-9573F49A38C1";
paths = (
{
closed = 1;
nodes = (
"263 1082 LINE",
"48 1082 LINE",
"364 562 LINE",
"579 562 LINE"
);
},
{
closed = 1;
nodes = (
"983 1082 LINE",
"783 1082 LINE",
"783 158 LINE",
"525 158 LINE SMOOTH",
"373 158 OFFCURVE",
"310 248 OFFCURVE",
"310 333 CURVE SMOOTH",
"310 417 OFFCURVE",
"367 503 OFFCURVE",
"505 503 CURVE SMOOTH",
"835 503 LINE",
"835 663 LINE",
"505 663 LINE SMOOTH",
"254 663 OFFCURVE",
"109 522 OFFCURVE",
"109 331 CURVE SMOOTH",
"109 141 OFFCURVE",
"261 0 OFFCURVE",
"525 0 CURVE SMOOTH",
"983 0 LINE"
);
}
);
userData = {
com.typemytype.robofont.mark = (
0.939,
1,
0.6,
1
);
};
width = 1138;
},
{
anchors = (
{
name = bottom;
position = "{560, 0}";
},
{
name = top;
position = "{560, 1290}";
},
{
name = top0315;
position = "{1067, 1290}";
}
);
layerId = master01;
paths = (
{
closed = 1;
nodes = (
"174 1082 LINE",
"110 1082 LINE",
"396 606 LINE",
"461 606 LINE"
);
},
{
closed = 1;
nodes = (
"895 1082 LINE",
"841 1082 LINE",
"841 55 LINE",
"495 55 LINE SMOOTH",
"274 55 OFFCURVE",
"184 178 OFFCURVE",
"184 318 CURVE SMOOTH",
"184 450 OFFCURVE",
"262 577 OFFCURVE",
"453 577 CURVE SMOOTH",
"876 577 LINE",
"876 632 LINE",
"453 632 LINE SMOOTH",
"244 632 OFFCURVE",
"130 498 OFFCURVE",
"130 316 CURVE SMOOTH",
"130 135 OFFCURVE",
"259 0 OFFCURVE",
"495 0 CURVE SMOOTH",
"895 0 LINE"
);
}
);
userData = {
com.typemytype.robofont.mark = (
0.939,
1,
0.6,
1
);
};
width = 1067;
},
{
anchors = (
{
name = bottom;
position = "{571, 0}";
},
{
name = top;
position = "{571, 1290}";
},
{
name = top0315;
position = "{1160, 1290}";
}
);
layerId = "3F40CA7F-E6AC-489E-A736-3B62737B1DDA";
paths = (
{
closed = 1;
nodes = (
"374 1082 LINE",
"52 1082 LINE",
"349 531 LINE",
"671 531 LINE"
);
},
{
closed = 1;
nodes = (
"1038 1082 LINE",
"717 1082 LINE",
"717 258 LINE",
"555 258 LINE SMOOTH",
"450 258 OFFCURVE",
"398 317 OFFCURVE",
"398 385 CURVE SMOOTH",
"398 449 OFFCURVE",
"450 507 OFFCURVE",
"555 507 CURVE SMOOTH",
"842 507 LINE",
"842 724 LINE",
"555 724 LINE SMOOTH",
"260 724 OFFCURVE",
"76 576 OFFCURVE",
"76 373 CURVE SMOOTH",
"76 157 OFFCURVE",
"260 0 OFFCURVE",
"555 0 CURVE SMOOTH",
"1038 0 LINE"
);
}
);
userData = {
com.typemytype.robofont.mark = (
0.939,
1,
0.6,
1
);
};
width = 1160;
}
);
unicode = 1D1A;
}
